/* XPM */
static char *result[] = {
/* columns rows colors chars-per-pixel */
"64 64 226 2 ",
"   c #1D1304",
".  c #281900",
"X  c #382C1A",
"o  c #3D362E",
"O  c #473B2B",
"+  c #453D34",
"@  c #732E18",
"#  c #4D4134",
"$  c #4D443A",
"%  c #51473D",
"&  c #534A3E",
"*  c #524637",
"=  c #564C41",
"-  c #594F43",
";  c #5C5245",
":  c #5E5449",
">  c #594C59",
",  c #565559",
"<  c #61564A",
"1  c #65594C",
"2  c #6A5D4E",
"3  c #625547",
"4  c #6A5E52",
"5  c #635A5C",
"6  c #725749",
"7  c #71614E",
"8  c #6E6153",
"9  c #6C675A",
"0  c #736455",
"q  c #72665A",
"w  c #756A5B",
"e  c #7B6C5C",
"r  c #786856",
"t  c #7F705F",
"y  c #60715C",
"u  c #5B6960",
"i  c #796D61",
"p  c #7D7668",
"a  c #7D7B73",
"s  c #676E63",
"d  c #596550",
"f  c #991F05",
"g  c #B41B00",
"h  c #9C2200",
"j  c #BB271F",
"k  c #B43C3B",
"l  c #D23009",
"z  c #D3022B",
"x  c #D20D2D",
"c  c #D60025",
"v  c #D3152D",
"b  c #D31B2D",
"n  c #DB1C2A",
"m  c #CD1F2D",
"M  c #D6252D",
"N  c #DC242B",
"B  c #D62A2D",
"V  c #DA2C2D",
"C  c #D9332D",
"Z  c #DC3C2C",
"A  c #DC3726",
"S  c #CB2834",
"D  c #D22632",
"F  c #C4353A",
"G  c #CF382C",
"H  c #E42C27",
"J  c #E1312F",
"K  c #E93A29",
"L  c #E52B30",
"P  c #E92831",
"I  c #F12E33",
"U  c #EC3631",
"Y  c #F63633",
"T  c #8E463A",
"R  c #B5472E",
"E  c #866939",
"W  c #B87F3F",
"Q  c #D84D19",
"!  c #E54600",
"~  c #E75318",
"^  c #E6451E",
"/  c #F76B18",
"(  c #DE432C",
")  c #DD4A28",
"_  c #C35121",
"`  c #E2432D",
"'  c #EC412E",
"]  c #E24C2C",
"[  c #EA4825",
"{  c #ED5523",
"}  c #E5542C",
"|  c #EC542C",
" . c #EA5C2B",
".. c #EC5C28",
"X. c #F3542D",
"o. c #F35D2D",
"O. c #F6572B",
"+. c #ED4230",
"@. c #F34B30",
"#. c #FA4832",
"$. c #FD5531",
"%. c #ED502C",
"&. c #DA6A3D",
"*. c #ED642B",
"=. c #EF682A",
"-. c #F16425",
";. c #F46A26",
":. c #F4642C",
">. c #F36B2A",
",. c #FA6B29",
"<. c #F5722A",
"1. c #F57A2E",
"2. c #FC752A",
"3. c #EB6E33",
"4. c #FE6330",
"5. c #FF6831",
"6. c #F47E32",
"7. c #F27730",
"8. c #EF7F37",
"9. c #9E5749",
"0. c #A74C41",
"q. c #B74744",
"w. c #B15851",
"e. c #876656",
"r. c #9C6C54",
"t. c #8E6F4B",
"y. c #B66B53",
"u. c #837463",
"i. c #83766A",
"p. c #867969",
"a. c #8B7C6B",
"s. c #897867",
"d. c #927A6B",
"f. c #827A73",
"g. c #8C7D71",
"h. c #837978",
"j. c #966A62",
"k. c #B57C72",
"l. c #AD7867",
"z. c #C95246",
"x. c #CD764F",
"c. c #E57A42",
"v. c #7F8376",
"b. c #FF8B2E",
"n. c #E9823D",
"m. c #F68433",
"M. c #F58D3A",
"N. c #F88B38",
"B. c #F6933D",
"V. c #FE9B3D",
"C. c #8B864A",
"Z. c #B69546",
"A. c #BBB55B",
"S. c #92816E",
"D. c #8E8274",
"F. c #8D857D",
"G. c #948473",
"H. c #9B8574",
"J. c #9A8875",
"K. c #9B8C7C",
"L. c #93897C",
"P. c #A18F7C",
"I. c #A5897A",
"U. c #B48475",
"Y. c #A2907E",
"T. c #BCBE61",
"R. c #CF8F47",
"E. c #FB9E44",
"W. c #F69A42",
"Q. c #E39247",
"!. c #F7A346",
"~. c #FAAE4B",
"^. c #F6A949",
"/. c #F8B14E",
"(. c #F8B650",
"). c #FABD55",
"_. c #E4B85B",
"`. c #C9856A",
"'. c #DCA94E",
"]. c #DEC05C",
"[. c #FDC459",
"{. c #FED765",
"}. c #EAD167",
"|. c #FEEC73",
" X c #FDFB7D",
".X c #ECE471",
"XX c #7C8880",
"oX c #8B8A82",
"OX c #998C82",
"+X c #9E9283",
"@X c #989489",
"#X c #A39484",
"$X c #AA9987",
"%X c #A59A8D",
"&X c #AC9D8C",
"*X c #A79588",
"=X c #B8988A",
"-X c #A59B93",
";X c #AB9D91",
":X c #B1958B",
">X c #9BA096",
",X c #ADA194",
"<X c #ACA59B",
"1X c #AAA79E",
"2X c #B3A495",
"3X c #B5A69A",
"4X c #B5A99C",
"5X c #BAAB9C",
"6X c #BBA79A",
"7X c #B5AAA2",
"8X c #BCADA1",
"9X c #BEB1A4",
"0X c #B9B2A9",
"qX c #AFAAA0",
"wX c #C0A69A",
"eX c #C2B4AA",
"rX c #C5B9AE",
"tX c #C9BBAE",
"yX c #C1B3A6",
"uX c #C5BAB2",
"iX c #CABDB4",
"pX c #C2B7B0",
"aX c #CCC1B6",
"sX c #CEC2BA",
"dX c #D1C5BD",
"fX c None",
/* pixels */
"fXfXfXfXfXfXfXfXfXfXfXfXfXfXfXfXfXfXfXfXfXfXfXfXfXfXfXfXfXfXfXfXfXfXfXfXfXfXfXfXfXfXfXfXfXfXfXfXfXfXfXfXfXfXfXfXfXfXfXfXfXfXfXfX",
"fXfXfXfXfXfXfXfXfXfXfXfXfXfXfXfXfXfXfXfXfXfXfXfXfXfXfXfXfXfXfXfXfXfXfXfXfXfXfXfXfXfXfXfXfXfXfXfXfXfXfXfXfXfXfXfXfXfXfXfXfXfXfXfX",
"fXfXfXfXfXfXfXfXfXfXfXfXfXfXfXfXfXfXfXfXfXfXfXfXfXfXfXfXfXfXfXfXfXfXfXfXfXfXfXfXfXfXfXfXfXfXfXfXfXfXfXfXfXfXfXfXfXfXfXfXfXfXfXfX",
"fXfXfXfXfXfXfXfXfXfXfXfXfXfXfXfXfXfXfXfXfXfXfXfXfXfXfXfXfXfXfXfXfXfXfXfXfXfXfXfXfXfXfXfXfXfXfXfXfXfXfXfXfXfXfXfXfXfXfXfXfXfXfXfX",
"fXfXfXfXfXfXfXfXfXfXfXfXfXfXfXfXfXfXfXfXfXfXfXfXfXfXfXfXfXfXfXfXfXfXfXx x fXfXfXfXfXfXfXfXfXfXfXfXfXfXfXfXfXfXfXfXfXfXfXfXfXfXfX",
"fXfXfXfXfXfXfXfXfXfXfXfXfXfXfXfXfXfXfXfXfXfXfXfXfXfXfXfXfXfXfXfXfXfXv v b v fXfXfXfXfXfXfXfXfXfXfXfXfXfXfXfXfXfXfXfXfXfXfXfXfXfX",
"fXfXfXfXfXfXfXfXfXfXfXfXfXfXfXfXfXfXfXfXfXfXfXfXfXfXfXfXfXfXfXfXfXfXB B B B V fXfXfXfXfXfXfXfXfXfXfXfXfXfXfXfXfXfXfXfXfXfXfXfXfX",
"fXfXfXfXfXfXfXfXfXfXfXfXfXfXfXfXfXfXfXfXfXfXfXfXfXfXfXfXfXfXfXfXfXZ Z ` +.Z ( fXfXfXfXfXfXfXfXfXfXfXfXfXfXfXfXfXfXfXfXfXfXfXfXfX",
"fXfXfXfXfXfXfXfXfXfXfXfXfXfXfXfXfXfXfXfXfXfXfXfXfXfXfXfXfXfXfXfXC Z ] X.| } } fXfXfXfXfXfXfXfXfXfXfXfXfXfXfXfXfXfXfXfXfXfXfXfXfX",
"fXfXfXfXfXfXfXfXfXfXfXfXfXfXfXfXfXfXfXfXfXfXfXfXfXfXfXfXfXfXfXb C ( | 4.*.*.fXfXfXfXfXfXfXfXfXfXfXfXfXfXfXfXfXfXfXfXfXfXfXfXfXfX",
"fXfXfXfXfXfXfXfXfXfXfXfXfXfXfXfXfXfXfXfXfXfXfXfXfXfXfXfXfXfXx M J @.4.5.>.<.fXfXfXfXfXfXfXfXfXfXfXfXfXfXfXfXfXfXfXfXfXfXfXfXfXfX",
"fXfXfXfXfXfXfXfXfXfXfXfXfXfXfXfXfXfXfXfXfXfXfXfXfXfXfXfXfXv x b Y $.5.2.>.1.>.fXfXfXfXfXfXfXfXfXfXfXfXfXfXfXfXfXfXfXfXfXfXfXfXfX",
"fXfXfXfXfXfXfXfXfXfXfXfXfXfXfXfXfXfXfXfXfXfXfXfXfXfXfXfXM v z v Y $.5.5.1.>.*.} fXfXfXfXfXfXfXfXfXfXfXfXfXfXfXfXfXfXfXfXfXfXfXfX",
"fXfXfXfXfXfXfXfXfXfXfXfXfXfXfXfXfXfXfXfXfXfXfXfXfXfXfXB M v z x V %.:.2.1.>. .( B z fXfXfXfXfXfXfXfXfXfXfXfXfXfXfXfXfXfXfXfXfXfX",
"fXfXfXfXfXfXfXfXfXfXfXfXfXfXfXfXfXfXfXfXfXfXfXfXfXfXB B D b x v V ]  .>.>.*.| ( B x fXfXfXfXfXfXfXfXfXfXfXfXfXfXfXfXfXfXfXfXfXfX",
"fXfXfXfXfXfXfXfXfXfXfXfXfXfXfXfXfXfXfXfXfXfXfXfXfXD M N I I L V Z ]  .=.>.:.$.#.L v v fXfXfXfXfXfXfXfXfXfXfXfXfXfXfXfXfXfXfXfXfX",
"fXfXfXfXfXfXfXfXfXfXfXfXfXfXfXfXfXfXfXfXfXfXfXfXfXfXb N I Y +.` ( } }  . .X.#.Y P b v fXfXfXfXfXfXfXfXfXfXfXfXfXfXfXfXfXfXfXfXfX",
"fXfXfXfXfXfXfXfXfXfXfXfXfXfXfXfXfXfXfXfXfXfXfXfXfXfXz b I #.%. . . . .} ] ` U I n x z fXfXfXfXfXfXfXfXfXfXfXfXfXfXfXfXfXfXfXfXfX",
"fXfXfXfXfXfXfXfXfXfXfXfXfXfXfXfXfXfXfXfXfXfXfXfXfXfXz v U @.o.*.3. .} ( C V L P b b v fXfXfXfXfXfXfXfXfXfXfXfXfXfXfXfXfXfXfXfXfX",
"fXfXfXfXfXfXfXfXfXfXfXfXfXfXfXfXfXfXfXfXfXfXfXfXfXb b B U o.:.3.:.*.} J b v L L C V C fXfXfXfXfXfXfXfXfXfXfXfXfXfXfXfXfXfXfXfXfX",
"fXfXfXfXfXfXfXfXfXfXfXfXfXfXfXfXfXfXfXfXfXfXfXfXfXZ Z ( X.o.,.>.>.*.] B x v L +.( ` ` fXfXfXfXfXfXfXfXfXfXfXfXfXfXfXfXfXfXfXfXfX",
"fXfXfXfXfXfXfXfXfXfXfXfXfXfXfXfXfXfXfXfXfXfXfXB Z ( ] } o.:.;.;.=.} ( M x M K } } } ] ( V fXfXfXfXfXfXfXfXfXfXfXfXfXfXfXfXfXfXfX",
"fXfXfXfXfXfXfXfXfXfXfXfXfXfXfXfXfXfXfXfXfXfXv B Z ] } *.:.>.;.;...{ A M b C ]  .*.*.} ` V b fXfXfXfXfXfXfXfXfXfXfXfXfXfXfXfXfXfX",
"fXfXfXfXfXfXfXfXfXfXfXfXfXfXfXfXfXfXfXfXfXx v B +.X.*.>.<.<.<.<.:. .) C V Z | 3.>.=. .@.J b x fXfXfXfXfXfXfXfXfXfXfXfXfXfXfXfXfX",
"fXfXfXfXfXfXfXfXfXfXfXfXfXfXfXfXfXfXfXfXfXz b P #.$.,.>.2.6.m.m.8.3.} ( Z ] ..>.<.>.4.$.Y v x fXfXfXfXfXfXfXfXfXfXfXfXfXfXfXfXfX",
"fXfXfXfXfXfXfXfXfXfXfXfXfXfXfXfXfXfXfXfXfXz v P #.$.:.>.1.m.M.B.B.n.3.} ) ] ..>.<.>.4.#.I b z fXfXfXfXfXfXfXfXfXfXfXfXfXfXfXfXfX",
"fXfXfXfXfXfXfXfXfXfXfXfXfXfXfXfXfXfXfXfXfXc x V #.X.o.;.6.N.W.^.!.B.n.*.{ { -.;.<.:.o.@.J v z fXfXfXfXfXfXfXfXfXfXfXfXfXfXfXfXfX",
"fXfXfXfXfXfXfXfXfXfXfXfXfXfXfXfXfXfXfXfXfXz v B U @.{ ;.6.B.!.~./.!.M.1.-.-.;.>.>.:.X.@.J b z fXfXfXfXfXfXfXfXfXfXfXfXfXfXfXfXfX",
"fXfXfXfXfXfXfXfXfXfXfXfXfXfXfXfXfXfXfXfXfXS b M K @.{ ,.6.B.^.(.(.^.V.m.1.<.<.>.>.*.X.@.V b D fXfXfXfXfXfXfXfXfXfXfXfXfXfXfXfXfX",
"fXfXfXfXfXfXfXfXfXfXfXfXfXfXfXfXfXfXfXfXR F m n K [ { -.m.B.!.(.(./.^.B.m.m.1.1.>.:.{ K L M F q.fXfXfXfXfXfXfXfXfXfXfXfXfXfXfXfX",
"fXfXfXfXfXfXfXfXfXfXfXfXfXfXfXfXfXfXd 7 9.k S n H ^ { 4.6.B.!.(.(./.^.!.B.M.m.1.;.-.[ K H D F 9.e.y fXfXfXfXfXfXfXfXfXfXfXfXfXfX",
"fXfXfXfXfXfXfXfXfXfXfXfXfXfXfXfXfXy 9 e.9.q.S n H ^ { / 6.B.!.~.(.(.(.^.^.W.M.6.<.{ [ K H S q.w.e.i s fXfXfXfXfXfXfXfXfXfXfXfXfX",
"fXfXfXfXfXfXfXfXfXfXfXfXfXfXfXfXfXa h.I.k.y.z.S A ) ~ =.m.B.!.~.(.[.[.[.[.~.B.N.;.{ ^ A A F w.k.d.i.i.a fXfXfXfXfXfXfXfXfXfXfXfX",
"fXfXfXfXfXfXfXfXfXfXfXfXfXfXfXfXoXOX-X:X=Xk.w._ _ ) ~ / b.b.V.~.).[.{.{.{.[./.M.2.~ l l j k w.k.:X+XL.F.fXfXfXfXfXfXfXfXfXfXfXfX",
"fXfXfXfXfXfXfXfXfXfXfXfXfXfXr a.%X<X7XpXeX:Xj.0.j Q ~ / / b.V.~.[.{.{.|.|.{.[.V.2.! l g f T r.#X,X&X%XK.D.u.fXfXfXfXfXfXfXfXfXfX",
"fXfXfXfXfXfXfXfXfXfXfXfXfX7 e g.-X7XpXpXpX:Xg.e.T _ ~ / / b.V.~.[.{.|. X X|.[.V./ l l h @ 3 p +X2X4X,XY.S.u.e fXfXfXfXfXfXfXfXfX",
"fXfXfXfXfXfXfXfXfXfXfXfXfX7 e J.<XpXdXdXuX1XoXa r.y.&.:.1.m.B.!.[.}..X XdX|.[.V.7.) R T : u v.%X4X5X5X$XJ.u.e w fXfXfXfXfXfXfXfX",
"fXfXfXfXfXfXfXfXfXfXfXfXfX7 u.Y.8XrXdXdXuX0X>X@XP.Z.x.c.n.R.Q.R.'.].}..X|..X].W.3.z.y.j.v.XX@X<X5X5X6X2XP.t 7 7 fXfXfXfXfXfXfXfX",
"fXfXfXfXfXfXfXfXfXfXfXfXfX0 u.#XwXeXiXiXiXuX7X7XwX=X=Xx.x.&.W W Z.Z.A.A.A.].Z.W y.l.U.:X-X1X1X4X5X2X&XY.S.w : 1 fXfXfXfXfXfXfXfX",
"fXfXfXfXfXfXfXfXfXfXfXfXfXr e P.2XwXeXiXiXiXiXpXeXwX=XU.U.r.9.t.E 7 C.C.C.C.C.E r.k.:X0X0X0XrX9X2X$XY.J.p.2 & & fXfXfXfXfXfXfXfX",
"fXfXfXfXfXfXfXfXfXfXfXfXfXr i G.#X&X2X9XrXaXsXdXaXeX3X$XG.s.q < * * & & ; < 2 7 u.L.,XpXdXdXtXwX&XP.S.u.0 - $ fXfXfXfXfXfXfXfXfX",
"fXfXfXfXfXfXfXfXfXfXfXfXfXe e p.G.J.%X2X9XiXdXdXsXrX9X<X@XF.a s d ; > , > 5 5 9 p @X<XuXsXdXeX5X#XS.u.0 1 & + fXfXfXfXfXfXfXfXfX",
"fXfXfXfXfXfXfXfXfXfXfXfXfXfXfXu.p.a.g.*X4XyXiXsXsXaXuX0XqX<X@XoXh.h.a h.h.f.a D.D.@X,X9XtXeX8X;XK.u.0 8 : & fXfXfXfXfXfXfXfXfXfX",
"fXfXfXfXfXfXfXfXfXfXfXfXfXfXfXfXw q q D.$X4XyXtXaXsXaXiXuX9X4X,X%X%X%X-X%X%X+XK.K.#X&X5X5X3X,X#Xa.0 1 1 fXfXfXfXfXfXfXfXfXfXfXfX",
"fXfXfXfXfXfXfXfXfXfXfXfXfXfXfXfXfX$ & q D.%X2X9XtXiXdXdXsXiXeX5X5X4X5X5X5X4X&X$X#X#X$X&X&XY.K.a.q ; & fXfXfXfXfXfXfXfXfXfXfXfXfX",
"fXfXfXfXfXfXfXfXfXfXfXfXfXfXfXfXfXfXX & q a.+X2X9XuXiXdXaXaXeX9X5X5X5X5X5X3X,X$XY.Y.Y.Y.Y.S.u.8 ; + o fXfXfXfXfXfXfXfXfXfXfXfXfX",
"fXfXfXfXfXfXfXfXfXfXfXfXfXfXfXfXfXfXfX$ 4 p D.#X2X8XeXuXrXeX5X,X&X&X;X,X&X&X$X#XP.J.J.J.S.u.r 2 = o fXfXfXfXfXfXfXfXfXfXfXfXfXfX",
"fXfXfXfXfXfXfXfXfXfXfXfXfXfXfXfXfXfXfXfX1 9 i D.#X2X3X5X5X2X%XK.K.K.K.Y.Y.K.K.G.G.S.a.d.s.0 8 1 fXfXfXfXfXfXfXfXfXfXfXfXfXfXfXfX",
"fXfXfXfXfXfXfXfXfXfXfXfXfXfXfXfXfXfXfXfXfX3 < q g.L.*X:X&XY.J.S.u.p.p.a.a.a.a.a.s.u.u.i q < : fXfXfXfXfXfXfXfXfXfXfXfXfXfXfXfXfX",
"fXfXfXfXfXfXfXfXfXfXfXfXfXfXfXfXfXfXfXfXfXfXO & 4 u.G.K.P.J.d.u.e r e e e i i e.e w 8 1 = $ $ fXfXfXfXfXfXfXfXfXfXfXfXfXfXfXfXfX",
"fXfXfXfXfXfXfXfXfXfXfXfXfXfXfXfXfXfXfXfXfXfX  O 3 e d.G.J.S.s.e 0 0 7 2 8 8 q q q 0 1 - $ + fXfXfXfXfXfXfXfXfXfXfXfXfXfXfXfXfXfX",
"fXfXfXfXfXfXfXfXfXfXfXfXfXfXfXfXfXfXfXfXfXfXfXfX2 u.a.S.S.d.u.r 7 2 1 3 ; 1 4 8 4 2 < ; fXfXfXfXfXfXfXfXfXfXfXfXfXfXfXfXfXfXfXfX",
"fXfXfXfXfXfXfXfXfXfXfXfXfXfXfXfXfXfXfXfXfXfXfXfXfXu.p.a.d.a.u.r 7 2 < ; = - < 1 < < : fXfXfXfXfXfXfXfXfXfXfXfXfXfXfXfXfXfXfXfXfX",
"fXfXfXfXfXfXfXfXfXfXfXfXfXfXfXfXfXfXfXfXfXfXfXfXfXfXe u.a.a.a.p.u.e 0 1 - - : : - - - fXfXfXfXfXfXfXfXfXfXfXfXfXfXfXfXfXfXfXfXfX",
"fXfXfXfXfXfXfXfXfXfXfXfXfXfXfXfXfXfXfXfXfXfXfXfXfXfX8 0 s.G.OXOXOXL.p.i 0 4 4 1 - = = fXfXfXfXfXfXfXfXfXfXfXfXfXfXfXfXfXfXfXfXfX",
"fXfXfXfXfXfXfXfXfXfXfXfXfXfXfXfXfXfXfXfXfXfXfXfXfXfX; 2 a.+X,X4X7X,X*XL.p.i w 8 ; % $ fXfXfXfXfXfXfXfXfXfXfXfXfXfXfXfXfXfXfXfXfX",
"fXfXfXfXfXfXfXfXfXfXfXfXfXfXfXfXfXfXfXfXfXfXfXfXfXO + < g.-X0XiXiXrX5X$XJ.d.u.e < = $ fXfXfXfXfXfXfXfXfXfXfXfXfXfXfXfXfXfXfXfXfX",
"fXfXfXfXfXfXfXfXfXfXfXfXfXfXfXfXfXfXfXfXfXfXfXfXfXfXX = h.-X0XiXdXiXyX2XP.G.p.w ; $ + fXfXfXfXfXfXfXfXfXfXfXfXfXfXfXfXfXfXfXfXfX",
"fXfXfXfXfXfXfXfXfXfXfXfXfXfXfXfXfXfXfXfXfXfXfXfXfXfX. + i OXqXpXiXtX8X:XK.d.u.8 ; $ fXfXfXfXfXfXfXfXfXfXfXfXfXfXfXfXfXfXfXfXfXfX",
"fXfXfXfXfXfXfXfXfXfXfXfXfXfXfXfXfXfXfXfXfXfXfXfXfXfXfX+ 9 F.-X<X7X7X;XOXS.u.e 4 ; fXfXfXfXfXfXfXfXfXfXfXfXfXfXfXfXfXfXfXfXfXfXfX",
"fXfXfXfXfXfXfXfXfXfXfXfXfXfXfXfXfXfXfXfXfXfXfXfXfXfXfXfXfXg.g.OXoXOXD.p.w q 0 fXfXfXfXfXfXfXfXfXfXfXfXfXfXfXfXfXfXfXfXfXfXfXfXfX",
"fXfXfXfXfXfXfXfXfXfXfXfXfXfXfXfXfXfXfXfXfXfXfXfXfXfXfXfXfXfX5 4 4 q q 4 1 : < fXfXfXfXfXfXfXfXfXfXfXfXfXfXfXfXfXfXfXfXfXfXfXfXfX",
"fXfXfXfXfXfXfXfXfXfXfXfXfXfXfXfXfXfXfXfXfXfXfXfXfXfXfXfXfXfXO O + & = = & & fXfXfXfXfXfXfXfXfXfXfXfXfXfXfXfXfXfXfXfXfXfXfXfXfXfX",
"fXfXfXfXfXfXfXfXfXfXfXfXfXfXfXfXfXfXfXfXfXfXfXfXfXfXfXfXfXfXO O O * = = $ & fXfXfXfXfXfXfXfXfXfXfXfXfXfXfXfXfXfXfXfXfXfXfXfXfXfX"
};
