/* XPM */
static char *result[] = {
/* columns rows colors chars-per-pixel */
"32 32 170 2 ",
"   c #000000",
".  c #080806",
"X  c #0C0C0C",
"o  c #0B0303",
"O  c #131313",
"+  c #1C1B1C",
"@  c #191518",
"#  c #201F1F",
"$  c #1F201E",
"%  c #242322",
"&  c #282626",
"*  c #282827",
"=  c #2C2B2B",
"-  c #322F2F",
";  c #2F312F",
":  c #30322F",
">  c #312F31",
",  c #213435",
"<  c #343433",
"1  c #373837",
"2  c #3C3C3B",
"3  c #363238",
"4  c #40413F",
"5  c #324041",
"6  c #454544",
"7  c #484747",
"8  c #474847",
"9  c #4C4C4B",
"0  c #494748",
"q  c #4F504F",
"w  c #50514F",
"e  c #545453",
"r  c #585657",
"t  c #575857",
"y  c #585957",
"u  c #5B5B5A",
"i  c #605E5F",
"p  c #5F605F",
"a  c #60605F",
"s  c #646464",
"d  c #676867",
"f  c #6B6B6B",
"g  c #706F6F",
"h  c #6D7875",
"j  c #737372",
"k  c #7B7C7B",
"l  c #777979",
"z  c #8E0000",
"x  c #970000",
"c  c #9D0001",
"v  c #851015",
"b  c #94171B",
"n  c #A6020E",
"m  c #B60000",
"M  c #BD000B",
"N  c #A50612",
"B  c #B70915",
"V  c #A7161D",
"C  c #9E1B20",
"Z  c #B41A20",
"A  c #9B2428",
"S  c #BF262C",
"D  c #A03A3E",
"F  c #D30000",
"G  c #DB0001",
"H  c #C30E1A",
"J  c #D50518",
"K  c #C8151E",
"L  c #E20000",
"P  c #C41720",
"I  c #CE1721",
"U  c #D21D26",
"Y  c #D91726",
"T  c #C5252B",
"R  c #C5292E",
"E  c #D72129",
"W  c #DB242B",
"Q  c #CA2D31",
"!  c #D43136",
"~  c #E4252B",
"^  c #E52B31",
"/  c #EC2F34",
"(  c #EF3337",
")  c #F0363A",
"_  c #F6383B",
"`  c #CD3E40",
"'  c #EC3C42",
"]  c #E13D45",
"[  c #FB3F40",
"{  c #934B4D",
"}  c #945F5F",
"|  c #B24B4D",
" . c #B94D50",
".. c #B25759",
"X. c #BD5E61",
"o. c #966968",
"O. c #807E7E",
"+. c #9A7D7C",
"@. c #AF6D6E",
"#. c #BE6A69",
"$. c #A97779",
"%. c #BB7474",
"&. c #B47B7C",
"*. c #CD5358",
"=. c #EC4649",
"-. c #FA4547",
";. c #F54144",
":. c #E85156",
">. c #F75F61",
",. c #C17675",
"<. c #CE7A79",
"1. c #CB7170",
"2. c #D57A79",
"3. c #FE6568",
"4. c #EE6D70",
"5. c #EB7377",
"6. c #7F807F",
"7. c #778987",
"8. c #838383",
"9. c #898987",
"0. c #8B8B8A",
"q. c #888886",
"w. c #939393",
"e. c #9A9B9A",
"r. c #999897",
"t. c #BB8887",
"y. c #B69C99",
"u. c #96A2A1",
"i. c #A3A4A3",
"p. c #AAA8A6",
"a. c #A7ABAA",
"s. c #ABACAB",
"d. c #A7A9A7",
"f. c #B4A3A1",
"g. c #B5B5B4",
"h. c #BBBCBB",
"j. c #BBB8B5",
"k. c #C48886",
"l. c #D08786",
"z. c #C69696",
"x. c #F68386",
"c. c #FC898C",
"v. c #F99C9D",
"b. c #C4A09F",
"n. c #D7AEB0",
"m. c #C5BDBD",
"M. c #E4A2A5",
"N. c #FFA4A5",
"B. c #FFBCBE",
"V. c #BFC1BF",
"C. c #C9C1BE",
"Z. c #B9C3C2",
"A. c #C2C3C2",
"S. c #C3C9C6",
"D. c #C4CCCA",
"F. c #CCCDCC",
"G. c #CCD1CD",
"H. c #CCD6D2",
"J. c #D2D2D1",
"K. c #D7DBD9",
"L. c #DBDDDB",
"P. c #D9E1DE",
"I. c #D9E4E1",
"U. c #E3E4E3",
"Y. c #EDEEED",
"T. c #FEEBEC",
"R. c #EFF1EF",
"E. c #F2F4F2",
"W. c white",
"Q. c None",
/* pixels */
"Q.Q.Q.Q.Q.Q.Q.Q.Q.Q.Q.Q.Q.Q.Q.Q.Q.Q.Q.Q.Q.Q.Q.Q.Q.Q.Q.Q.Q.Q.Q.Q.",
"Q.Q.Q.Q.Q.Q.Q.Q.Q.Q.Q.Q.Q.Q.Q.Q.Q.Q.Q.Q.Q.Q.Q.Q.Q.Q.Q.Q.Q.Q.Q.Q.",
"Q.Q.Q.Q.Q.Q.Q.Q.Q.Q.Q.Q.Q.Q.Q.Q.Q.Q.Q.Q.Q.Q.Q.Q.Q.Q.Q.Q.Q.Q.Q.Q.",
"Q.Q.Q.Q.Q.Q.Q.Q.Q.Q.Q.Q.Q.Q.Q.Q.Q.Q.Q.Q.Q.Q.Q.Q.Q.Q.Q.Q.Q.Q.Q.Q.",
"Q.Q.Q.Q.Q.Q.Q.Q.Q.Q.4.x.c.v.c.3.3.>.=.] ) / Q.Q.Q.Q.Q.Q.Q.Q.Q.Q.",
"Q.Q.Q.Q.Q.Q.Q.Q.:.x.N.B.T.T.n.v C C N B P E W U Q.Q.Q.Q.Q.Q.Q.Q.",
"Q.Q.Q.Q.F.u...] c.N.5.*.$.$.{ x x x N N N B E ~ T } l p Q.Q.Q.Q.",
"Q.Q.Q.Q.U.I.2.' 5.M.z.z z c m P U E ^ ( ( ^ W ~ ~ #.7.< Q.Q.Q.Q.",
"Q.Q.Q.Q.Y.I.l.L Y M c b V Z Z H I W ) [ [ [ _ ( ! } h 5 Q.Q.Q.Q.",
"Q.Q.Q.Q.E.K.f.X.J J K T R R T T R Q ' ;.-.-.=.`  .@.o., Q.Q.Q.Q.",
"Q.Q.Q.Q.Y.E.K.g.$. .! L G F F F F F L L G M A D  .#.+.5 Q.Q.Q.Q.",
"Q.Q.Q.Q.W.W.Y.L.H.S.j.y.t.k.,.1.2.<.2.,.&.&.t.z.b.C.V.3 Q.Q.Q.Q.",
"Q.Q.Q.Q.L.U.K.J.J.J.F.H.D.D.Z.Z.S.S.F.A.m.m.m.A.S.J.s.# Q.Q.Q.Q.",
"Q.Q.Q.Q.8.i.p.u.i.i.p.i.d.d.i.p.p.d.s.s.s.d.a.d.s.s.0.  Q.Q.Q.Q.",
"Q.Q.Q.Q.s w.w.9.q.9.0.9.9.0.9.w.8.q.9.9.0.q.9.9.8.0.k @ Q.Q.Q.Q.",
"Q.Q.Q.Q.Q.2 < < 2 6 9 9 q e r u r e 0 0 0 0 6 2 = & Q.Q.Q.Q.Q.Q.",
"Q.Q.Q.Q.Q.Q.6 e 9 6 q 8 q 6 4 = = < = & $ + $ $ O   Q.Q.Q.Q.Q.Q.",
"Q.Q.Q.Q.Q.Q.f 8.l f l f g u f 7 q 9 6 4 1 ; < < % . .           ",
"Q.Q.Q.Q.Q.Q.f q.k l l s j r a 7 d 9 e 6 8 1 1 2 * O Q.X . Q.Q.Q.",
"Q.Q.Q.Q.Q.Q.d 8.8.8.O.d h u g 0 f w d 9 t 8 9 8 1 % Q.Q.Q.      ",
"Q.Q.Q.Q.Q.Q.j 6.8.8.6.f k r k 0 f w d e u e e w 3 X O + @ Q.    ",
"Q.Q.Q.Q.F.J.i.6.8.8.8.j 7.i O.q j e d w f t t t 1 # 1 6 2 Q.    ",
"Q.Q.Q.Q.G.P.p.8.7.q.9.j q.s 8.e l t f u f t u t 1 % 6 e 6 Q.    ",
"Q.Q.Q.Q.J.U.i.g O.0.w.f 0.l 8.q k t g d k a t e - - 9 e 9 Q.    ",
"Q.Q.Q.Q.U.E.s.g k w.0.j w.k q.u k p k d 8.s y t 1 2 t t 9 Q.    ",
"Q.Q.Q.Q.U.E.i.6 d f f u j u O.r p 4 d 1 t ; ; -     $ 6 q Q.    ",
"Q.Q.Q.Q.R.W.J.g.h.j.h.m.h.h.h.s.s.u.i.i.i.i.i.i.i.e.0.g 4 Q.    ",
"Q.Q.Q.Q.i.s.A.J.F.F.J.J.J.J.A.A.h.h.h.C.Z.A.V.h.V.V.s.0.  Q.    ",
"Q.Q.Q.Q.k 8.f f k g t r i i j O.k l g g s i r s f d j j O Q.Q.Q.",
"Q.Q.Q.Q.w.p.r.0.r.w.O.k 8.8.r.r.r.w.q.8.O.8.8.0.0.8.9.k         ",
"Q.Q.Q.Q.Q.  & & @ = - < - - & = = = % & < = 1 3 = # o   . Q.Q.Q.",
"Q.Q.Q.Q.Q.Q.Q.Q.Q.Q.Q.Q.Q.Q.Q.Q.Q.Q.Q.Q.Q.Q.Q.Q.Q.Q.Q.Q.Q.Q.Q.Q."
};
