/* XPM */
static char *result[] = {
/* columns rows colors chars-per-pixel */
"64 64 91 1 ",
"  c #E60026",
". c #EA0126",
"X c #E70F26",
"o c #EB0B26",
"O c #FE002A",
"+ c #FE0C2A",
"@ c #E71326",
"# c #EA1326",
"$ c #EA1C26",
"% c #F31C27",
"& c #FA1129",
"* c #FF1B2A",
"= c #E72126",
"- c #EA2526",
"; c #EB2B26",
": c #F12D26",
"> c #FF272A",
", c #F42C28",
"< c #FE2E2A",
"1 c #EC3326",
"2 c #EC3D26",
"3 c #F13326",
"4 c #F23C26",
"5 c #F43728",
"6 c #FE312A",
"7 c #F53C28",
"8 c #FA3E28",
"9 c #EC4226",
"0 c #ED4C26",
"q c #F34326",
"w c #F44C26",
"e c #F94D26",
"r c #F44328",
"t c #FD4329",
"y c #F44C28",
"u c #FF4C2A",
"i c #EE5426",
"p c #EE5C26",
"a c #EF5528",
"s c #EF5C28",
"d c #F45326",
"f c #F95426",
"g c #F35C26",
"h c #F95A26",
"j c #FD532A",
"k c #FE5D29",
"l c #EE6326",
"z c #EF6826",
"x c #F26426",
"c c #FA6327",
"v c #F26C26",
"b c #FA6B27",
"n c #F46428",
"m c #FF6529",
"M c #F46C28",
"N c #FD6D2A",
"B c #F37426",
"V c #FB7227",
"C c #F47C26",
"Z c #FB7C27",
"A c #F67429",
"S c #FD732A",
"D c #F77A29",
"F c #FC7B29",
"G c #F58226",
"H c #FB8527",
"J c #F68B26",
"K c #F98B26",
"L c #F68428",
"P c #FD8329",
"I c #FE8C2A",
"U c #F69326",
"Y c #FA9426",
"T c #F79A27",
"R c #FA9D26",
"E c #FE932A",
"W c #FF9B2B",
"Q c #F7A427",
"! c #FAA426",
"~ c #FBAA26",
"^ c #FFA52B",
"/ c #FDAC29",
"( c #FDB427",
") c #FEBA27",
"_ c #FFB329",
"` c #FFBA2A",
"' c #FFC327",
"] c #FFC926",
"[ c #FFC52A",
"{ c #FFCA29",
"} c None",
/* pixels */
"}}}}}}}}}}}}}}}}}}}}}}}}}}}}}}}}}}}}}}}}}}}}}}}}}}}}}}}}}}}}}}}}",
"}}}}}}}}}}}}}}}}}}}}}}}}}}}}}}}}}}}}}}}}}}}}}}}}}}}}}}}}}}}}}}}}",
"}}}}}}}}}}}}}}}}}}}}}}}}}}}}}}}}}}}}}}}}}}}}}}}}}}}}}}}}}}}}}}}}",
"}}}}}}}}}}}}}}}}}}}}}}}}}}}}}}}}}}}}}}}}}}}}}}}}}}}}}}}}}}}}}}}}",
"}}}}}}}}}}}}}}}}}}}}}}}}}}}}}}}}}}}}}}}}}}}}}}}}}}}}}}}}}}}}}}}}",
"}}}}}}}}}}}}}}}}}}}}}}}}}}}}}}}}}}}}}}}}}}}}}}}}}}}}}}}}}}}}}}}}",
"}}}}}}}}}}}}}}}}}}}}}}}}}}}}}}}}}}}}}}}}}}}}}}}}}}}}}}}}}}}}}}}}",
"}}}}}}}}}}}}}}}}}}}}}}}}}}}}}}}}}}}}}}}}}}}}}}}}}}}}}}}}}}}}}}}}",
"}}}}}}}}}}}}}}}}}}}}}}}}}}}}}}}}}}}}}}}}}}}}}}}}}}}}}}}}}}}}}}}}",
"}}}}}}}}}}}}}}}}}}}}}}}}}}}}}}}}}}}}}}}}}}}}}}}}}}}}}}}}}}}}}}}}",
"}}}}}}}}}}}}}}}}}}}}}}}}}}}}}}}}}}}}}}}}}}}}}}}}}}}}}}}}}}}}}}}}",
"}}}}}}}}}}}}}}}}}}}}}}}}}}}}}}}}}}}}}}}}}}}}}}}}}}}}}}}}}}}}}}}}",
"}}}}}}}}}}}}}}}}}}}}}}}}}}}}}}}}}}}}}}}}}}}}}}}}}}}}}}}}}}}}}}}}",
"}}}}}}}}}}}}}}}}}}}}}}}}}}}}}}}}}}}}}}}}}}}}}}}}}}}}}}}}}}}}}}}}",
"}}}}}}}}}}}}}}}}}}}}}}}}}}}}}}}}}}}}}}}}}}}}}}}}}}}}}}}}}}}}}}}}",
"}}}}}}}}}}}};6--6}}}}}}}}}}}}}}}}}}}}}}}}}};-;6<}}}}}}}}}}}}}}}}",
"}}}}}}}}}>6<33:--NV}}}}}}}}}}}}}}}}}}}}}}BF1-,33<6<#}}}}}}}}}}}}",
"}}}}}96SkX:1-33;3.oVM}}}}}}}}}}}}}}}}}}zF;.;;:3;;3.jFt;}}}}}}}}}",
"}}}}v*7qd02:;;3;3;;.$SM}}}}}}}}}}}}}}BD2 ;;3:3;-310i4qOx}}}}}}}}",
"}}}srxdwwi1;3;:33-;;; 1SL}}}xgms}}}LNy =1--333;31-aqewvqa}}}}}}}",
"}}v6#g2Mgwq$33131;=;-;=$mA}2jo.u0}CS;$;;--;33333$2edB9g1&x}}}}}}",
"}}h$hw309xew;33;1;;=;-;; dL9.57.:Cn#-1-=---;3:3-qfg002qh3u}}}}}}",
"}GC9;whed2gdh34e;=;;;;;;;1I2My-D-I9=;-;;;;;=wq:hdx9ewfw;2BG}}}}}",
"vt9@sv-1fdc47hhh;;;;=;;;=1vXdFAn n0$1;---;;-fhdw3hdh3;xz 97x}}}}",
"3$5hPq-B0;7hPb:;------1=1vl#2PZd.dB9$;-;-----;fPcq11C2;Pb7%6}}}}",
"CB53feAId@dP4;:4Cvdg$0-9ZB1IZ-;vW9sP0-0;yhgHd-3:Pc@4PFff5:vC}}}}",
"}}CGp37uhPZ3,vG9$:PWFw1iRgaqZa2LwgwRv;9VEEq$;CC5;VHcu770GC}}}}}}",
"}}}}}CGx1ttqC}}}}}o-ISPyL_FMAbDcBb/Y5PSEq }}}}}Ge8t7iGC}}}}}}}}}",
"}}}}}}}}GCGC}}}}}}}} qNFcYCqgAAcqMWcZNh }}}}}}}}CGGG}}}}}}}}}}}}",
"}}}}}}}}}}}}}}}}}}}}}} nDV/A4dd9h/DAM }}}}}}}}}}}}}}}}}}}}}}}}}}",
"}}}}}}}}}}}}}}}}}}}}}}}}SPPJ1BLoJLPF9}}}}}}}}}}}}}}}}}}}}}}}}}}}",
"}}}}}}}}}}}}}}}}}}}}}}}}a^AURBCK!n^A}}}}}}}}}}}}}}}}}}}}}}}}}}}}",
"}}}}}}}}}}}}}}}}}}}}}}}}}IIiJgiHpPI}}}}}}}}}}}}}}}}}}}}}}}}}}}}}",
"}}}}}}}}}}}}}}}}}}}}}}}}}mEP0AZ0AWNC}}}}}}}}}}}}}}}}}}}}}}}}}}}}",
"}}}}}}}}}}}}}}}}}}}}}}}}}jPI.ZI PIk}}}}}}}}}}}}}}}}}}}}}}}}}}}}}",
"}}}}}}}}}}}}}}}}}}}}}}}}l5AdU01Kbnyi}}}}}}}}}}}}}}}}}}}}}}}}}}}}",
"}}}}}}}}}}}}}}}}}}}}}}}}-FF2ICvYanI:}}}}}}}}}}}}}}}}}}}}}}}}}}}}",
"}}}}}}}}}}}}}}}}}}}}}}}};Pc=F()I-dIr}}}}}}}}}}}}}}}}}}}}}}}}}}}}",
"}}}}}}}}}}}}}}}}}}}}}}}}sWEs;ZH52EWN}}}}}}}}}}}}}}}}}}}}}}}}}}}}",
"}}}}}}}}}}}}}}}}m}}}}}}}nNbWZhdVWDnS}}}}}}}a}}}}}}}}}}}}}}}}}}}}",
"}}}}}}}}}}}}}}}}m}}}}}}}BFqPWWWEIybD}}}}}}}h}}}}}}}}}}}}}}}}}}}}",
"}}}}}}}}}}}}}}}}n:}}}}}}ZFPPVIIZFIPF}}}}}}-k}}}}}}}}}}}}}}}}}}}}",
"}}}}}}}}}}}}}}}}Gu%}}}}BtIEIo3w.FEEex}}}};>C}}}}}}}}}}}}}}}}}}}}",
"}}}}}}}}}}}}}}}}}m7O;}z6BRVZl9=lBZEJ.F}}+3mv}}}}}}}}}}}}}}}}}}}}",
"}}}}}}}}}}}}}}}}}}vMtO 1(RY~~Bp~!RY)p O6bz}}}}}}}}}}}}}}}}}}}}}}",
"}}}}}}}}}}}}}}}}}}id0MsLT~~)Us0J__~RUiviii}}}}}}}}}}}}}}}}}}}}}}",
"}}}}}}}}}}}}}}}};OuF#1JCaTJTz;@dUJTvvU0.NkO$1}}}}}}}}}}}}}}}}}}}",
"}}}}}}}}}}}}}}}+j[~}_WCCBaCzJBpUvCdBBJZ(}}[SO}}}}}}}}}}}}}}}}}}}",
"}}}}}}}}}}}}}}#SC}}}}{`GHG!B_Lx)CUYCK^{}}}}}F-}}}}}}}}}}}}}}}}}}",
"}}}}}}}}}}}}}}k}}}}}}}~R)^`WJvs}E_//~T}}}}}}}m}}}}}}}}}}}}}}}}}}",
"}}}}}}}}}}}}}}D}}}}}}}]_T~`_}YU}__(T~'}}}}}}}}}}}}}}}}}}}}}}}}}}",
"}}}}}}}}}}}}}}C}}}}}}})g[}}}}RU}}'}]g~}}}}}}}}}}}}}}}}}}}}}}}}}}",
"}}}}}}}}}}}}}}}}}}}}}}xF'}}}}}}}}[}]Ia}}}}}}}}}}}}}}}}}}}}}}}}}}",
"}}}}}}}}}}}}}}}}}}}}}}gF'}}}}}}}}}}}Ii}}}}}}}}}}}}}}}}}}}}}}}}}}",
"}}}}}}}}}}}}}}}}}}}}}}C^}}}}}}}}}}}}~F}}}}}}}}}}}}}}}}}}}}}}}}}}",
"}}}}}}}}}}}}}}}}}}}}}}QJ}}}}}}}}}}}}TY}}}}}}}}}}}}}}}}}}}}}}}}}}",
"}}}}}}}}}}}}}}}}}}}}}}}}}}}}}}}}}}}}}}}}}}}}}}}}}}}}}}}}}}}}}}}}",
"}}}}}}}}}}}}}}}}}}}}}}}}}}}}}}}}}}}}}}}}}}}}}}}}}}}}}}}}}}}}}}}}",
"}}}}}}}}}}}}}}}}}}}}}}}}}}}}}}}}}}}}}}}}}}}}}}}}}}}}}}}}}}}}}}}}",
"}}}}}}}}}}}}}}}}}}}}}}}}}}}}}}}}}}}}}}}}}}}}}}}}}}}}}}}}}}}}}}}}",
"}}}}}}}}}}}}}}}}}}}}}}}}}}}}}}}}}}}}}}}}}}}}}}}}}}}}}}}}}}}}}}}}",
"}}}}}}}}}}}}}}}}}}}}}}}}}}}}}}}}}}}}}}}}}}}}}}}}}}}}}}}}}}}}}}}}",
"}}}}}}}}}}}}}}}}}}}}}}}}}}}}}}}}}}}}}}}}}}}}}}}}}}}}}}}}}}}}}}}}",
"}}}}}}}}}}}}}}}}}}}}}}}}}}}}}}}}}}}}}}}}}}}}}}}}}}}}}}}}}}}}}}}}"
};
