/* XPM */
static char *result[] = {
/* columns rows colors chars-per-pixel */
"64 64 88 1 ",
"  c #E60126",
". c #E90026",
"X c #EA0C26",
"o c #F20027",
"O c #E71326",
"+ c #EA1326",
"@ c #EB1B26",
"# c #F31527",
"$ c #F31B27",
"% c #FC1D29",
"& c #E72626",
"* c #EB2426",
"= c #E62A26",
"- c #EB2C26",
"; c #F32527",
": c #F42A27",
"> c #F52228",
", c #FF2729",
"< c #F42D28",
"1 c #FF2C29",
"2 c #EC3326",
"3 c #ED3C26",
"4 c #F23526",
"5 c #F13C26",
"6 c #FC3429",
"7 c #F63B28",
"8 c #FE3C2B",
"9 c #EC4326",
"0 c #ED4B26",
"q c #F24326",
"w c #F34B26",
"e c #F64128",
"r c #FF452A",
"t c #FF4E29",
"y c #EE5326",
"u c #EE5B26",
"i c #F35427",
"p c #FB5127",
"a c #F45C26",
"s c #F85B27",
"d c #F05728",
"f c #FF542B",
"g c #F65C28",
"h c #FF5C2A",
"j c #EF6426",
"k c #EF6B26",
"l c #EF6328",
"z c #F36426",
"x c #F96527",
"c c #F26C26",
"v c #FA6B27",
"b c #F56328",
"n c #FD6429",
"m c #F66C28",
"M c #FC6C29",
"N c #EF7826",
"B c #F37526",
"V c #F97427",
"C c #F47C26",
"Z c #F67329",
"A c #FC7429",
"S c #FC7B29",
"D c #F58426",
"F c #FB8426",
"G c #F68C26",
"H c #FA8D26",
"J c #FE8429",
"K c #FF8B29",
"L c #F79326",
"P c #FA9426",
"I c #F79A26",
"U c #F99B26",
"Y c #FE932B",
"T c #FF9B2B",
"R c #FAA426",
"E c #FBAB26",
"W c #FFA22C",
"Q c #FFAD29",
"! c #FDB326",
"~ c #FEBB26",
"^ c #FFB32A",
"/ c #FEBA29",
"( c #FFC326",
") c #FFCC26",
"_ c #FFC529",
"` c #FFCB29",
"' c #FFD026",
"] c None",
/* pixels */
"]]]]]]]]]]]]]]]]]]]]]]]]]]]]]]]]]]]]]]]]]]]]]]]]]]]]]]]]]]]]]]]]",
"]]]]]]]]]]]]]]]]]]]]]]]]]]]]]]]]]]]]]]]]]]]]]]]]]]]]]]]]]]]]]]]]",
"]]]]]]]]]]]]]]]]]]]]]]]]]]]]]]]]]]]]]]]]]]]]]]]]]]]]]]]]]]]]]]]]",
"]]]]]]]]]]]]]]]]]]]]]]]]]]]]]]]]]]]]]]]]]]]]]]]]]]]]]]]]]]]]]]]]",
"]]]]]]]]]]]]]]]]]]]]]]]]]]]]]]]]]]]]]]]]]]]]]]]]]]]]]]]]]]]]]]]]",
"]]]]]]]]]]]]]]]]]]]]]]]]]]]]]]]]]]]]]]]]]]]]]]]]]]]]]]]]]]]]]]]]",
"]]]]]]]]]]]]]]]]]]]]]]]]]]]]]]]]]]]]]]]]]]]]]]]]]]]]]]]]]]]]]]]]",
"]]]]]]]]]]]]]]]]]]]]]]]]]]]]]]]]]]]]]]]]]]]]]]]]]]]]]]]]]]]]]]]]",
"]]]]]]]]]]]]]]]]]]]]]]]]]]]]mSYJc]]]]]]]]]]]]]]]]]]]]]]]]]]]]]]]",
"]]]]]]]]]]]]]]]]]]]]]]]]]]]CSbuzSS]]]]]]]]]]]]]]]]]]]]]]]]]]]]]]",
"]]]]]]]]]]]]]]]]]]]]]]]]3]Fn*K3J9pD]9]]]]]]]]]]]]]]]]]]]]]]]]]]]",
"]]]]]]]]]]]]]]]]]]]]]]]8SSMCZwmibJMAS8]]]]]]]]]]]]]]]]]]]]]]]]]]",
"]]]]]]]]]]]]]]]]]]]]]]]PT<-mJl.uJm3+YP]]]]]]]]]]]]]]]]]]]]]]]]]]",
"]]]]]]]]]]]]]]]]]]]]]]]]RTCwJimwFiVYR]]]]]]]]]]]]]]]]]]]]]]]]]]]",
"]]]]]]]]]]]]]]]]]]]]]]]]]^n0cbKmzds^]]]]]]]]]]]]]]]]]]]]]]]]]]]]",
"]]]]]]]]]]]]]]]]]]]]]]]]]LQbib5aiiWL]]]]]]]]]]]]]]]]]]]]]]]]]]]]",
"]]]]]]]]]]]]]]]]]]]]]]]]]m!F.0Fu.BQB]]]]]]]]]]]]]]]]]]]]]]]]]]]]",
"]]]]]]]]]]]]]]]]]]]]]]]]]DnIG-L9BRbD]]]]]]]]]]]]]]]]]]]]]]]]]]]]",
"]]]]]]]]]]]]]]]]]]]]]]]]]nukEHCFEB0xB]]]]]]]]]]]]]]]]]]]]]]]]]]]",
"]]]]]]]]]]]]]]]]]]]]]]]]Chm4a923a5VhZ]]]]]]]]]]]]]]]]]]]]]]]]]]]",
"]]]]]]]]]]]]]]]]]]]]]]]]xX5JumWZ0Kw h]]]]]]]]]]]]]]]]]]]]]]]]]]]",
"]]]]]]]]]]]]]]]]]]]]]]]c$&ST3-J3=YJ2Xm]]]]]]]]]]]]]]]]]]]]]]]]]]",
"]]]]]]]]]]]]]]]]]]]]]]B8+KTKSD CFJYY2;Z]]]]]]]]]]]]]]]]]]]]]]]]]",
"]]]]]]]]]]]]]]]]]]]]]J0 CWSwKFCFJsATF.3J]]]]]]]]]]]]]]]]]]]]]]]]",
"]]]]]]]]]]]]]]]]]]]]c*XaTYJqYSPSYwSKTm.+c]]]]]]]]]]]]]]]]]]]]]]]",
"]]]]]]]]]]]]]]]]]]]B8-@Av3J@4ZYV5+SygA&24B]]]]]]]]]]]]]]]]]]]]]]",
"]]]]]]]]]]]]]]]]]]]h*&2i39K3&O X&2Jd=i5&;rC]]]]]]]]]]]]]]]]]]]]]",
"]]]]]]]]]]]]]]]]]]n@-2:LL.TA@==-@xW-DR;5-@n]]]]]]]]]]]]]]]]]]]]]",
"]]]]]]]]]]]]]]]]]-:--5k)D*TmO=&-+gTqk)C52-<-]]]]]]]]]]]]]]]]]]]]",
"]]]]]]]]]]]]]]]]-1433.!)DbTS&&&&@VTmB)~229212]]]]]]]]]]]]]]]]]]]",
"]]]]]]]]]]]]]]]]1i5-2DEEcKTTM+=+bTTTjREG0@3p12]]]]]]]]]]]]]]]]]]",
"]]]]]]]]]]]]]]]>qK+cEEEDwJAKTi.wTYVSsc!REB Ji%]]]]]]]]]]]]]]]]]]",
"]]]]]]]]]]]]]]-,Jmu~)I!!ZmiSKYSYKSivVE~L)(jbF6&]]]]]]]]]]]]]]]]]",
"]]]]]]]]]]]]]]XMKOC!~RECwJYKxZJSbKYKim!I~!G HA@]]]]]]]]]]]]]]]]]",
"]]]]]]]]]]]]]XhKKiRC~~U mYKK5*2*2JKYB G~(CRuKKMX]]]]]]]]]]]]]]]]",
"]]]]]]]]]]]]+rKKBIIBG!L RJ5g .= .iwAE.G!LBGRvKJfX]]]]]]]]]]]]]]]",
"]]]]]]]]]]]]1SKJ@DCDuRCu(aB GG DL Bd~NlRaCCG@JKJ8]]]]]]]]]]]]]]]",
"]]]]]]]]]]]+AKKw9BBCRRkDGLDkLB lLBBUDLuRUDBBy5FKS$]]]]]]]]]]]]]]",
"]]]]]]]]]]XnKKx*CGRBEECDCLRRDy yCRRUcGkEEDUGB3sKKMX]]]]]]]]]]]]]",
"]]]]]]]]]@rJKSXBBD!B!z9G-GDDLu 0LCDG3Gyu!BEPBB+AKKfX]]]]]]]]]]]]",
"]]]]]]]]]1JKJ:aDBGEc~PbHCuccEG C!kBwCDBJ(cRLBDc@SKJ8]]]]]]]]]]]]",
"]]]]]]]]XASvi9DBBC~`)]QBEi!CEL D!m~iEBQ.))(DBBD0wvVS$]]]]]]]]]]]",
"]]]]]]]+nJ0K0BD!BE]]]]QD`Y/^E]8.Q^~L)GQ<]]]!AEGB9KiJM+]]]]]]]]]]",
"]]]]]]@rKyJv&BE~J!]]]]~!RG_QR]8.RQ)GRE_.]]]~J~!B2aK0Kt@]]]]]]]]]",
"]]]]]]64*-KaBW`~(]]]]]^zT']R9]nC@I]`^y/@]]]](~)QSuK5@46]]]]]]]]]",
"]]]]]--:@SSoE)~]]]]]]]f./]](b]MG9!]]!38D]]]]]]~(~#AJ**<<]]]]]]]]",
"]]]]C655vK#c]]]]]]]]]]w3^]]_C]W_N/]]~y7]]]]]]]]]]c#JS3q;B]]]]]]]",
"]]]]BeZYJ5h]]]]]]]]]]].Y]]]]]]J]]]]]]W.]]]]]]]]]]]n-SKS5c]]]]]]]",
"]]]BMYJx@hC]]]]]]]]]]]cS]]]]]].]]]]]]Cc]]]]]]]]]]]]n#bJKMZ]]]]]]",
"]]]MiSArlF]]]]]]]]]]]]B+]]]]]]C]]]]]] m]]]]]]]]]]]]FcrMJbn]]]]]]",
"]]]mhyDD]]]]]]]]]]]]]]Zu]]]]]]]]]]]]]yB]]]]]]]]]]]]]]DGufc]]]]]]",
"]]]]D]]]]]]]]]]]]]]]]]]D]]]]]]]]]]]]]D]]]]]]]]]]]]]]]]]]F]]]]]]]",
"]]]]]]]]]]]]]]]]]]]]]]]]]]]]]]]]]]]]]]]]]]]]]]]]]]]]]]]]]]]]]]]]",
"]]]]]]]]]]]]]]]]]]]]]]]]]]]]]]]]]]]]]]]]]]]]]]]]]]]]]]]]]]]]]]]]",
"]]]]]]]]]]]]]]]]]]]]]]]]]]]]]]]]]]]]]]]]]]]]]]]]]]]]]]]]]]]]]]]]",
"]]]]]]]]]]]]]]]]]]]]]]]]]]]]]]]]]]]]]]]]]]]]]]]]]]]]]]]]]]]]]]]]",
"]]]]]]]]]]]]]]]]]]]]]]]]]]]]]]]]]]]]]]]]]]]]]]]]]]]]]]]]]]]]]]]]",
"]]]]]]]]]]]]]]]]]]]]]]]]]]]]]]]]]]]]]]]]]]]]]]]]]]]]]]]]]]]]]]]]",
"]]]]]]]]]]]]]]]]]]]]]]]]]]]]]]]]]]]]]]]]]]]]]]]]]]]]]]]]]]]]]]]]",
"]]]]]]]]]]]]]]]]]]]]]]]]]]]]]]]]]]]]]]]]]]]]]]]]]]]]]]]]]]]]]]]]",
"]]]]]]]]]]]]]]]]]]]]]]]]]]]]]]]]]]]]]]]]]]]]]]]]]]]]]]]]]]]]]]]]",
"]]]]]]]]]]]]]]]]]]]]]]]]]]]]]]]]]]]]]]]]]]]]]]]]]]]]]]]]]]]]]]]]",
"]]]]]]]]]]]]]]]]]]]]]]]]]]]]]]]]]]]]]]]]]]]]]]]]]]]]]]]]]]]]]]]]",
"]]]]]]]]]]]]]]]]]]]]]]]]]]]]]]]]]]]]]]]]]]]]]]]]]]]]]]]]]]]]]]]]"
};
