/* XPM */
static char *result[] = {
/* columns rows colors chars-per-pixel */
"32 32 176 2 ",
"   c #372B20",
".  c #282727",
"X  c #6A4800",
"o  c #795B17",
"O  c #52453F",
"+  c #494743",
"@  c #5B5B5B",
"#  c #565551",
"$  c #6C4F44",
"%  c #62524D",
"&  c #725246",
"*  c #665D55",
"=  c #76634A",
"-  c #7E6A5D",
";  c #5C5E61",
":  c #58626A",
">  c #656869",
",  c #6F6D6B",
"<  c #686865",
"1  c #716A61",
"2  c #6D746E",
"3  c #77796F",
"4  c #6C677E",
"5  c #7A7776",
"6  c #AB2500",
"7  c #B82B00",
"8  c #B53805",
"9  c #B43C16",
"0  c #AE0E22",
"q  c #AC1821",
"w  c #B52823",
"e  c #AD3321",
"r  c #B53822",
"t  c #844600",
"y  c #9A5800",
"u  c #815B1F",
"i  c #AD4B00",
"p  c #BE4B00",
"a  c #B75E0D",
"s  c #B44914",
"d  c #B7491D",
"f  c #BF5F1D",
"g  c #966800",
"h  c #9A7B00",
"j  c #BF6600",
"k  c #A56715",
"l  c #9E4E2B",
"z  c #9F522A",
"x  c #934B32",
"c  c #AF5B29",
"v  c #B55D2A",
"b  c #A3443E",
"n  c #A65537",
"m  c #A8683D",
"M  c #B76537",
"N  c #C74000",
"B  c #CF5601",
"V  c #C04C13",
"C  c #CF5B1C",
"Z  c #C1561E",
"A  c #CC6514",
"S  c #D97912",
"D  c #C04C22",
"F  c #C75723",
"G  c #C26522",
"H  c #9C554B",
"J  c #AB594A",
"K  c #A05F58",
"L  c #9C6843",
"P  c #9A764B",
"I  c #826959",
"U  c #AC6B4D",
"Y  c #A96547",
"T  c #B46751",
"R  c #AB765B",
"E  c #875663",
"W  c #87736C",
"Q  c #937C67",
"!  c #8D7E73",
"~  c #927776",
"^  c #A87B62",
"/  c #C26951",
"(  c #79837F",
")  c #A38900",
"_  c #9C832D",
"`  c #9C8532",
"'  c #B3992D",
"]  c #A58A37",
"[  c #AA9231",
"{  c #BFA739",
"}  c #D0811A",
"|  c #F2A504",
" . c #C7AB3E",
".. c #EEAC38",
"X. c #A78947",
"o. c #B18A48",
"O. c #B69B41",
"+. c #988C6F",
"@. c #82837A",
"#. c #828177",
"$. c #978F7E",
"%. c #9C8179",
"&. c #A38C69",
"*. c #BA916B",
"=. c #A6927B",
"-. c #BDA47B",
";. c #C1A545",
":. c #D5B44A",
">. c #CFA256",
",. c #D7BA5C",
"<. c #ECBB58",
"1. c #F3B45D",
"2. c #CD8D70",
"3. c #CEA66A",
"4. c #D4B276",
"5. c #E4C14B",
"6. c #E7C758",
"7. c #E7CB62",
"8. c #EBD166",
"9. c #FADC73",
"0. c #F8D773",
"q. c #7C7F81",
"w. c #738180",
"e. c #848586",
"r. c #8C8E85",
"t. c #868B8B",
"y. c #8E8E8C",
"u. c #878785",
"i. c #948B83",
"p. c #948784",
"a. c #8E9188",
"s. c #95958B",
"d. c #959387",
"f. c #939390",
"g. c #9D9692",
"h. c #959899",
"j. c #AD8483",
"k. c #B89D8E",
"l. c #A39998",
"z. c #9DA39A",
"x. c #A3A49D",
"c. c #B7A49A",
"v. c #B3B09F",
"b. c #969FA0",
"n. c #9DA5AC",
"m. c #ADADA4",
"M. c #A9AAAC",
"N. c #AAABA3",
"B. c #B2ADA9",
"V. c #BCB2AF",
"C. c #A4ADB3",
"Z. c #ACB8BF",
"A. c #B4B3B2",
"S. c #B1BCBA",
"D. c #CDA18F",
"F. c #CDB981",
"G. c #D2B58F",
"H. c #C8AC90",
"J. c #E6B995",
"K. c #DAB2A1",
"L. c #DBC796",
"P. c #CCCBAF",
"I. c #CFC8B7",
"U. c #D5C0B4",
"Y. c #F1D0B0",
"T. c #FFE6B2",
"R. c #FFF8B5",
"E. c #A4A9C2",
"W. c #CDCDCA",
"Q. c #C5C5C0",
"!. c #D4D6D6",
"~. c #E9DDCA",
"^. c #E4E1C8",
"/. c #FFF1CC",
"(. c #F5F5F2",
"). c None",
/* pixels */
").).).).).).).).).).).).).).).).).).).).).).).).).).).).).).).).",
").).).).).).).).).).).).).).{ :.:.[ ).).).).).).).).).).).).).).",
").).).).).).).).).).h.).;.9.0.6.5. ._ ).).).).).).).).).).).).).",
").).).).).).).).).).C.).' 6.8.,.6.X.] ` ).).).).).).).).).).).).",
").).).).).).).).).).n.$.h O.:.7.,.R o.[ ).).).).).).).).).).).).",
").).).).).).).).).).< 1 = ]  .,.2.j.X.[ ).).).).).).).).).).).).",
").).).).).).).).).).< : $ o ) J.~.E.&.X ).).N.).).).).).).).).).",
").).).).).).).).).).).).5 * o J.Y.K.V.e.L.I.b.).).).).).).).).).",
").).).).).).).).).).).@ W.t.; l.%.M.!.(./.g =.).).).).).).).).).",
").).).).).).).).).).).+ f., ; A.Z.H.4.~.T.o.4.).).).).).).).).).",
").).).).).).).).).).).O > . 5 A.M.v.8.~.R.-.e.s.).).).).).).).).",
").).).).).).).).).).).% B.> # s.m.t.v.B.P.+.q.a.).).).).).).).).",
").).).).).).).).).).).L ^ 1 r.x.x.d.A.d.F.>.u.h.).).).).).).).).",
").).).).).).).).).).).t & H 4 r.x.e.l.s.0.<.t.).).).).).).).).).",
").).).).).).).).).).).y Q K E S.!.$.~ C.3...i.).).).).).).).).).",
").).).).).).).).).).).  $.! Y D.K.T 1 n.G.1.g.).).).).).).).).).",
").).).).).).).).).).).k c.n.=.=.c.! z.g.*.&.).).).).).).).).).).",
").).).).).).).).).).).j / k.c.( 5 y.k.T M ).).).).).).).).).).).",
").).).).).).).).).).).P 9 6 T U m J 8 9 R ).).).).).).).).).).).",
").).).).).).).).).).).= J 7 8 N B p 7 e I ).).).).).).).).).).).",
").).).).).).).).).).).).n s w S A q 9 n @ ).).).).).).).).).).).",
").).).).).).).).).).).).z e C | S e d n + ).).).).).).).).).).).",
").).).).).).).).).).).).l d w S v 0 s x ).).).).).).).).).).).).",
").).).).).).).).).).).).$ G s F d s v I ).).).).).).).).).).).).",
").).).).).).).).).).).).2 i.j F F i W u.).).).).).).).).).).).).",
").).).).).).).).).).).).@.m.).).c ).r.s.).).).).).).).).).).).).",
").).).).).).).).).).).)., m.).).).).a.r.).).).).).).).).).).).).",
").).).).).).).).).).).).a.I.).).).).x.m.).).).).).).).).).).).).",
").).).).).).).).).).).).@.W.).).).).x.m.).).).).).).).).).).).).",
").).).).).).).).).).).).1 @.).).).).3 ( ).).).).).).).).).).).).",
").).).).).).).).).).).).).).).).).).).).).).).).).).).).).).).).",
").).).).).).).).).).).).).).).).).).).).).).).).).).).).).).).)."
};
