/* XPM */
static char *result[] = {
/* columns rows colors chars-per-pixel */
"64 64 197 2 ",
"   c #450000",
".  c #6F0000",
"X  c #720000",
"o  c #780100",
"O  c #6A1800",
"+  c #781A03",
"@  c #532300",
"#  c #7B2400",
"$  c #643B1E",
"%  c #683D1B",
"&  c #7C3216",
"*  c #673F20",
"=  c #75450E",
"-  c #6D421E",
";  c #754513",
":  c #75461C",
">  c #764A1D",
",  c #7B4D1C",
"<  c #674322",
"1  c #6B4322",
"2  c #6D4A29",
"3  c #6F4824",
"4  c #734B26",
"5  c #7A4F23",
"6  c #764E28",
"7  c #7C5125",
"8  c #7B532A",
"9  c #7F582E",
"0  c #7D5A33",
"q  c #9C0C02",
"w  c #980601",
"e  c #8D1F06",
"r  c #9B1A07",
"t  c #AA0101",
"y  c #AF0A04",
"u  c #B20201",
"i  c #B00E05",
"p  c #A41D0C",
"a  c #AD170B",
"s  c #B61907",
"d  c #862608",
"f  c #9C320B",
"g  c #883416",
"h  c #9F3411",
"j  c #9B2B15",
"k  c #A4260D",
"l  c #B82500",
"z  c #BD310D",
"x  c #B82A12",
"c  c #A9391C",
"v  c #BC3214",
"b  c #B53F1C",
"n  c #BD3918",
"m  c #873C20",
"M  c #AB3824",
"N  c #C21C00",
"B  c #C73F0E",
"V  c #C23E1B",
"C  c #94521B",
"Z  c #B9451F",
"A  c #80572B",
"S  c #835A2E",
"D  c #895E2C",
"F  c #845624",
"G  c #955524",
"H  c #96522B",
"J  c #865D30",
"K  c #885F31",
"L  c #854428",
"P  c #BB4E2E",
"I  c #B04A30",
"U  c #B55E3A",
"Y  c #8C612F",
"T  c #93642D",
"R  c #976629",
"E  c #866134",
"W  c #8B6232",
"Q  c #81633B",
"!  c #8C663A",
"~  c #8E6A3B",
"^  c #916634",
"/  c #956A35",
"(  c #996E37",
")  c #946C3B",
"_  c #9B6F38",
"`  c #9E7236",
"'  c #9D7139",
"]  c #97703D",
"[  c #A4662D",
"{  c #B4662D",
"}  c #A06C3C",
"|  c #B56B30",
" . c #A47335",
".. c #A3753A",
"X. c #A6783C",
"o. c #AB7C3E",
"O. c #A97738",
"+. c #B07F3F",
"@. c #D2520B",
"#. c #CC4613",
"$. c #C7471B",
"%. c #CB4915",
"&. c #D55816",
"*. c #C84C23",
"=. c #CF5424",
"-. c #C45B29",
";. c #D25926",
":. c #D9682A",
">. c #C76F3F",
",. c #D46A34",
"<. c #E27729",
"1. c #E27C33",
"2. c #E07731",
"3. c #957245",
"4. c #9C7542",
"5. c #9E7C4B",
"6. c #977449",
"7. c #9D7D52",
"8. c #BC6A40",
"9. c #A57B44",
"0. c #AD7E41",
"q. c #A57D49",
"w. c #A87040",
"e. c #B37A44",
"r. c #B97952",
"t. c #C97A49",
"y. c #B1803F",
"u. c #E98A36",
"i. c #ED943A",
"p. c #AD8145",
"a. c #AC834B",
"s. c #B28243",
"d. c #B98643",
"f. c #BC8845",
"g. c #B2874B",
"h. c #B58A4C",
"j. c #B88C4D",
"k. c #AB8651",
"l. c #AA8E5D",
"z. c #A78654",
"x. c #B48C51",
"c. c #BA8E51",
"v. c #B68958",
"b. c #BD9255",
"n. c #BD955A",
"m. c #BD995B",
"M. c #AE9361",
"N. c #B49663",
"B. c #BB9A64",
"V. c #BFA06C",
"C. c #C68A4B",
"Z. c #DF8143",
"A. c #C3924E",
"S. c #CD8857",
"D. c #D58354",
"F. c #C19455",
"G. c #C19658",
"H. c #C39A5D",
"J. c #C9995D",
"K. c #EB9649",
"L. c #E18849",
"P. c #F5A743",
"I. c #F2AD59",
"U. c #F6B65B",
"Y. c #C79E61",
"T. c #C89F61",
"R. c #C19F6A",
"E. c #D19A67",
"W. c #C6A164",
"Q. c #CAA264",
"!. c #CBA66A",
"~. c #CEAA6C",
"^. c #C4A469",
"/. c #D0A766",
"(. c #D2AC6C",
"). c #D1A56C",
"_. c #CCAD73",
"`. c #C6A971",
"'. c #D4AF71",
"]. c #DAAC73",
"[. c #D5B274",
"{. c #D9B676",
"}. c #D4B579",
"|. c #DBB779",
" X c #D7B87D",
".X c #DDBB7C",
"XX c #E0A669",
"oX c #EDB46D",
"OX c #E8B778",
"+X c #F4C87F",
"@X c #DEBE81",
"#X c #E8BF82",
"$X c #DEC080",
"%X c #E4C384",
"&X c #EACC8B",
"*X c #ECD08E",
"=X c None",
/* pixels */
"=X=X=X=X=X=X=X=X=X=X=X=X=X=X=X=X=X=X=X=X=X=X=X=X=X=X=X=X=X=X=X=X=X=X=X=X=X=X=X=X=X=X=X=X=X=X=X=X=X=X=X=X=X=X=X=X=X=X=X=X=X=X=X=X",
"=X=X=X=X=X=X=X=X=X=X=X=X=X=X=X=X=X=X=X=X=X=X=X=X=X=X=X=X=X=X=X=X=X=X=X=X=X=X=X=X=X=X=X=X=X=X=X=X=X=X=X=X=X=X=X=X=X=X=X=X=X=X=X=X",
"=X=X=X=X=X=X=X=X=X=X=X=X=X=X=X=X=X=X=X=X=X=X=X=X=X=X=X=XF : = ; 5 =X=X=X=X=X=X=X=X=X=X=X=X=X=X=X=X=X=X=X=X=X=X=X=X=X=X=X=X=X=X=X",
"=X=X=X=X=X=X=X=X=X=X=X=X=X=X=X=X=X=X=X=X=X=X=X=X=X=X=XD S A A A D S =X=X=XS S =X=X=X=X=X=X=X=X=X=X=X=X=X=X=X=X=X=X=X=X=X=X=X=X=X",
"=X=X=X=X=X=X=X=X=X=X=X=X=X=X=X=X=X=X=X=X=X=X=X=X=X=X) 4.g.n.B.n.b.9.] =X=X4.q.) =X=X=X=X=X=X=X=X=X=X=X=X=X=X=X=X=X=X=X=X=X=X=X=X",
"=X=X=X=X=X=X=X=X=X=X=X=X=X=X=X=X=X=X=X=X=X=X=X=X=XS 4.g.T.{.@X.X(.b.q.W 9.b.H.9.> =X=X=X=X=X=X=X=X=X=X=X=X=X=X=X=X=X=X=X=X=X=X=X",
"=X=X=X=X=X=X=X=X=X=X=X=X=X=X=X=X=X=X=X=X=X=X=X=X7 S 9.x.Y.|.%X@X~.n.q.W 4.n.Y.n.q.3.=X=X=X=X=X=X=X=X=X=X=X=X=X=X=X=X=X=X=X=X=X=X",
"=X=X=X=X=X=X=X=X=X=X=X=X=X=X=X=X=X=X=X=X=X=X=X= F K _ 4.5.l.N.M.z.6.E 8 0 ~ z.^.}.B.J =X=X=X=X=X=X=X=X=X=X=X=X=X=X=X=X=X=X=X=X=X",
"=X=X=X=X=X=X=X=X=X=X=X=X=X=X=X=X=X=X=X=X=X=XS S ^ E S 6 < 2 2 2 2 2 < - $ @ 0 `.&X}.6.  =X=X=X=X=X=X=X=X=X=X=X=X=X=X=X=X=X=X=X=X",
"=X=X=X=X=X=X=X=X=X=X=X=X=X=X=X=X=X=X=X=X=X6.k.B.k.E : & + X X o # g g & + . 8 l._._.R.7.6.=X=X=X=X=X=X=X=X=X=X=X=X=X=X=X=X=X=X=X",
"=X=X=X=X=X=X=X=X=X=X=X=X=X=X=X=X=X=X=X=X: 5.`..XB.0 O d p w w k b Z c r q y j m 0 l.@X@XN.W =X=X=X=X=X=X=X=X=X=X=X=X=X=X=X=X=X=X",
"=X=X=X=X=X=X=X=X=X=X=X=X=X=X=X=X=X=X=XF F b.%X&X`.Q . q i u a n =.;.*.x y u p d 2 l.@X@X!.^ ; =X=X=X=X=X=X=X=X=X=X=X=X=X=X=X=X=X",
"=X=X=X=X=X=X=X=X=X=X=X=X=X=X=X=X=X=XK D R n.+X&X_.~ # r t s v *.:.:.;.$.s t M r.V.`.(.Q.a.6 - S W S 7 =X=X=X=X=X=X=X=X=X=X=X=X=X",
"=X=X=X=X=X=X=X=X=X=X=X=X=X=X=X=X=XS K _  .b.}.&X_.a.C f a x *.:.2.1.:.=.z t I E.&X@XF. .S * 3 S W ^ K K =X=X=X=X=X=X=X=X=X=X=X=X",
"=X=X=X=X=X=X=X=X=X=X=X=X=X=X=X=X=XS ^ X.d.H.[..X}.^.v.U v $.:.1.i.i.u.:.#.N P T.|.'.g.R F 7 7 7 ^ a.g.9.=X=X=X=X=X=X=X=X=X=X=X=X",
"=X=X=X=X=X=X=X=X=X=X=X=X=XS J J J S W q.b.Q.Q.~.}.OX].t.%.&.2.u.P.P.i.<.&.#.*.t.F.g.w.( ( / 9 % S k.Y.x.^ > 7 A =X=X=X=X=X=X=X=X",
"=X=X=X=X=X=X=X=X=X=X=X=X^ ( ../ ^ D W a.Y.T.n.H.|.&X#XD.$.@.2.K.U.U.I.K.Z.,.-.{  .` ( ' ....T 4 0 k.Y.v.q.' q.) ) =X=X=X=X=X=X=X",
"=X=X=X=X=X=X=X=XS S 5 S ( X.X./ K D / g.Y.Y.c.h.[.*X#XS.l N @.L.oX+X&XOXXXC.| [ T / ( ..o.o...^ K ! 3.k.b.H.J.n.q.K : A K =X=X=X",
"=X=X=X=X=X=X=XE K / K ! ..e...W K Y } x.H.H.s.s.!.%XOXr.t u B D.OX&X*X&X|.G.O.T Y E ( ` X.p.0...^ > $ 3.m.Q.Q.Y.x.) S / K K =X=X",
"=X=X=X=X=X=X=X^ _ s.g.g.g.o.` W K ^ ` p.c.b.s.0.G.~.R.U t b >.S.).[.}.}.^.x.` ^ D A D W ( ..w.../ 7 % ! a.n.n.b.c.v.p.9.^ D =X=X",
"=X=X=XS S S K / ..j.H.G.g...^ E E ^ ' X.s.d.s.0.a.a...c a | J.H.b.j.g.a.q...` / E 8 6 4 S ^ ( _ ( W S E ) ( ` 9.x.Y.n.p.T D A A ",
"=X=XW / .._ ..o.d.F.H.H.a._ T J E / ..O.o.o.0.0.` R G f M e.H.m.s. .R T T / / ^ E 7 % $ 3 8 K ( ( / W K 9 S D / a.H.m.h.9...9.9.",
"9 J /  .O. .X.j.G.H.b.h.0.` ^ D W } o.0.s.o.X... .( ^ G H w.a.a.s.O.( Y D W W W J 8 < $ * 3 8 K / ( ( W S S D ^ ' a.h.b.n.n.b.n.",
"E ^ ..e.s.+.g.F.Y.H.d.X...' ^ K W ..+.s.y.o...( _ _ ( ! J W ( ..o.o.` Y J J W W K 8 4 $ $ < 4 S W ( ( ( W D J J Y / q.b.T.Q.Y.Y.",
" .X.s.c.F.b.c.F.F.j.s.O._ / W ^ / ` X.o.X..._ ^ / / ^ E E W / ` o.s. .E S S K ^ / K 8 4 4 6 4 6 8 K / / K J 8 8 9 D ' a.n.n.n.H.",
"..o.c.H.W.J.H.c.d.p.s.o.( K W / ` ` ` ....( / K K K K K D ^ ( ..s.o.} W S J E / ( ( K J J J 8 1 3 S W W K S 3 1 6 D / ] X.0.s.s.",
"d.j.G.Q.!.Q.Y.j.+.o.s.o.( K ^ ` ....( ( ( / E J J J K K W / ( ..o.X.' E S K W / ) _ ^ ^ W K S 3 3 8 J K K J 4 1 4 8 D Y / ` O.X.",
"n.H.H.Q.Q.!.Y.b.y.o.s.o.../ _ X.9...` / ^ W K K S J W ^ ( ( _ ....../ E J K D E W ^ ( / ^ J S 8 S J K K K J J 8 4 1 4 J ^ ( ..X.",
"Q.Y.Q.H.Y.W.H.c.+.o.0.0...` ..s.e.X._ ^ W D K K K J W ( _ ` ( _ _ ( ^ K J K K J J W ( ' ^ W K K J K K K K K W K 8 < 1 8 D ^ ( _ ",
"Q.Q.H.b.b.b.b.s.X.O.X.X.X.X.o.y.p.` ^ E J J K K J J W / _ ( / / _ ( / K J K J J J ^ _ ` ( ^ W W J J K J K W / / K 8 4 4 8 S ^ / ",
"Q.Y.b.s.y.s.s.X.` ` ' ' X.o.s.s.O.( J J D J E K J J W ( _ / E ^ ( _ / K J K J J K ^ ( ' ' ( / K J K J J J W ( ( / K 7 3 < 8 E ^ ",
"H.G.j.o.O.o.O._ / / / ` X.s.s.o.X.( E W W W K K K W / _ ../ K K ( _ / K K W W K J W ) ( ...._ ^ W W W K K K ^ ( ( / K 6 1 4 7 9 ",
"j.j.d.s.o...../ W W / ` X.o.o..._ ( / / ( / W K W / ' X.X.( K W ( _ / K E ^ ( W J J K / ..0.X._ / / / W K J E ^ / / / K 8 4 3 * ",
"o.o.o.o.X.../ W E W ( ..o.p.0.` ) ` ..` ` ( W K W ( X.y.e...W K ( _ ^ K ^ _ _ / W J S W ..0.o...` ..` ( W K D K / _ _ / K 8 3 * ",
"O.....} _ / ^ W ^ ( ..0.h.b.h.0.X.X.X.../ ^ K K ^ ` ..e.y.` E K W / W K W (  .( / K J K ( X.o.X.X.X.X.../ W J J ^ _ ` ( ^ W J S ",
"` ( / ^ E K W ^ (  .X.s.G.H.n.s.o.e.0...W J J K W ( ..0.0.` K J D K K J W ( ` _ _ / K K ^ _ ..0.s.s.0...` / E D W _ _ _ _ ( ( ( ",
"( / D 9 8 9 K / ` X.o.s.H.Q.H.g.+.y.o.` W J J K ^ ( ..0.0...W J J J J J ^ ( ` ....` ^ ! / ( ..9.+.e.s.o.X.` / ! ^ ( ` ........` ",
"^ E 9 1 4 8 W ( X.o.O.s.G.!.H.d.o.O...( W J J J W ( ` 0.0.` W J J J J J W / ..9.0...` / ( ` _ ..X.o.s.s.s.X.' ( ( ' ..X.o.X._ ( ",
"J 9 4 - 4 8 ^ X.s.d.s.d.b.H.n.s.X.` ( W E D D K W ` X.p.e.` W S D J K K ^ / _ o.0.0...` ( ( ( ( ` X.0.0.e.o.X.` ' ( ..o.e.X..._ ",
"4 4 4 4 7 S ( q.b.G.G.b.b.j.j.o...( / W E J J E ( ..o.y.0._ W J J K W / / ( ..X.s.0.' ( ( ` _ ( ' ( ( ` X.X.o.X.' ' ` ..X.X.X.X.",
"$ < 8 S W T ..x.H.Q.Q.H.b.s.X...( W J J K K J K ( o.s.s.+...W S J K / ( ` ( ' o.p.o.` ' ' ' ` ` ( W W W ' ` o.e.9.` ( ( ' ..0.s.",
"6 8 D / ` 9.g.n.Y.Q.H.b.j.o. .( ^ W J J 8 S S K _ 0.s.s.+._ W S J K / _ ' _ ' w.o.X.X...] ' ( ` ( ! J J W ` X.o.X.` ( ( ' X.0.s.",
"W ^ ( ..p.h.n.H.W.H.j.s.y.y.../ K E K 7 3 4 6 K ( o.s.s.o...W J J W / ( _ _ _ ` ..X.0.o...( ' ' ( W J J E / _ ....` ( ( ` X.e.s.",
"....O.s.b.Q.(.~.Q.b.d.O.o.+...W S K K 8 * < 8 W ..o.y.p.o._ W S J K / _ ..` _ / ( ` o.o.X.` ' ` ( ^ J D D E ^ ( ' ' ' ( ' ..o.y.",
"..X.s.j.Q.|.OX[.Q.b.s.o.X.w.( W J W W 6 * 1 S ( X.o.y.o.w./ K J J W / _ .._ ( ) ! / ..X.X.X.X.` ( W E D K W W ^ / ' ' ' ` ' ..X.",
"o.s.j.H.'.%X&X}.Q.b.g.o.X.` / W J K K 8 * 3 K _ o.o.o.X.' ^ K J J K / _ ' ` ( ^ E W / ..o.e.o.` ( W E J K E K K W ( ' ' ' ' ' ' ",
"j.c.Q.[..X.X.X'.Q.b.j.O.` / W W J S 8 6 4 7 ^ ..O.p.p.' ( ^ K J 8 S K ^ ( _ _ ^ D W / ` o.y.o...( W D S 8 8 S K W ( ( ' ' ' ( ( ",
"H.J.{.%X$X(.!.!.Q.G.d.o._ E J K J 6 3 4 S K / _ X.p.o.X.( / K S 4 3 8 K / ( _ ^ J W ( ..o.p.o.../ W J 8 1 3 S W W E W ( ' ' ( ' ",
"H.!.{.%X.X/.H.H.H.b.s.X./ J J E S 3 $ 4 J ^ / ' 9.e.o...( ^ W 8 1 * 4 J ^ _ _ ^ D E / ' X.o.o...( / W 8 1 3 6 S J J W / ( _ _ ` ",
"T.Q.(.[.(.!.H.m.j.s.0.` / J K W S 4 % 4 J W / ' X.s.o.` W K W 9 3 * 4 S ^ _ _ ^ K K E / ' X.o.o.X.` / E S 6 6 6 8 J W W ^ / _ ` ",
"T.T.T.T.T.Q.T.c.s.O.` ( ^ K K K S 4 * 4 S W / ` X.0.X./ J J K 8 3 * 6 J ^ ( _ / E D J J / ( ..o.y.X._ / W J 3 * 6 J K J K ^ _ ` ",
"/./.Q.H.H.G.c.h.y...( W W K S S 8 1 < 4 S W / ` ..X.../ J K W S 3 * 6 J ^ ^ / / ^ W J D E / } 0.y.e..._ W 8 3 $ 1 6 S J K / _ ' ",
"(.(./.!.H.j.y.y.e...^ K K K S 4 $ $ * 4 S ! / ' ....( W K W K S 3 * 8 J W K ! / ( / W J J K _ 0.s.s.o.` W 9 3 $ * * 4 S W / _ ..",
"T.T.H.H.F.s.o.o.o...! S J S 6 < $ $ < 6 S W ( ' ` ' ( W J J J 8 1 1 6 J K J K / ` ( ^ K J J / ..y.y.p.X./ J 8 4 * $ 1 6 J ^ / ( ",
"=X=Xb.j.A.C.y.y.X.` W J A 4 1 * $ $ * 6 S W / ' ` ' ( ^ J 9 6 1 * * 8 J K J K / _ _ ( ^ K K K ! ' o.s.O.' W K 8 3 * * * 4 8 W ^ ",
"=X=Xo.y.f.s.y.X.` / W J 4 * % * * * * 4 J ^ / ' ` ' / ^ J 6 < * $ 1 8 J K J W / _ ` ..( ^ J J J W ..p.o.` ( ^ J 8 1 * * < 8 J W ",
"=X=Xo.+.+.s.X._ ^ / W J 4 $ * 4 6 1 * 4 S ^ ( ( ( / ^ ^ J 6 * $ $ 1 6 J ^ ^ / ( _ ' ..( ^ J J S K ( ' ...._ / K 8 * * 1 6 A J J ",
"=X=X+.s.s.=X=XJ W / K J 4 * 3 S S 4 * 4 S ^ ( _ / ^ K K J 8 * $ $ 1 6 J ^ / _ _ ' ' ' ( ^ J J J K K W / ( _ ^ K 6 * * 8 J K K K ",
"=X=X=X0.s.=X=XK J ^ K J 6 4 8 K K 4 * 4 S ^ ( _ / K J K J 6 * $ $ 1 6 J ^ ( _ _ ` ' ' ( / W W K K J J W / / ^ K 8 3 4 S W W K W ",
"=X=X=X=X=Xd.0.( K K K K J 8 J W K 6 * 4 S W / ` ( K K K K 6 * * $ 1 8 D K W ^ ( ' ' ' _ ( / ^ W J J K W W ^ K K J S S J W W / / ",
"=X=X=X=X=Xs.f.X.K J J K K K K K S 4 * 4 S ! ( _ / K K K J 7 3 * $ < 8 J K K K ^ ) ` ' ` ' ` / W J K K K K J K K ^ K K J K K K K ",
"=X=X=X=X=X..e...K J J K K W J S 4 < * 4 S ^ ( ' / K K K J S 8 3 * < 8 J K K K W ^ ( ( ' ' ' _ / W K K J J J K K K K K ^ K K K =X",
"=X=X=X=X=XW / ^ K K K K W K 8 3 * $ * 4 S W ( _ / K J K K K K 8 3 * 8 J W K K K K ^ ( ' ' ' ( ' ( W K J K K K K K K K / K K =X=X",
"=X=X=X=X=XS ^ W K K K K W K 8 1 $ $ * 4 J ^ ( _ / K J K K W W S 3 1 6 J W K K J J W ( ` ' ' ' ..( ^ K J K K K K K K K ( K =X=X=X"
};
