/* XPM */
static char *result[] = {
/* columns rows colors chars-per-pixel */
"32 32 187 2 ",
"   c #040404",
".  c #242223",
"X  c #2E2A2B",
"o  c #322C2D",
"O  c #382F30",
"+  c #353131",
"@  c #3A3435",
"#  c #3B3639",
"$  c #343C3B",
"%  c #3E3A3C",
"&  c #413B3E",
"*  c #33413E",
"=  c #39403E",
"-  c #383F40",
";  c #413E41",
":  c #3D4443",
">  c #3D4846",
",  c #3E4D4B",
"<  c #3D5454",
"1  c #444246",
"2  c #46454B",
"3  c #49474C",
"4  c #424C4C",
"5  c #4B494D",
"6  c #474C51",
"7  c #4C4C52",
"8  c #464F5E",
"9  c #524F53",
"0  c #465353",
"q  c #4B5256",
"w  c #4C5258",
"e  c #475A59",
"r  c #4B5B5D",
"t  c #525356",
"y  c #53555B",
"u  c #545A5E",
"i  c #5C5B5C",
"p  c #425F65",
"a  c #4C5E62",
"s  c #4C5F6F",
"d  c #4D5460",
"f  c #545761",
"g  c #555A63",
"h  c #5A5C63",
"j  c #585E6A",
"k  c #505E71",
"l  c #625E62",
"z  c #4F6166",
"x  c #446C6C",
"c  c #536265",
"v  c #5D6065",
"b  c #53666A",
"n  c #5D626B",
"m  c #54696C",
"M  c #596A6E",
"N  c #4D6372",
"B  c #4E6A78",
"V  c #4A6B71",
"C  c #536375",
"Z  c #5E6672",
"A  c #5B6F75",
"S  c #556678",
"D  c #516C7A",
"F  c #586B7D",
"G  c #566D71",
"H  c #487073",
"J  c #4E737E",
"K  c #477A7D",
"L  c #557077",
"P  c #5E7176",
"I  c #55737D",
"U  c #5D747B",
"Y  c #626163",
"T  c #62656C",
"R  c #6A6A6E",
"E  c #616771",
"W  c #646972",
"Q  c #6A6D74",
"!  c #666D79",
"~  c #696E7B",
"^  c #617277",
"/  c #6E7477",
"(  c #63757C",
")  c #6C727C",
"_  c #63797E",
"`  c #72757C",
"'  c #7C787D",
"]  c #737276",
"[  c #4A7780",
"{  c #4F7B85",
"}  c #557483",
"|  c #5C7483",
" . c #557A84",
".. c #5B7987",
"X. c #557C8A",
"o. c #5C7D8B",
"O. c #6C7582",
"+. c #637C84",
"@. c #667E88",
"#. c #687685",
"$. c #737680",
"%. c #757A84",
"&. c #7A7D84",
"*. c #777E89",
"=. c #797E89",
"-. c #4B848A",
";. c #4D8A8C",
":. c #55838C",
">. c #5A828D",
",. c #4A8C91",
"<. c #5D8591",
"1. c #5C8997",
"2. c #62858D",
"3. c #6A848C",
"4. c #768086",
"5. c #7F8086",
"6. c #77808E",
"7. c #7C838C",
"8. c #658791",
"9. c #628895",
"0. c #648D9C",
"q. c #6A8992",
"w. c #7D8490",
"e. c #738B94",
"r. c #778F9A",
"t. c #64959C",
"y. c #6E939A",
"u. c #7E9096",
"i. c #75939C",
"p. c #6495A3",
"a. c #6898A2",
"s. c #739CA7",
"d. c #7CA5AD",
"f. c #77A2AC",
"g. c #84848C",
"h. c #89878E",
"j. c #858A8E",
"k. c #818791",
"l. c #848B93",
"z. c #8C8E95",
"x. c #838B98",
"c. c #888F9A",
"v. c #908F94",
"b. c #8B9196",
"n. c #8C939C",
"m. c #819194",
"M. c #93959C",
"N. c #96999F",
"B. c #999A9E",
"V. c #8D95A0",
"C. c #8698A4",
"Z. c #8D9EA4",
"A. c #9297A1",
"S. c #949CA4",
"D. c #9C9DA3",
"F. c #969FAA",
"G. c #9B9FA9",
"H. c #95A1A6",
"J. c #9CA3AB",
"K. c #9FA8AD",
"L. c #A0A0A7",
"P. c #A2A5AB",
"I. c #A2A9AE",
"U. c #A3A7B0",
"Y. c #A4AAB1",
"T. c #A9ADB5",
"R. c #A8AFB8",
"E. c #ACB1B7",
"W. c #ADB3BB",
"Q. c #AEB8BC",
"!. c #A6B1BA",
"~. c #B0B0B6",
"^. c #B2B5BC",
"/. c #B4B9BF",
"(. c #B6BBC2",
"). c #BABDC4",
"_. c #B9BFC8",
"`. c #BDC1C7",
"'. c #BEC2CA",
"]. c #C2C5CC",
"[. c #C4C8CF",
"{. c #C6CBD1",
"}. c #C9CCD3",
"|. c #CBD0D7",
" X c #CDD4DA",
".X c #D0D5DC",
"XX c None",
/* pixels */
"XXXXXXXXXXXXXXXXXXXXM.T.`.'.'.'._.Q.J.h.XXXXXXXXXXXXXXXXXXXXXXXX",
"XXXXXXXXXXXXl.g.v.Q.'.[.[.].'.`.(.(.(.Q.A.] l.v.XXXXXXXXXXXXXXXX",
"XXXXXXXXB.~.^.^.J.L.[.|.[.].[.].].(.(.(.&.U.[._.T.h.XXXXXXXXXXXX",
"XXXXY Y.~.).).].D.&.!.'.'././.E.^.W.(.M.M.]. X{.).).I.XXXXXXXXXX",
"XX] J.).].`.].|.E.Y / n.b.7.7.4.7.g.l.T &.W.[.'._.'.(.J.M.XXXXXX",
"Q B.'.`.`.}.'.Q.b.t 4 c r c m m b b A r q %.S.W._._.'._.J.i XXXX",
"R P.^.'.'.`.H.n = q m _ U P U A A ^ @.c g z b x.!.(.W.U.A.Q XXXX",
"v.B.N.Q.`.' $ : 0 e m _ ( _ ( ^ ( +.@.a m U U P *.V.n.w.A.M.] XX",
"]./.J.g.i 4 4 4 e e e M U ( _ +.+.3.P a b P +.3.U ~ V.W.`.(.z.l ",
"^.^.`.B.u = > 4 4 0 0 r g z e q b P c r e r M +.I 7.Q.`.^.^.T.i ",
"^.`./.^.T * , > > r G ^ _ +.2.a U 3.3._ m z r m V P H.)./.).(.i ",
"'.[.[.`.R * > : > H t.d.d.t.1.>.p.p.f.d.a.U u r r r m.'.].[.`.l ",
"[.}.|.Q.T * , : x t.f.>.>.>.>.X.1.p.0.a.s.0.U c a , u. X].[.].t ",
"].}..X/.T * : x -.;.>.} J I D D D } ..@.9.0.1.L e < u..X.X.X`.9 ",
".X]./.H.R > x ;.-.I I V N N k C S } } } | o.>. .x M Z.H.I.{.P.9 ",
"P.D.I.T.K./ K ,.-.2.e.U s k C S | | .... . .X.:.r.I.!.K.n.j.` 1 ",
"i D.'.`.[.Y.u.+.V  .y.q.D B S } | ..o.<.X.D @.C.R.).(.).~.g 3 % ",
"l R.{.].].].T.M.' c J >.{ [ [  ...o.:.:.r.z.L.(.).(.)._.Y.` % # ",
"9 =.G.(.[.}.].].T.' &.e.@.2.2.2.>.2.i.8.P.'.].'.`.`.).U.g g % O ",
"6 *.R M.).}.{.`.B.v._.].P.D.v.h.5.g.~.G.D.(.'._.].`.G.8 j 7 # o ",
"; %.) Q ` W.).M.N.[.}.].}.].)./.)./.(._.k.R.}.].T.O.f f w - O O ",
"3 W %.=.) ) g.~ &.(.|.].[.[.].].]./._.'.z.l.x.O.j j j w 2 # O ; ",
"l.T ~ =.#.*.g.~ ~ w.M.)..X|.}.|.}.`.U.*.j ! O.Z g g g 2 & ; & # ",
"F.x.l R %.l.l.) %.k.) g.c.l.l.c.n.%.6.#.5 E #.Z f 3 ; ; 2 ; # # ",
"x.V.k.$.j R ) n $.c.=.=.=.~ E ! O.j O.#.7 f j 7 ; ; ; 7 3 ; - X ",
") =.k.l.h T W 5 y $.&.=.=.O.~ ~ ! ! ! l ; - ; ; ; ; 7 y ; ; # XX",
"i n $.x.E =.z.&.l 9 h W ! E W ! E j h ; & 5 y y ; 2 y ; - % o XX",
"XXy Q 6.n l.F.n.%.R T g 9 7 5 y g l f t y h l g 7 ; 7 - @ o XXXX",
"XXq h W 6 g.*.O.=.w.k.%.j t 1 f h l E E T y 7 7 1 % & @ o XXXXXX",
"XXXXXX5 & ~ ) ) %.~ O.%.~ W y ~ f g 7 f y 7 7 2 - # + X XXXXXXXX",
"XXXXXXXXXXy u h T W O.~ E E & ~ g j f f y 6 1 # @ O . XXXXXXXXXX",
"XXXXXXXXXXXXXXt 9 7 h W E W @ T h g f f 6 % O .   XXXXXXXXXXXXXX"
};
