/* XPM */
static char *result[] = {
/* columns rows colors chars-per-pixel */
"64 64 27 1 ",
"  c #36770E",
". c #38770F",
"X c #37790F",
"o c #38790F",
"O c #397710",
"+ c #3B7C12",
"@ c #407F14",
"# c #3D8313",
"$ c #3F8A14",
"% c #418416",
"& c #428C16",
"* c #468518",
"= c #49871A",
"- c #458E18",
"; c #4B8C1B",
": c #518F1F",
"> c #469019",
", c #4C921C",
"< c #51941F",
"1 c #549521",
"2 c #589723",
"3 c #569922",
"4 c #5C9C25",
"5 c #609F27",
"6 c #5FA027",
"7 c #60A027",
"8 c #61A128",
/* pixels */
"+.=47==4@#,8641&&&&-++O+451+4;+>4444--&-&#.+.<84+12O&1545,$-&&&+",
"#;<1,&*,&#*;;<<1%&-&##-:1,=%,-#%;::,1-#&-&#&:<1,#,,##-:;<1;#&>&#",
"&11$->>&-#.++#,4@%&&>-,4-->>$-$++.#>4=#&&->-2>&>,&&*+.X#-31+%&&-",
"&%%>441&&#O+$33>&#+%4,%#$144--%++#,4>&%++<3&@%,44,&&+++-4,-&++=4",
"&&+#;1,&&,=#&,=#&##%1>&##-;1-$;;#&-;%$&##>,$##*<,>&-,%#-;%#-##-1",
"&&&%+%-&$34>&#++->>>&&&&@+#--$14,-&++&>->----*+o->$>61>&#+%>>,-$",
"&$,4&13&&374-&$&4444>$&>2-,4>$,54,&$$1446,$-$<<&4,->441&&#>4441&",
"1>,81<-##-<,-,31464,&,,>441,##&;1->3<454<-><-36<,*##-1,-1<3644>$",
"4;>44<&%+++&$<44141$-31*343&*+++#$,44443&-<4*,44>*@+.#$-44424>&>",
"8=#>4444-++++#14%$--46<+&4444,#+++#>6;+>&<44##<7441&++++&31#*&,4",
"6;#$,11,>#+%1->,#$$&,41#$><<<>#+#;;-,*#&&>44&#-<11,&+#=<&,,#&&><",
"4,--&&$&-##-4,&&>,,>&<<&>-&$$-&+&13&&>>>,&-3->-&$$&-+#,4>$&>>>>&",
"+#,4>#++&-%+&-&-4444>%+-4<$++&-&+&>-$1444,##$11&#O#--##>-&,4443&",
"#,44%++%#&&#&#-343;=-#-44;++###-#&%#<44,;-$&14<++###&$#&#>44<;--",
"&,44=+#-%%>,&#=44>#+&&;24;++&*%-,-##34,$%*&*141%+&-%*>-&+<43&%%-",
"++=44*+>4,,4+#-->-,4-#+@45<+&33-4=#->>&>4,#++182@#<2&4<+&&--&11&",
"::;;1-##,-%=+%-###,5-,<:=,,##->%=%#&#+#-5,-11;;,%#*,#**+&%+#$34$",
"84,+#>&+&#+++&*+%&<3&352##&-+&#+++%&+%%,4,;54*#&&%#&#++#&##*-3<&",
"4,-&&-&-&&&&-&&>443&&34&&-----&&&&-&&144-&,4-&&&&&&-&&&&&&,44,&-",
";-&&$,1-&<33-,,&>41#&=-&&&-<-&>44>>1&>44%#-=-&&&<,&-14,-1>-<7>#-",
"++-,,1<#&<43-34-&<;+&#.&>><2&$,44>,4,--1+#%.#->,4>$-44<-4<&&1*+-",
"+.-44;++&&-&$144-%++-#.@441++$-&&$,45,%++&&++:54@++&&&&-47<&++#-",
"#;24,-#+3,$&1444-#-<>$=143-$.;1&$>444,$%1,$&143,&X*4-$-3474$#,<&",
"$144,-%*2>-,4443-&<3*%-44<-**<<&>4544>$-4>$*143-&*;1-><644,&-3<#",
"++=44-=4@#,6441&&&-&#.o%45<+4=#-4454-&-&-#+++:44+11+&1444,-&--&+",
"#,1,,&-;%#%;=-11#&>&#$-1:,-%,-##==-,1=#>-&#&1<,,#;;##==->3;#&-$#",
"-11&>,>&-#O++&11%#&&,->4&-,,&&%++.%,4-#&#>>>1;-,,>&&+O++-3<+%%-,",
"-#+-443$-#O+$33&*#++4<%o&144>&%++#,4-&#++13$+#,44,&&++#-4<&&+.-6",
"-$#+*,>-&,,#--%#$$#&,-&##%=>-&,<#&--+&&##>,&%+#=,>&-1-#-=%#&$#-,",
"$--*+->-&44,-#+#>,,,-&&-=+%,-&,6,-%++-,,,>&->-%+,-&-43>-#+%,,,>&",
"-$,4&32&$144-&&-4544--&-4>,4>$,46,&&&1446,$-$33-4,$>443&&$,4443&",
"1>,82,&++*;,-,43474>&,<-441-#+%=,>>43454,&>1>343,%+#*,>&334581>$",
"5;><7<-=%oo%%,772<,&>4<%144>=%o.#$-44211&-34&;44,=*#.##*<64<4--,",
"4=#-4444>%ooo$<<@%&-47<+&3444,&+++#-4=+-&344+#,4481&++++&3<o&&,4",
"7,$&,,,,-##&<,&,%$&&,44#&-,,,>%+%<<&,-$$&-34-$-,,,>&+#,1-->$$&-,",
"<--,&$#%&%%-<<&>,,,,&,,-,-&##-&#$11$&>,,,--1->>&$#&-%#,3-$-,,<>&",
"@#<4-#.o&&&o&&&,4444-#+>4<%+.&-&+#&&&3444,#+&43&++%&&##&-&,4451&",
"%<7<%.%&#%&$&%=<6<-*&$>44-.+&##&#&&%144,*%&-34<..%##&&$-#<44,-*&",
"&;<7;@%--*>,&o;<<-&*&%=14<%+--=-,>##33,&=-&*;44*+%-=*,,#+,4<&&*&",
"oo;77=o>4,,4%%>&-&,4-#+@45<+$4<-4;#&&&&-4,#++<44%#,4&3<+&-&&&33&",
"<2<%;-#%>%%%o&&oo#<7-<<<*->%#--o=++-#.#-4,-23=->&#&,+%*+&#++$22$",
"55,#&&%#&$o#@&&%=,<<-<74##-&#%$#+#%&#*-<1>,74*#$-##&#+##-#%;,1,-",
"5,&&->-&>&>>&&&>45<&-<<&&-&-&&&->-&-&344-&<4>&&--&&&-->&-&,44,$>",
"**&$$<<&&<6<-<<&>4<#&**-&&>4>&,44,>3&-34%#&*&&$-4,$-34,-3>-,6-#-",
".#-<<<;&&<<<><4>&:;o&#X%><<<&$,<3-,5<--:+##.#><,1=$-13,>43-&<%+-",
"+o=76-.o*&>&-<54-%o%-$.%46<..->&&&,44,#++&&++154+O#-&$&>443&++#&",
"&<44,-#+4,$-<444-$;<-&,46<*& <<-$,447,&&2<&-241-&+*4-$>4443$$11-",
"%;<6,**;<>-<774<-&,<&#=<6<-%;:;&,4643>&-1-#%:44-&=;<-,3644,$-1,#",
"o.=64==4+#,4441&&&&&#oo%45<+4=o-2444>&&&&#++o<64+11+%<444,&-&&&+",
"&<1>>&&,&#@*%*,4%&-&&%;4,--%>-&#*%*>4=#--&#&<<--#->%#***-<<+&-&#",
"-,<&,,,$-#.++-1<%##%,>><&,<,&-&...&<<-#%#,,-<,-,1>&&...#,<<#&%-<",
"&#+-461&&%++&33$&%o%4,%o&<44--%@o$,4--&oo<4&o#,44,&&%+#-4,&&+.=4",
"-&%+*->&&<<$&%%+&$$&--&&o%*>-&,<*&&%+%&$&->-&#o*----1-&-*+#&$$&>",
"&&--#=,&&36,>#+%,<<,&&&-;%%,-$<4<,$##><<<-$*-,=#,>&-44>&##*<<<,&",
"-&,4-31&&<63>&>>4664--->4<,4-$,44,&-&<564,&--<3>4,&-44<--&,444<&",
"4>,74,#++%*,&<4468<-$<<-44<-#o#*>->44464>&>4-<6<>#++%=>>34477<-&",
"4>*<41:;%++##,44:<>&<4<%<44<;*@o##&<7<<<->44%-36<,=#.##%<44;<--<",
"7*#-4444-#+++#>4##&>44<.$<444,&oo+%-4=o-&<44%#,444<&+++@$3,#&$,4",
"7,$&->>>-+#-4,->&$&--4<&&&->>>&o-<<&>-&$&&<5*$-,>,-&+#,4---$&&->",
":--<&&#%&&#%<>&&<<<<&-<-<-&##-&%%,<-&><<1--;&,,$##&-%#-<-$-<<<,&",
".%<4-#++&&&+&&&-644<-#+,4,#oo%-&o$&&-<864,#+&44#+++--##&&&<764<&",
"&<64+.@&+%&&-#=46<$#&&,45= %&##&&&%%<8<-@&&-44<X+&#+&&&&+<64>%#-",
"%=14:%#>;-><&#=<<-*;-#=<5<*o-;--<-##<<<&;-&%;44=+$-:&,,%#;<,&---",
"+.-47=+>4,,4+$---$<4>#.+48<o&<4-4=#>&&&>6,#..:74@#<4-4<.&-&&&34&"
};
