/* XPM */
static char *result[] = {
/* columns rows colors chars-per-pixel */
"64 64 92 1 ",
"  c #E60026",
". c #EA0026",
"X c #E70926",
"o c #EB0B26",
"O c #F20026",
"+ c #F10028",
"@ c #E71426",
"# c #EB1426",
"$ c #E71D26",
"% c #EA1B26",
"& c #F01025",
"* c #F01A26",
"= c #FF1328",
"- c #FF1C29",
"; c #E72026",
": c #EA2426",
"> c #EB2C26",
", c #F12327",
"< c #F02E26",
"1 c #F42528",
"2 c #FB2B29",
"3 c #EB3426",
"4 c #EC3B26",
"5 c #F13326",
"6 c #F23B26",
"7 c #FA3C27",
"8 c #F53228",
"9 c #FE342A",
"0 c #FF3C2A",
"q c #ED4426",
"w c #EE4C26",
"e c #F24326",
"r c #FD4027",
"t c #F44B26",
"y c #FA4E27",
"u c #F64128",
"i c #FF442A",
"p c #F14928",
"a c #FE4A29",
"s c #EE5226",
"d c #EF5A26",
"f c #EF5D28",
"g c #F45326",
"h c #FA5527",
"j c #F45B27",
"k c #F95B26",
"l c #FD5429",
"z c #F55C29",
"x c #FE5C29",
"c c #EF6426",
"v c #EF6228",
"b c #F26326",
"n c #F96427",
"m c #F26B26",
"M c #FB6C27",
"N c #F56528",
"B c #FE6329",
"V c #F46C29",
"C c #FC6B28",
"Z c #F27326",
"A c #F97327",
"S c #F47B26",
"D c #FB7A27",
"F c #F67328",
"G c #FD7329",
"H c #FC7C29",
"J c #F48426",
"K c #F88627",
"L c #F68C26",
"P c #FA8C26",
"I c #FD8429",
"U c #FF8B29",
"Y c #F79226",
"T c #FA9426",
"R c #FA9C26",
"E c #F69428",
"W c #FF932B",
"Q c #FF9B2A",
"! c #FBA426",
"~ c #FDAB26",
"^ c #FFA32A",
"/ c #FFAD2A",
"( c #FDB326",
") c #FEBB26",
"_ c #FFB42A",
"` c #FFBB2A",
"' c #FFC526",
"] c #FFC926",
"[ c #FFC42A",
"{ c #FFCC29",
"} c #FFDB2C",
"| c None",
/* pixels */
"||||||||||||||||||||||||||||||||||||||||||||||||||||||||||||||||",
"||||||||||||||||||||||||||||||||||||||||||||||||||||||||||||||||",
"||||||||||||||||||||||||||||||||||||||||||||||||||||||||||||||||",
"||||||||||||||||||||||||||||||||||||||||||||||||||||||||||||||||",
"||||||||||||||||||||||||||||||||||||||||||||||||||||||||||||||||",
"||||||||||||||||||||||~L3j!|||||||||||||||||||||||||||||||||||||",
"||||||||||||||||||||!m6u155U||||||||||||||||||||||||||||||||||||",
"|||||||||||||||||LG5::@%333Q||||||||||||||||||||||||||||||||||||",
"|||||||||||||||JT-@%;34;44vYW|||||||||||||||||||||||||||||||||||",
"|||||||||||||ZG..>:q34e>:%  0!||||||||||||||||||||||||||||||||||",
"|||||||||||Kb9.633q44<5::q4ZT|||||||||||||||||||||||||||||||||||",
"||||||||||Ya.56<%36<5>>qq43sVR||||||||||||||||||||||||||||||||||",
"|||||||||Ta*655535<>:4q33:: 0!||||||||||||||||||||||||||||||||||",
"|||||||||w165<<55555:>55>*:s(]||||||||||||||||||||||||||||||||||",
"||||||||!x:. 433>5e>55343mL!/~||||||||||||||||||||||||||||||||||",
"||||||||(x A^ius43q4,>>qqSLN.H'|||||||||||||||||||||||||||||||||",
"|||||||||~`_||%9gz%q4q$3>o :K!||||||||||||||||||||||||||||||||||",
"||||||||||||||||5g33q4t6qdRTZQ||||||||||||||||||||||||||||||||||",
"|||||||||||||||||1<3gg4pwsbm3H||||||||||||||||||||||||||||||||||",
"||||||||||||||||>>ykt>q%$@>4P(||||||||||||||||||||||||||||||||||",
"||||||||||||||qrgykpe:%tgtoX>CT|||||||||||||||||||||||||||||||||",
"|||||||||j|||wiktghq>gnUUUzz>.0g||||||||||||||||||||||||||||||||",
"||||||||wj|o444poek45MTUIIUUMMq-qs||||||||||||||||||||||||||||||",
"||||||||z|OHk.:X>hg%3qbgDUIIUUIM:9p|||||||||||||||||||||||||||||",
"||||||||4&GI65:tjy>qqwq4wsUIIIIUHM80||||||||||||||||||||||||||||",
"|||||||B|PGHn3F~k:>>4pwqssqNUUUnMUn<4w||||||||||||||||||||||||||",
"|||||||CeUjQqgTs>>:>:qU4S~Ts4FIUD>tht1q|||||||||||||||||||||||||",
"|||||||lmIktm.TN ;33:IQQASR~SggHUG::>59w||||||||||||||||||||||||",
"|||||||7FFNdKJ4@>3runWIWQ6wR~!s.GTn,>><9w|||||||||||||||||||||||",
"|||||||8#<vjQY:;u4|yCWnQFwqbS~RS.HMe5<>42q||||||||||||||||||||||",
"|||||||aqj SJv4n4|||rtnQg4sq4sT(S#kh>534pp|||44p|;q|||||||||||||",
"||||||||Q!v'vZA~||||a4%GN3pww3>s!Z.g>>8>53||||wip$iw||||||||||||",
"||||||||HE!4ZF/|||||Fb jWpqwps4 b~c.6e3>;5w||||03|19w|||||||||||",
"|||||||.=4R'^/|||||||C3 VU4qwwq3 m~s&6q>:;0w||>0S|>ip|||||||||||",
"|||||||BkXqS(||||||||WNk IW64s444 S~q*64@>;a|tr>||4yi|||||||||||",
"|||||||ld:Sm~||||||||dGQq4FFV>qstq@K!3<<4>:3ri.W||>l2|||||||||||",
"|||||||D.L`}||||||||||tCIk IQHI44qw3YR%:3q::4.U|||3&I|||||||||||",
"|||||||Q.(||||||||||||||lBUWWQWUKIgq4RY.:3q%d({| 39.^|||||||||||",
"||||||||I(|||||||||||||||qqIQWWWQQWH>wRq%>ww3wq3+.<H|||:w4;|||||",
"||||||||~||||||||||||||||||-HMQWWUQQIoRK >3q;@34Vv)~|dBAKu94||||",
"|||||||||||||||||||||||||||BknWzMAIGQHs^q%3p4:%q!(!VxGIzCU62||||",
"|||||||||||||||||||||||||||WhFn;eUEWlI9KZ >4wq3$  .Fe+^J|{ D||||",
"|||||||||||||||||||||||||||(GQs1WI[||||`^3$4tq33m~!E`J|||| /||||",
"|||||||||||||||||||||||||||faIQUkW||||||~g qp.:5qSI{||||||I`||||",
"|||||||||||||||||||||||||||R^eCBA]||||||!G.3z)L<a. h|||||m`|||||",
"|||||||||||||||||||||||||||H4L (|||||||||RGxT||'(>r$9|||||||||||",
"|||||||||||||||||||||||!^QI#:U||||||||||||/S||||||p4%C||||||||||",
"||||||||||||||||||||||`B.%o.>/|||||||||||||||||||||j (||||||||||",
"|||||||||||||||||||||`DKR.gQ%g)||||||||||||||||||E. G(||||||||||",
"||||||||||||||||||||`'Y')`E|Ls}||||||||||||||||||~[`(|||||||||||",
"||||||||||||||||||||||''](|||Q]|||||||||||||||||||||||||||||||||",
"||||||||||||||||||||||'|{||||/||||||||||||||||||||||||||||||||||",
"||||||||||||||||||||||||||||[]||||||||||||||||||||||||||||||||||",
"||||||||||||||||||||||||||||||||||||||||||||||||||||||||||||||||",
"||||||||||||||||||||||||||||||||||||||||||||||||||||||||||||||||",
"||||||||||||||||||||||||||||||||||||||||||||||||||||||||||||||||",
"||||||||||||||||||||||||||||||||||||||||||||||||||||||||||||||||",
"||||||||||||||||||||||||||||||||||||||||||||||||||||||||||||||||",
"||||||||||||||||||||||||||||||||||||||||||||||||||||||||||||||||",
"||||||||||||||||||||||||||||||||||||||||||||||||||||||||||||||||",
"||||||||||||||||||||||||||||||||||||||||||||||||||||||||||||||||",
"||||||||||||||||||||||||||||||||||||||||||||||||||||||||||||||||",
"||||||||||||||||||||||||||||||||||||||||||||||||||||||||||||||||",
"||||||||||||||||||||||||||||||||||||||||||||||||||||||||||||||||"
};
