/* XPM */
static char *result[] = {
/* columns rows colors chars-per-pixel */
"64 64 92 1 ",
"  c #E60026",
". c #EB0026",
"X c #EB0926",
"o c #F10127",
"O c #F40A27",
"+ c #F40028",
"@ c #EC1526",
"# c #E61926",
"$ c #E91C26",
"% c #F11126",
"& c #F11A26",
"* c #FA1228",
"= c #F61D28",
"- c #E72326",
"; c #EA2426",
": c #E72926",
"> c #EB2B26",
", c #F12527",
"< c #F12C26",
"1 c #F62428",
"2 c #FA2429",
"3 c #F22928",
"4 c #FB2C29",
"5 c #EC3326",
"6 c #EC3B26",
"7 c #F13226",
"8 c #F83027",
"9 c #F23C26",
"0 c #FD3429",
"q c #F63B28",
"w c #FE3D29",
"e c #ED4326",
"r c #EE4B26",
"t c #F34326",
"y c #F34C27",
"u c #FE432A",
"i c #F54C28",
"p c #FE4B2B",
"a c #EE5226",
"s c #EF5C26",
"d c #EE5B28",
"f c #F45426",
"g c #F95626",
"h c #F45B27",
"j c #F95A26",
"k c #FE522A",
"l c #FE5B2A",
"z c #EE6226",
"x c #EE6D26",
"c c #F26326",
"v c #F96427",
"b c #F26B26",
"n c #FB6B27",
"m c #F36228",
"M c #FD6529",
"N c #F46D28",
"B c #FC6C29",
"V c #EF7326",
"C c #ED7826",
"Z c #F37326",
"A c #FB7127",
"S c #F47B26",
"D c #F57529",
"F c #FC7429",
"G c #F77A28",
"H c #FC7B29",
"J c #F58226",
"K c #FA8326",
"L c #F58B26",
"P c #FC8C27",
"I c #FF8529",
"U c #FF8B29",
"Y c #F59326",
"T c #FA9326",
"R c #F79A26",
"E c #F99B26",
"W c #FF932A",
"Q c #FF9A2B",
"! c #FBA426",
"~ c #FCAC26",
"^ c #FEA32A",
"/ c #FFAA2B",
"( c #FDB426",
") c #FEBB26",
"_ c #FFB329",
"` c #FFB929",
"' c #FFC426",
"] c #FFCB26",
"[ c #FFD325",
"{ c #FFD028",
"} c #FFDF2C",
"| c None",
/* pixels */
"||||||||||||||||||||||||||||||||||||||||||||||||||||||||||||||||",
"||||||||||||||||||||||||||||||||||||||||||||||||||||||||||||||||",
"||||||||||||||||||||||||||||||||||||||||||||||||||||||||||||||||",
"||||||||||||||||||||||||||||||||||||||||||||||||||||||||||||||||",
"||||||||||||||||||||||||||||||||||||||||||||||||||||||||||||||||",
"||||||||||||||||||||||||||||||||||||||||||||||||||||||||||||||||",
"||||||||||||||||||||||||||||||||||||||||||||||||||||||||||||||||",
"||||||||||||||||||||||||||||||||||||||||||||||||||||||||||||||||",
"||||||||||||||||||||||||||||||||||||||||||||||||||||||||||||||||",
"||||||||||||||||||||||||||||||||||||||||||||||||||||||||||||||||",
"||||||||||||||||||||||||||||||||||||||||||||||||||||||||||||||||",
"|||||||||||||||||||||||rp|||||||||||||||||||||||||||||||||||||||",
"||||||||||||||||||||||#q,re-uwqa||||||||||||||||||||||||||||||||",
"||||||||||||||||||||#6lt56puee6u||||||||||||||||||||||||||||||||",
"|||||||||||||y|||r>>wklgt>y6:reH||||||||||||||||||||||||||||||||",
"|||||||||||||m|>e54;fjjf<-tf7>>ahR||||||||||||||||||||||||||||||",
"||||||||||||5m.FG.>.yjjgfff<ee;X@kr|||||||||||||||||||||||||||||",
"||||||||||||5|lUut;S69jft<r>-fiir.w|||||||||||||||||||||||||||||",
"|||||||||||jgQFKGyN!rtj;65:-vUUUUv9,||||||||||||||||||||||||||||",
"||||||||||||MMGHD.Qs7j>;>- <IIIIIUH15|||||||||||||||||||||||||||",
"||||||||||||lUB<N6bxyt;>;6DyIIIIINWF0|||||||||||||||||||||||||||",
"||||||||||||kmGmHTa 9;>-#7^dhUIUIByIq$||||||||||||||||||||||||||",
"||||||||||||0.r5TR6-->>r>GQm9UIIIUf<54r|||||||||||||||||||||||||",
"||||||||||||ub$zYsf>>6r:iWQbeUIIIIIe#35|||||||||||||||||||||||||",
"||||||||||||N(J~YsJWSSr;IUFN6IIIUIUh6$0r||||||||||||||||||||||||",
"||||||||||||PM(zmZE]|>#6gDIN nUIIIHv6>-u||||||||||||||||||||||||",
"||||||||||||.OZ))/|||9:65eUy>BUIIHtft6#q||||||||||||||||||||||||",
"|||||||||||5Fe.zE]||e3 am NH>vUIIUH966>$t|||||||||||||||||||||||",
"||||||||||||B$bb/|||r;rav.eWrvUIIIUA$e5-6|||||||||||||||||||||||",
"||||||||||||ky/}]||rwaJhNa.srvUIIIIIt65$4r||||||e6||-|||||||||||",
"|||||||||||(lI|||||5eSSzDDF6$vUIUHDUi>e--9|||||||ue|p6||||||||||",
"||||||||||||LQ|||revSSSSajQc6UUIIUvfle56$>e||||||6q|5wr|||||||||",
"|||||||||||||!|||w>ZSebSSr5ryUIIIIUr9t>6-:3e|||||$l||4u|||||||||",
"|||||||||||||||||0rJrereba6ehUIIIIUUf>:66$:2>|||f+R||5l|||||||||",
"||||||||||||||||r1rS5>rrrra6IUIIIIHIH6#65::->42woM|||9B|||||||||",
"||||||||||||||||p;ba;:6rrre<IIIIIUBvKt666;;:;;65y/C.M%W|||||||||",
"|||||||||||||||r76Z>:>;6ra5fIIIUIIUBggter6;>:>6>sK0u.>!||e;|||||",
"|||||||||||||||r,6a>>>>er6rUUIIIIUUUtt5ery5>>:$6#..r`_||>BQu||||",
"|||||||||||||||7>e5;>:>emabUBIIIIKjvf5;6e6t>>>>-h(((||69WHe16|||",
"||||||||||||||r0;e:>>>5ZYmnIvUIIIUvtf7t;!g6;5:>-5ffa  MWiL_'U|||",
"||||||||||||||w-66>>>.x~b>nIfUKnUIUr>79p|]T1.tr;5artUUHg_|||'|||",
"|||||||||||||t-6e;e:5#!LcanUfUHnUHIf957<e||ZI9.9z(_SFML]||||||||",
"||||||||||||r4;66565;J(Z)mvArUKhUgny5e7;e|||]YHo X3~{]||||||||||",
"||||||||||||e356$e:6;Vx'K.v3eUBgUjf9<trwe|||||)S^.,.||||||||||||",
"|||||||||||e4-e556;e6.5LRbjtrUffUfg9;7qa||||||||'_m*6|||||||||||",
"||||||||||r0:56$66$e55LsReq>rUyaUj799<w|||||||||||~f2|||||||||||",
"|||||||||yw:>e>5e;5e>.({T 76rU9fUt;7t67t||||||||||]B+|||||||||||",
"|||||||||u;>e5-5e;.!cW||mw76fUe6v5>796<u|||||||||!f3Q|||||||||||",
"||||||||t5.56.3a..Q|)'||ew>;gj56j66<>ewq||||||||||))||||||||||||",
"|||||||r. HM4Fs_Fb'|||||u<7>ff6yj9e77er|||||||||||||||||||||||||",
"|||||||aUU'Ee]|']|||||||w<t5gy rj9gq<t||||||||||||||||||||||||||",
"||||||||{]||||||||||||||p<e6gtSfgwr;8i||||||||||||||||||||||||||",
"|||||||||||||||||||||||eq<>6j>~sju|60e||||||||||||||||||||||||||",
"|||||||||||||||||||||||i<76>t.(giw|y1u||||||||||||||||||||||||||",
"|||||||||||||||||||||||e7767oU|97u||kr||||||||||||||||||||||||||",
"||||||||||||||||||||||eq&mRXo!|><wr|||||||||||||||||||||||||||||",
"||||||||||||||||||||||e0%N/.H]|r0r||||||||||||||||||||||||||||||",
"||||||||||||||||||||||rw<S!MQ|||r|||||||||||||||||||||||||||||||",
"||||||||||||||||||||||r+.(|'||||||||||||||||||||||||||||||||||||",
"|||||||||||||||||||||||Q^(||||||||||||||||||||||||||||||||||||||",
"||||||||||||||||||||||||||||||||||||||||||||||||||||||||||||||||",
"||||||||||||||||||||||||||||||||||||||||||||||||||||||||||||||||",
"||||||||||||||||||||||||||||||||||||||||||||||||||||||||||||||||",
"||||||||||||||||||||||||||||||||||||||||||||||||||||||||||||||||"
};
