/* XPM */
static char *result[] = {
/* columns rows colors chars-per-pixel */
"32 32 223 2 ",
"   c #220000",
".  c #480D0C",
"X  c #7D000E",
"o  c #7A1914",
"O  c #6C1C00",
"+  c #543A00",
"@  c #612200",
"#  c #653D01",
"$  c #7D3500",
"%  c #762313",
"&  c #7C2415",
"*  c #7E2D16",
"=  c #7D2C19",
"-  c #7A371F",
";  c #740021",
":  c #6B1F2D",
">  c #7F3721",
",  c #5A4400",
"<  c #6F4405",
"1  c #654515",
"2  c #68501A",
"3  c #755817",
"4  c #754611",
"5  c #79620D",
"6  c #48473D",
"7  c #6E5A21",
"8  c #313E5B",
"9  c #5A374E",
"0  c #514E46",
"q  c #57584B",
"w  c #4F564F",
"e  c #694948",
"r  c #7A4645",
"t  c #76544F",
"y  c #58665E",
"u  c #64635B",
"i  c #606056",
"p  c #706250",
"a  c #7B624E",
"s  c #5B5F64",
"d  c #596D68",
"f  c #6B6A63",
"g  c #7A6C66",
"h  c #76736C",
"j  c #7C7B75",
"k  c #777572",
"l  c #940D1A",
"z  c #B60700",
"x  c #892504",
"c  c #822615",
"v  c #88291A",
"b  c #952C1A",
"n  c #9C2C1D",
"m  c #962419",
"M  c #873617",
"N  c #9B321E",
"B  c #973818",
"V  c #9D3A0E",
"C  c #AF2C00",
"Z  c #AA3807",
"A  c #A42817",
"S  c #A3341E",
"D  c #BD3600",
"F  c #832C25",
"G  c #9B3924",
"H  c #883725",
"J  c #A43221",
"K  c #A83627",
"L  c #AB2C2E",
"P  c #C80000",
"I  c #C00F00",
"U  c #CA2300",
"Y  c #99451B",
"T  c #835811",
"R  c #914A0B",
"E  c #A6481C",
"W  c #A85918",
"Q  c #B55C18",
"!  c #AF5205",
"~  c #926E13",
"^  c #BD621D",
"/  c #AB6603",
"(  c #804222",
")  c #9B4422",
"_  c #994B29",
"`  c #8E5328",
"'  c #874538",
"]  c #954538",
"[  c #9C573B",
"{  c #9A5224",
"}  c #A54A23",
"|  c #AB472B",
" . c #BA4326",
".. c #A65228",
"X. c #B55020",
"o. c #B3463A",
"O. c #846C2C",
"+. c #997828",
"@. c #8C6F38",
"#. c #AD682B",
"$. c #B3622B",
"%. c #B86A27",
"&. c #AE6837",
"*. c #B8683C",
"=. c #B97736",
"-. c #B67E23",
";. c #C46915",
":. c #CE771C",
">. c #CB6C06",
",. c #C85433",
"<. c #C74C2F",
"1. c #C66B24",
"2. c #C87427",
"3. c #C3713A",
"4. c #935A57",
"5. c #8C5450",
"6. c #AD5644",
"7. c #B6554A",
"8. c #8D665E",
"9. c #9E6D5F",
"0. c #80715D",
"q. c #9D6947",
"w. c #BD7D40",
"e. c #B26954",
"r. c #BE7857",
"t. c #AB6F50",
"y. c #8E6B64",
"u. c #88736C",
"i. c #827C76",
"p. c #99766C",
"a. c #A67667",
"s. c #AA7A71",
"d. c #C66E5B",
"f. c #CC7969",
"g. c #7A837B",
"h. c #998231",
"j. c #A88436",
"k. c #B38A33",
"l. c #C28000",
"z. c #D5851D",
"x. c #FFB407",
"c. c #C78935",
"v. c #CA963B",
"b. c #D18D2F",
"n. c #E0852E",
"m. c #FCAB3E",
"M. c #A88A44",
"N. c #B79C45",
"B. c #938165",
"V. c #87877C",
"C. c #90837E",
"Z. c #A9836F",
"A. c #AC957C",
"S. c #B78C70",
"D. c #C8874B",
"F. c #CD9648",
"G. c #CF9854",
"H. c #C8A84A",
"J. c #D5B54C",
"K. c #DDBA4C",
"L. c #CAA956",
"P. c #DABC5C",
"I. c #E2B857",
"U. c #C69A69",
"Y. c #D2A573",
"T. c #E3BC79",
"R. c #DBC25E",
"E. c #FFDC5F",
"W. c #EFC75E",
"Q. c #D6C777",
"!. c #DCC065",
"~. c #EED06D",
"^. c #F4D867",
"/. c #E4C97C",
"(. c #556287",
"). c #737482",
"_. c #7A8781",
"`. c #858581",
"'. c #8B8D83",
"]. c #8B8D8D",
"[. c #868985",
"{. c #8E918B",
"}. c #9A948B",
"|. c #979993",
" X c #919290",
".X c #A69D99",
"XX c #B59897",
"oX c #AE958A",
"OX c #9BA19B",
"+X c #A2A49D",
"@X c #AFAA9D",
"#X c #B9A99D",
"$X c #B8A78B",
"%X c #939EA0",
"&X c #A59EA5",
"*X c #AAAAA4",
"=X c #B7A7A5",
"-X c #B1B0AD",
";X c #A6A8B3",
":X c #B3B4B2",
">X c #B5B9B4",
",X c #BDBBB9",
"<X c #ACB3AE",
"1X c #D29483",
"2X c #D0AD92",
"3X c #D4BEBB",
"4X c #DEC78A",
"5X c #F9ED80",
"6X c #CEC3AF",
"7X c #DFD6AF",
"8X c #D0C3AC",
"9X c #F1D5B2",
"0X c #B5BAC2",
"qX c #B6C1C9",
"wX c #C5C5C2",
"eX c #C8C8CA",
"rX c #D6D9D7",
"tX c #D2D2D0",
"yX c #E3DFCD",
"uX c #FFFDD9",
"iX c #FFFCEE",
"pX c #F2EDEB",
"aX c None",
/* pixels */
"aXaXaXaXaXaXaXaXaXaXaXaXaXaXaXaXaXaXaXaXaXaXaXaXaXaXaXaXaXaXaXaX",
"aXaXaXaXaXaXaXaXaXaXaXaXaXaXk.H.R.K.h.3 N.aXaXaXaXaXaXaXaXaXaXaX",
"aXaXaXaXaXaXaXaXaXaX XaXaXh.H.~.^.K.K.M.H.P.aXaXaXaXaXaXaXaXaXaX",
"aXaXaXaXaXaXaXaXaXaXaX0XaX+.P.^.h.N.R.!.+.J.aXaXaXaXaXaXaXaXaXaX",
"aXaXaXaXaXaXaXaXaXaXaXqX}.T L.M.Y.T.P.k.M.O.aXaXaXaXaXaXaXaXaXaX",
"aXaXaXaXaXaXaXaXaXaXaX|.V.5 h.s.2XY.K.O.@.. aXaXaXaXaXaXaXaXaXaX",
"aXaXaXaX*X+XaXaXaXaXaXaXy q 9.*X0X9XF.+ . aXaXaXaXaXaXaXaXaXaXaX",
"aXaXaXaXy *X`.h d aXaXaX`.aX_.tXrX2X# 0 aXaXaXaXaXaXaXaXaXaXaXaX",
"aXaXaXZ y.V.|.i.e.e.aXaXaXaX'.].4X7XqXpX;XaXaXaXaXaXaXaXaXaXaXaX",
"aXaXaXy.o.y.y.C 9.+X'.j aXa L.B.l.iXpXyX@XaXaXaXaXaXaXaXaXaXaXaX",
"aXaX6 g.8.$.=.#X%Xi. XOXk e U.A.I.uX9X^.v.aXaXaXaXaXaXaXaXaXaXaX",
"aXaXf &X(.v.F.tXrX-Xi.u *X X_.k /.iXyX5Xt aXaXaXaXaXaXaXaXaXaXaX",
"aXaX'.%X5.<.C =XrXwX,X`.i.'.{.g A.,X+X:X9 $ 3.o.] t =.5.k q aXaX",
"aXt |.S.d.*X6.s.rX6XeXrX=Xs. XB.W.Q.|.6XM O =.,.A F <.] _.j aXaX",
"aXZ.Y.3.g aXaXu ;X>X>X6Xf.r.[.u.^.Q.].@XD 1 T ,.K c |  .h +Xw aX",
"aX<X4X/ aXj.G.U 6.Y.U.P <.7.h U.x.$X0Xp.x 2 +  .L o F z 8.>Xj aX",
"aXaXaXaXaXj.n.I P #.k.XX=Xr.t.oXm.6XoX@ 3 # +.D.D.K *.D.] .XV.aX",
"aXaXaXaXaXaXF.aXaXu.G.6XXXU.$.8 u.4.z 3 3   -.v.%.J w.c.6.}.w aX",
"aXaXaXaXaXaXaXaXaXp S.#X4.! v.~ 4 M 1 2 , 2 k.^ =.M F c.oXOXaXaX",
"aXaXaXaXaXaXaXaXaXaX_..XG x =.c.R < < # < b.b.#.1.( F 2.Z.[.u aX",
"aXaXaXaXaXaXaXaXaXaXf p.b A l X o b b b * M ! E & = m L a g.f aX",
"aXaXaXaXaXaXaXaXaXaXaX' m J K M * b S N o c m G v % b S 5.d 0 aX",
"aXaXaXaXaXaXaXaXaXaXaXv b n b & c N n b & b N n v & n A ' q aXaX",
"aXaXaXaXaXaXaXaXaXaXaXM m ..G o v m G b % v B ..o = m W 5.w aXaX",
"aXaXaXaXaXaXaXaXaXaX> Y Y 1.} - Y } 1.B H } Q 1.> Y E 1.[ aXaXaX",
"aXaXaXaXaXaXaXaXaXaX{ ..%.;._ ` Q :.>.) ` ^ ;.Q { _ 1.1.[ aXaXaX",
"aXaXaXaXaXaXaXaXaXaXY B ;.2.W M ;.n.c.$.= Q z.%.V V 2.2.q.aXaXaX",
"aXaXaXaXaXaXaXaXaXaXaXe e.&.4.e ; } $.H aXaXQ Y : r _ ! r aXaXaX",
"aXaXaXaXaXaXaXaXaXaXaXj wX`.[.aXaXaXaXaXaXaXaXaXaXy j }.f aXaXaX",
"aXaXaXaXaXaXaXaXaXaXaXh -XV.6 aXaXaXaXaXaXaXaXaXaX6 '.>Xu aXaXaX",
"aXaXaXaXaXaXaXaXaXaXaX'.'.i aXaXaXaXaXaXaXaXaXaXaX0 @Xj aXaXaXaX",
"aXaXaXaXaXaXaXaXaXaXaXaXaXaXaXaXaXaXaXaXaXaXaXaXaXaXaXaXaXaXaXaX"
};
