/* XPM */
static char *result[] = {
/* columns rows colors chars-per-pixel */
"32 32 224 2 ",
"   c black",
".  c #3E0506",
"X  c #3E3139",
"o  c #480000",
"O  c #5F0000",
"+  c #720000",
"@  c #78120C",
"#  c #771B14",
"$  c #563800",
"%  c #7C2314",
"&  c #792C1C",
"*  c #782417",
"=  c #712B05",
"-  c #552C25",
";  c #72232E",
":  c #594B17",
">  c #6B4906",
",  c #744306",
"<  c #76571B",
"1  c #6D5113",
"2  c #7E6A1F",
"3  c #48473C",
"4  c #594D29",
"5  c #734F2A",
"6  c #53544A",
"7  c #575856",
"8  c #46554F",
"9  c #6E574B",
"0  c #6F514F",
"q  c #5C6157",
"w  c #63635A",
"e  c #606357",
"r  c #746157",
"t  c #4B5865",
"y  c #596E68",
"u  c #686865",
"i  c #736B6B",
"p  c #74736D",
"a  c #787166",
"s  c #7C7A73",
"d  c #797B78",
"f  c #6F7068",
"g  c #8F0000",
"h  c #9C0000",
"j  c #800017",
"k  c #961D1B",
"l  c #8E1015",
"z  c #A00000",
"x  c #B60000",
"c  c #A00014",
"v  c #BB1400",
"b  c #872907",
"n  c #822716",
"m  c #852C1B",
"M  c #872919",
"N  c #952D1B",
"B  c #9A2D1C",
"V  c #952819",
"C  c #89351A",
"Z  c #9C301D",
"A  c #96351B",
"S  c #AF2C00",
"D  c #BA2A05",
"F  c #AA3707",
"G  c #A6321D",
"H  c #BE2D1D",
"J  c #952F23",
"K  c #863426",
"L  c #9D3320",
"P  c #973624",
"I  c #8B3135",
"U  c #A43922",
"Y  c #B53020",
"T  c #C50000",
"R  c #D00000",
"E  c #C6330C",
"W  c #814200",
"Q  c #99490B",
"!  c #9A4816",
"~  c #8C4A17",
"^  c #B45E09",
"/  c #A4491C",
"(  c #A54A1E",
")  c #B6591C",
"_  c #AF551E",
"`  c #99641A",
"'  c #A16100",
"]  c #BF7200",
"[  c #BB681D",
"{  c #B97617",
"}  c #864A26",
"|  c #8D4924",
" . c #984B21",
".. c #924C37",
"X. c #A24922",
"o. c #A3592A",
"O. c #A35229",
"+. c #B95822",
"@. c #B04F30",
"#. c #986E28",
"$. c #987A34",
"%. c #917632",
"&. c #B6622C",
"*. c #BD6529",
"=. c #BB7B38",
"-. c #B56A35",
";. c #C65D17",
":. c #C46C19",
">. c #C76614",
",. c #CC761C",
"<. c #D37A1F",
"1. c #D06D17",
"2. c #C25530",
"3. c #C16D2A",
"4. c #C87526",
"5. c #D17835",
"6. c #875954",
"7. c #94504A",
"8. c #B05544",
"9. c #9E6D5F",
"0. c #946B52",
"q. c #BA6948",
"w. c #B36A56",
"e. c #A66D50",
"r. c #8F6B62",
"t. c #8B6E69",
"y. c #827B74",
"u. c #967D78",
"i. c #957466",
"p. c #A97971",
"a. c #C66C59",
"s. c #C6754E",
"d. c #79857C",
"f. c #998105",
"g. c #99812A",
"h. c #B88326",
"j. c #BB8535",
"k. c #AD9236",
"l. c #B79C3F",
"z. c #BBA23F",
"x. c #D4821F",
"c. c #C58C35",
"v. c #C99136",
"b. c #CE8F33",
"n. c #C3A43D",
"m. c #AB9247",
"M. c #A88552",
"N. c #B68F45",
"B. c #BFA341",
"V. c #84827B",
"C. c #978878",
"Z. c #97977C",
"A. c #B48665",
"S. c #A0906C",
"D. c #AA8977",
"F. c #B28E76",
"G. c #B3A670",
"H. c #C48845",
"J. c #CA9949",
"K. c #D2924D",
"L. c #C6A44B",
"P. c #D7A64A",
"I. c #D0B455",
"U. c #F9B055",
"Y. c #C8927E",
"T. c #D2A975",
"R. c #E3B968",
"E. c #F2BF7A",
"W. c #E7C355",
"Q. c #F4CC52",
"!. c #E3C764",
"~. c #E6C867",
"^. c #FDD866",
"/. c #EDD26B",
"(. c #FFF678",
"). c #556287",
"_. c #738588",
"`. c #8A8C83",
"'. c #868884",
"]. c #978C87",
"[. c #8E928A",
"{. c #98948D",
"}. c #899594",
"|. c #989B93",
" X c #938C9F",
".X c #A7928B",
"XX c #AD9C92",
"oX c #9BA19B",
"OX c #A3A39C",
"+X c #A9A69E",
"@X c #999EA1",
"#X c #A09DA0",
"$X c #9BA1AA",
"%X c #ACAAA4",
"&X c #ABADAB",
"*X c #A8A9A3",
"=X c #B5A8A7",
"-X c #ACB2B5",
";X c #B5B9B5",
":X c #B7B7B7",
">X c #AFB2AD",
",X c #CF9F9A",
"<X c #C99686",
"1X c #CDBE9A",
"2X c #CDB481",
"3X c #EAB497",
"4X c #C3ADA4",
"5X c #C0BCBB",
"6X c #F4C88A",
"7X c #ECD18D",
"8X c #FFEF96",
"9X c #EFED97",
"0X c #D6CAAB",
"qX c #E8DCA6",
"wX c #B7BEC8",
"eX c #BAC4D0",
"rX c #C8C9C7",
"tX c #D6D8D7",
"yX c #CED1D4",
"uX c #E9CEC3",
"iX c #FBFBE9",
"pX c #FFFFFC",
"aX c #ECE9EA",
"sX c None",
/* pixels */
"sXsXsXsXsXsXsXsXsXsXsXsXsXsXsXsXsXsXsXsXsXsXsXsXsXsXsXsXsXsXsXsX",
"sXsXsXsXsXsXsXsXsXsXsXsXsX< k.n.B.sXsXsXsXsXsXsXsXsXsXsXsXsXsXsX",
"sXsXsXsXsXsXsXsXsXsXsXL.g.k.W.^.^.I.g.sXsXs sXsXsXsXsXsXsXsXsXsX",
"sXsXsXsXsXsXsXsXsXsXW.L.m.~.L.z./.~.B.sXsX-XsXsXsXsXsXsXsXsXsXsX",
"sXsXsXsXsXsXsXsXsXsXl.$.L.I.~.p.M.!.k.sXeX:XsXsXsXsXsXsXsXsXsXsX",
"sXsXsXsXsXsXsXsXsXsX. %.$.n.R.3XY.$.f.r -XsXsXsXsXsXsXsXsXsXsXsX",
"sXsXsXsXsXsXsXsXsXsXsX- 4 k.E.4X XA.` t u sXsXsXsXsXOX%XsXsXsXsX",
"sXsXsXsXsXsXsXsXsXsXsXsX  $ T.uXeXOXsXd sXsXsXy p '.+Xy sXsXsXsX",
"sXsXsXsXsXsXsXsXsXsXsXsX:X&XZ.qX0X}.sX'.sXsXw.w.y.{._.i.F sXsXsX",
"sXsXsXsXsXsXsXsXsXsXsXu aXaXpX6X5 Z.S.t p [.*X9.S t.r.@.r.sXsXsX",
"sXsXsXsXsXsXsXsXsXsXsXsX7X1XiX6XM.R.e.f OX[.y.|.=X3.&.0.d.3 sXsX",
"sXsXsXsXsXsXsXsXsXsXsXO Q.9XiX8X.XV.{.OXw y.>XtXrXK.J.).#Xf sXsX",
"sXsX7 p 9 3.5 V Y 1.#.o *X1XyX0Xa d ].y.y.5XrXtX=XF 2.7.|.`.sXsX",
"sXsXs d.P D % U E 2.5 + #X>XZ.2XM.'.].%XtXrXrXyXp.8.=Xa.F.|.9 sX",
"sX6 OXt.D G n G H ` 4 z <X%XG.(.L.[.D.a.4X:X:X&X7 sXsXi :.T.D.sX",
"sXs ;X6.x @ & c v = : , ..-X|.Q.P.).w.a.T 5.T.q.R 5.J.sX' 0X>XsX",
"sXd {.C J.@.z H.s.j.> < $ .XrXU.U.u.s.4X=Xe.h.E T ;.c.sXsXsXsXsX",
"sX8 u.@.v.-.g j.N.b.$ > < b p..XC.0 K..X-XT.N.sXsX4.P.sXsXsXsXsX",
"sXsX|.D.c.* = c./ { #.$ 1 1 = - 9 j.h.I +XA.` sXsXsXsXsXsXsXsXsX",
"sXw '.S.>.M % { ! c.b.` $ > 1 , [ v.~ L .X'.sXsXsXsXsXsXsXsXsXsX",
"sXu V.r l N * @ B ^ A C N N V * @ c k V 0.u sXsXsXsXsXsXsXsXsXsX",
"sX6 w 7.G B % n B B % # B L Z % & U U V K sXsXsXsXsXsXsXsXsXsXsX",
"sXsX6 ..B B % n N Z M % N N B n * J J V m sXsXsXsXsXsXsXsXsXsXsX",
"sXsX8 7.*.V C # &./ A & N O.B N # O.+.J C * sXsXsXsXsXsXsXsXsXsX",
"sXsXsX..1._  .| :.) +.} A <.) _ }  .>._ O.} sXsXsXsXsXsXsXsXsXsX",
"sXsXsXe.4.4. ./ ) :.>.| o.,.<.>.| o.,.3.X.! sXsXsXsXsXsXsXsXsXsX",
"sXsXsX0.4.>.M M [ x./ ; o.b.4./ & ! 1.^ K ! sXsXsXsXsXsXsXsXsXsX",
"sXsXsX9 7.6.w sXm sXsXsX; L I sXi u.r..X7 sXsXsXsXsXsXsXsXsXsXsX",
"sXsXsXp %X`.q sXsXsXsXsXsXsXsXsXsX'.[.rXd sXsXsXsXsXsXsXsXsXsXsX",
"sXsXsXw >XV.3 sXsXsXsXsXsXsXsXsXsX3 V.>Xp sXsXsXsXsXsXsXsXsXsXsX",
"sXsXsXsXd.+X3 sXsXsXsXsXsXsXsXsXsXsXe `.`.sXsXsXsXsXsXsXsXsXsXsX",
"sXsXsXsXsXsXsXsXsXsXsXsXsXsXsXsXsXsXsXsXsXsXsXsXsXsXsXsXsXsXsXsX"
};
