/* XPM */
static char *result[] = {
/* columns rows colors chars-per-pixel */
"64 64 90 1 ",
"  c #E60126",
". c #EB0026",
"X c #E70D26",
"o c #EB0C26",
"O c #F00026",
"+ c #FC0229",
"@ c #E71526",
"# c #EC1326",
"$ c #EA1C26",
"% c #F01E26",
"& c #F21128",
"* c #FF1329",
"= c #F41928",
"- c #E72326",
"; c #EA2426",
": c #EB2C26",
"> c #F02326",
", c #F22B27",
"< c #F72028",
"1 c #FE232A",
"2 c #F62828",
"3 c #FC2C29",
"4 c #EB3326",
"5 c #EC3C26",
"6 c #F13326",
"7 c #F23B26",
"8 c #F83D27",
"9 c #FD332A",
"0 c #FD3C29",
"q c #ED4326",
"w c #EE4B26",
"e c #F34426",
"r c #F84727",
"t c #F34B26",
"y c #F94B27",
"u c #F44528",
"i c #FE4329",
"p c #FE4B29",
"a c #EE5326",
"s c #EE5C26",
"d c #F45426",
"f c #F95626",
"g c #F25A26",
"h c #F95B26",
"j c #F35429",
"k c #FE552A",
"l c #F25B28",
"z c #FE5C29",
"x c #EE6126",
"c c #EF6D26",
"v c #F26326",
"b c #F96227",
"n c #F26926",
"m c #FA6A27",
"M c #F56428",
"N c #FD6429",
"B c #F66B28",
"V c #FD6B29",
"C c #F27426",
"Z c #F97027",
"A c #F37B26",
"S c #F77629",
"D c #FC7429",
"F c #F77D29",
"G c #FD7C29",
"H c #F58226",
"J c #FA8427",
"K c #F68B26",
"L c #F88D26",
"P c #FE8429",
"I c #FE8B2A",
"U c #F69126",
"Y c #F99327",
"T c #F79B26",
"R c #FA9C26",
"E c #FF942B",
"W c #FF9C2B",
"Q c #FBA326",
"! c #FCAB26",
"~ c #FFA429",
"^ c #FFAC2A",
"/ c #FDB326",
"( c #FEBB26",
") c #FFB42A",
"_ c #FFBE2A",
"` c #FFC426",
"' c #FFCA26",
"] c #FFC32A",
"[ c #FFCA29",
"{ c None",
/* pixels */
"{{{{{{{{{{{{{{{{{{{{{{{{{{{{{{{{{{{{{{{{{{{{{{{{{{{{{{{{{{{{{{{{",
"{{{{{{{{{{{{{{{{{{{{{{{{{{{{{{{{{{{{{{{{{{{{{{{{{{{{{{{{{{{{{{{{",
"{{{{{{{{{{{{{{{{{{{{{{{{{{{{{{{{{{{{{{{{{{{{{{{{{{{{{{{{{{{{{{{{",
"{{{{{{{{{{{{{{{{{{{{{{{{{{{{{{{{{{{{{{{{{{{{{{{{{{{{{{{{{{{{{{{{",
"{{{{{{{{{{{{{{{{{{{{{{{{{{{{{{{{{{{{{{{{{{{{{{{{{{{{{{{{{{{{{{{{",
"{{{{{{{{{{{{{{{{{{{{{{{{{{{{{{{{{{{{{{{{{{{{{{{{{{{{{{{{{{{{{{{{",
"{{{{{{{{{{{{{{{{{{{{{{{{{{{{{{{{{{{{{QL:vR{{{{{{{{{{{{{{{{{{{{{{",
"{{{{{{{{{{{{{{{{{{{{{{{{{{{{{{{{{{{{{G ;:$t~{{{{{{{{{{{{{{{{{{{{",
"{{{{{{{{{{{{{{{{{{{{{{{{{{{{{{{{{{{{)E:5:-@ ,DH{{{{{{{{{{{{{{{{{",
"{{{{{{{{{{{{{{{{{{{{{{{{{{{{{{{{{{{{IAqq-4q:$ 2IC{{{{{{{{{{{{{{{",
"{{{{{{{{{{{{{{{{{{{{{{{{{{{{{{{{{{{RO $$;754q;,.=NH{{{{{{{{{{{{{",
"{{{{{{{{{{{{{{{{{{{{{{{{{{{{{{{{{{{{Qv54;:645w4:6.plQ{{{{{{{{{{{",
"{{{{{{{{{{{{{{{{{{{{{{{{{{{{{{{{{{{Yt5:qw5:6,74;67>.D{{{{{{{{{{{",
"{{{{{{{{{{{{{{{{{{{{{{{{{{{{{{{{{{{R, :::5q;;6666667.P{{{{{{{{{{",
"{{{{{{{{{{{{{{{{{{{{{{{{{{{{{{{{{{{'^ao;:6::6,46,:,766{{{{{{{{{{",
"{{{{{{{{{{{{{{{{{{{{{{{{{{{{{{{{{{{QYQLs:766:e7;5q: :,Y{{{{{{{{{",
"{{{{{{{{{{{{{{{{{{{{{{{{{{{{{{{{{{/N nAsq4;;5q4qw1G)$OQ{{{{{{{{{",
"{{{{{{{{{{{{{{{{{{{{{{{{{{{{{{{{{{R!A$$;4;5q5;Mu3{{{!]{{{{{{{{{{",
"{{{{{{{{{{{{{{{{{{{{{{{{{{{{{{{{{{`PCQKqet7q7:y;{{{{{{{{{{{{{{{{",
"{{{{{{{{{{{{{{{{{{{{{{{{{{{{{{{{{{QGtgwww5thq:;{{{{{{{{{{{{{{{{{",
"{{{{{{{{{{{{{{{{{{{{{{{{{{{{{{{{{{{^A4-X 54ehf,:{{{{{{{{{{{{{{{{",
"{{{{{{{{{{{{{{{{{{{{{{{{{{{{{{{{{{Jf  7hb7 5ehffi{{{{{{{{{{{{{{{",
"{{{{{{{{{{{{{{{{{{{{{{{{{{{{{{{{{a3 tmDIIGb:qfytfi{{{vq{{{{{{{{{",
"{{{{{{{{{{{{{{{{{{{{{{{{{{{{{{{aq*gDGIIPIIDe4g7@e:q:%{j{{{{{{{{{",
"{{{{{{{{{{{{{{{{{{{{{{{{{{{{{{w3:DPIIPIPalw4;wf: ;oGk{v;{{{{{{{{",
"{{{{{{{{{{{{{{{{{{{{{{{{{{{{{52mPPPPIPm4wqwqq:ybl$7hI7{:{{{{{{{{",
"{{{{{{{{{{{{{{{{{{{{{{{{{{{wp6hGmbIIGqsv5ww5;:#n!ldDGG{z{{{{{{{{",
"{{{{{{{{{{{{{{{{{{{{{{{{{{{96ft%GIPMqC!RjJB$4-:XvE JSFkN{{{{{{{{",
"{{{{{{{{{{{{{{{{{{{{{{{{{{i,4;$DIDtvU!HnEWE6:5- Av5n7GGk{{{{{{{{",
"{{{{{{{{{{{{{{{{{{{{{{{{{q;::>dIZ vQ!H GWJIGu07: sYSlSBp{{{{{{{{",
"{{{{{{{{{{{{{{{{{{{{{{{{q,5:67bG#KQRnwttEDPDy{5iXwRP5w 0{{{{{{{{",
"{{{{{{{{{{{{{{{{6{w55{{{yq46,eboH!H5qww;PG5i{{{wmwvTw5vi{{{{{{{{",
"{{{{{{{{{{{{{{{i;{pq{{{{::64;y$cQw$qwww5G5:k{{{{^FsTTU^n{{{{{{{{",
"{{{{{{{{{{{{{{q1:{9q{{{q;;:57#a^vXwwww:PH tS{{{{{^CsA!NR{{{{{{{{",
"{{{{{{{{{{{{{{ui{{VX{{q9;;5e,5QC 45wd:ZI@$Vt{{{{{{^_/j+O{{{{{{{{",
"{{{{{{{{{{{{{wiy{{s1tai-;;76@TK.555w:nE5wNI4{{{{{{`Ew jD{{{{{{{{",
"{{{{{{{{{{{{{:it{{Qp204;444 KR;qwwq5FZf$LIt{{{{{{{{^Kv4k{{{{{{{{",
"{{{{{{{{{{{{{)k,:{{R4q;:q:.AQwqwqeIPWM GVp{{{{{{{{{'[Q4D{{{{{{{{",
"{{{{{{{{{{{{{[GO4:{](s;q: aQl5tIEEWWWEIu5{{{{{{{{{{{{'VG{{{{{{{{",
"{{{{{{{{$iM;{{)Vo.#;$:tq:.HK.BEWEEEIEb:{{{{{{{{{{{{{{{W{{{{{{{{{",
"{{{{{{{q08JSGt{[YHs4:;q4$:Qsf~WIEIWmN {{{{{{{{{{{{{{{{{{{{{{{{{{",
"{{{{{{{:4WDjGNDHQQx.-qw: CYjWSmShjEhVe{{{{{{{{{{{{{{{{{{{{{{{{{{",
"{{{{{{{K&{{TE.M4   4qw5- LhzkI^Ef$hGNR{{{{{{{{{{{{{{{{{{{{{{{{{{",
"{{{{{{{!<{{{{Q)!(U444wq s]Q{{{`IE5vWV/{{{{{{{{{{{{{{{{{{{{{{{{{{",
"{{{{{{{{W{{{{{{Qgq.8uqq G{{{{{{RkIEmp{{{{{{{{{{{{{{{{{{{{{{{{{{{",
"{{{{{{{{]C{{{{54 kNA[Z: I{{{{{{{HVkx~{{{{{{{{{{{{{{{{{{{{{{{{{{{",
"{{{{{{{{{{{{{$203U[{{YNI{{{{{{{{{/qH H{{{{{{{{{{{{{{{{{{{{{{{{{{",
"{{{{{{{{{{{{{V@t{{{{{{H{{{{{{{{{{{(I;4EWU{{{{{{{{{{{{{{{{{{{{{{{",
"{{{{{{{{{{{{{I+{{{{{{{{{{{{{{{{{{{QE .o O^!{{{{{{{{{{{{{{{{{{{{{",
"{{{{{{{{{{{{{!i.n{{{{{{{{{{{{{{{{{(;bWOC!v]{{{{{{{{{{{{{{{{{{{{{",
"{{{{{{{{{{{{{{)_/{{{{{{{{{{{{{{{{{[NQ{Q`_/{`{{{{{{{{{{{{{{{{{{{{",
"{{{{{{{{{{{{{{{{{{{{{{{{{{{{{{{{{{`K{{{[`'{{{{{{{{{{{{{{{{{{{{{{",
"{{{{{{{{{{{{{{{{{{{{{{{{{{{{{{{{{{{Q{{{Q`{{{{{{{{{{{{{{{{{{{{{{{",
"{{{{{{{{{{{{{{{{{{{{{{{{{{{{{{{{{{{'{{{{{{{{{{{{{{{{{{{{{{{{{{{{",
"{{{{{{{{{{{{{{{{{{{{{{{{{{{{{{{{{{{{{{{{{{{{{{{{{{{{{{{{{{{{{{{{",
"{{{{{{{{{{{{{{{{{{{{{{{{{{{{{{{{{{{{{{{{{{{{{{{{{{{{{{{{{{{{{{{{",
"{{{{{{{{{{{{{{{{{{{{{{{{{{{{{{{{{{{{{{{{{{{{{{{{{{{{{{{{{{{{{{{{",
"{{{{{{{{{{{{{{{{{{{{{{{{{{{{{{{{{{{{{{{{{{{{{{{{{{{{{{{{{{{{{{{{",
"{{{{{{{{{{{{{{{{{{{{{{{{{{{{{{{{{{{{{{{{{{{{{{{{{{{{{{{{{{{{{{{{",
"{{{{{{{{{{{{{{{{{{{{{{{{{{{{{{{{{{{{{{{{{{{{{{{{{{{{{{{{{{{{{{{{",
"{{{{{{{{{{{{{{{{{{{{{{{{{{{{{{{{{{{{{{{{{{{{{{{{{{{{{{{{{{{{{{{{",
"{{{{{{{{{{{{{{{{{{{{{{{{{{{{{{{{{{{{{{{{{{{{{{{{{{{{{{{{{{{{{{{{",
"{{{{{{{{{{{{{{{{{{{{{{{{{{{{{{{{{{{{{{{{{{{{{{{{{{{{{{{{{{{{{{{{",
"{{{{{{{{{{{{{{{{{{{{{{{{{{{{{{{{{{{{{{{{{{{{{{{{{{{{{{{{{{{{{{{{"
};
