/* XPM */
static char *result[] = {
/* columns rows colors chars-per-pixel */
"64 64 98 2 ",
"   c #E60126",
".  c #EB0026",
"X  c #E70D26",
"o  c #E90F26",
"O  c #F20027",
"+  c #F10C24",
"@  c #F40028",
"#  c #FF0029",
"$  c #E71026",
"%  c #EA1526",
"&  c #E71C26",
"*  c #EB1C26",
"=  c #F41527",
"-  c #F01C26",
";  c #FF102A",
":  c #FE1F29",
">  c #E72426",
",  c #EA2426",
"<  c #E72B26",
"1  c #EB2B26",
"2  c #F12726",
"3  c #F12C26",
"4  c #F42528",
"5  c #FD2529",
"6  c #F52C28",
"7  c #FD2B29",
"8  c #EB3326",
"9  c #EC3C26",
"0  c #F23326",
"q  c #F83227",
"w  c #F23C26",
"e  c #F93E27",
"r  c #F43228",
"t  c #FD3429",
"y  c #F63A28",
"u  c #FE3C29",
"i  c #ED4326",
"p  c #EE4B26",
"a  c #F34426",
"s  c #FA4527",
"d  c #F34B26",
"f  c #FB4A27",
"g  c #FE432A",
"h  c #FE4B29",
"j  c #EE5326",
"k  c #EE5C26",
"l  c #EE5928",
"z  c #F55426",
"x  c #F85626",
"c  c #F45B27",
"v  c #F95B26",
"b  c #F05528",
"n  c #FE5329",
"m  c #F55F29",
"M  c #FC5B28",
"N  c #EF6026",
"B  c #ED6926",
"V  c #F36226",
"C  c #F96427",
"Z  c #F26C26",
"A  c #FB6B27",
"S  c #F36428",
"D  c #FD6429",
"F  c #F66A28",
"G  c #FB6D29",
"H  c #EF7827",
"J  c #F37426",
"K  c #FB7127",
"L  c #F37B26",
"P  c #F67429",
"I  c #FC7429",
"U  c #F67C29",
"Y  c #FD7B29",
"T  c #F58326",
"R  c #F68E26",
"E  c #FB8C26",
"W  c #FE8529",
"Q  c #FF8B29",
"!  c #F59226",
"~  c #FC9227",
"^  c #F79C26",
"/  c #F99B26",
"(  c #FE932A",
")  c #FF9D29",
"_  c #FBA426",
"`  c #FCAC26",
"'  c #FFA32A",
"]  c #FFAE2A",
"[  c #FDB326",
"{  c #FEBB26",
"}  c #FFB128",
"|  c #FFBC2B",
" . c #FFC427",
".. c #FFCA26",
"X. c #FFC72C",
"o. c #FFCC2B",
"O. c #FFD426",
"+. c None",
/* pixels */
"+.+.+.+.+.+.+.+.+.+.+.+.+.+.+.+.+.+.+.+.+.+.+.+.+.+.+.+.+.+.+.+.+.+.+.+.+.+.+.+.+.+.+.+.+.+.+.+.+.+.+.+.+.+.+.+.+.+.+.+.+.+.+.+.",
"+.+.+.+.+.+.+.+.+.+.+.+.+.+.+.+.+.+.+.+.+.+.+.+.+.+.+.+.+.+.+.+.+.+.+.+.+.+.+.+.+.+.+.+.+.+.+.+.+.+.+.+.+.+.+.+.+.+.+.+.+.+.+.+.",
"+.+.+.+.+.+.+.+.+.+.+.+.+.+.+.+.+.+.+.+.+.+.+.+.+.+.+.+.+.+.+.+.+.+.+.+.+.+.+.+.+.+.+.+.+.+.+.+.+.+.+.+.+.+.+.+.+.+.+.+.+.+.+.+.",
"+.+.+.+.+.+.+.+.+.+.+.+.+.+.+.+.+.+.+.+.+.+.+.+.+.+.+.+.+.+.+.+.+.+.+.+.+.+.+.+.+.+.+.+.+.+.+.+.+.+.+.+.+.+.+.+.+.+.+.+.+.+.+.+.",
"+.+.+.+.+.+.+.+.+.+.+.+.+.+.+.+.+.+.+.+.+.+.+.+.+.+.+.+.+.+.+.+.+.+.+.+.+.+.+.+.+.+.+.+.+.+.+.+.+.+.+.+.+.+.+.+.+.+.+.+.+.+.+.+.",
"+.+.+.+.+.+.+.+.+.+.+.+.+.+.+.+.+.+.+.+.+.+.+.+.+.+.+.+.+.+.+.+.+.+.+.+.+.+.+.+.+.+.+.+.+.+.+.+.+.+.+.+.+.+.+.+.+.+.+.+.+.+.+.+.",
"+.+.+.+.+.+.+.+.+.+.+.+.+.+.+.+.+.+.+.+.+.+.+.+.+.+.+.+.+.+.+.+.+.+.+.+.+.+.+.+.+.+.+.+.+.+.+.+.+.+.+.+.+.+.+.+.+.+.+.+.+.+.+.+.",
"+.+.+.+.+.+.+.+.+.+.+.+.+.+.+.+.+.+.+.+.+.+.+.+.+.+.+.+.+.+.+.+.+.+.+.+.+.+.+.+.+.+.+.+.+.+.+.+.+.+.+.+.+.+.+.+.+.+.+.+.+.+.+.+.",
"+.+.+.+.+.+.+.+.+.+.+.+.+.+.+.+.+.+.+.+.+.+.+.+.+.+.+.+.+.+.+.+.+.+.+.+.+.+.+.+.+.+.+.+.+.+.+.+.+.+.+.+.+.+.+.+.+.+.+.+.+.+.+.+.",
"+.+.+.+.+.+.+.+.+.+.+.+.+.+.+.+.+.+.+.+.+.+.+.+.+.+.+.+.+.+.+.+.+.+.+.+.+.+.+.+.+.+.+.+.+.+.+.+.+.+.+.+.+.+.+.+.+.+.+.+.+.+.+.+.",
"+.+.+.+.+.+.+.+.+.+.+.+.+.+.+.+.+.+.+.+.+.+.+.+.+.+.+.+.+.+.+.+.+.+.+.+.+.+.+.+.+.+.d h +.+.+.+.+.+.+.+.+.+.+.+.+.+.+.+.+.+.+.+.",
"+.+.+.+.+.+.+.+.+.+.+.+.+.+.+.+.+.+.+.+.+.+.+.+.+.+.+.+.+.+.+.+.+.+.+.+.i h h 9 +.j g 2 i +.+.+.+.+.+.+.+.+.+.+.+.+.+.+.+.+.+.+.",
"+.+.+.+.+.+.+.+.+.+.+.+.+.+.+.+.+.+.+.+.+.+.+.+.+.+.+.+.+.+.+.+.+.+.+.g 9 1 9 u g g 9 1 a g 1 +.+.+.+.+.+.+.+.+.+.+.+.+.+.+.+.+.",
"+.+.+.+.+.+.+.+.+.+.+.+.+.+.+.+.+.+.+.+.+.+.+.+.+.+.+.+.+.+.+.+.+.+.+.G i b i 1 z 8 8 d v D h 7 3 +.+.+.+.+.D +.+.+.+.+.+.+.+.+.",
"+.+.+.+.+.+.+.+.+.+.+.+.+.+.+.+.+.+.+.+.+.+.+.+.+.+.+.+.+.+.+.+.+.+.P K 8 1 * a b 8 X a x x v d 3 7 9 8 % +.b j +.+.+.+.+.+.+.+.",
"+.+.+.+.+.+.+.+.+.+.+.+.+.+.+.+.+.+.+.+.+.+.+.+.+.+.+.+.+.+.+.+.+.Y q , < i d i a f z d x x v x * 1   G I O +.v +.+.+.+.+.+.+.+.",
"+.+.+.+.+.+.+.+.+.+.+.+.+.+.+.+.+.+.+.+.+.+.+.+.+.+.+.+.+.+.+.+.s . % , , 0 0 > i d w v v v a i i * 0 a Q D + 8 +.+.+.+.+.+.+.+.",
"+.+.+.+.+.+.+.+.+.+.+.+.+.+.+.+.+.+.+.+.+.+.+.+.+.+.+.+.+.+.+.1 3 w W W Y W S o 8 , 9 8 w D * j } b a C W I ( +.M +.+.+.+.+.+.+.",
"+.+.+.+.+.+.+.+.+.+.+.+.+.+.+.+.+.+.+.+.+.+.+.+.+.+.+.+.+.+.1 = G Q W Q Q W Q z   > 1 1 , d v 8 N ( 9 V ( c Q i D +.+.+.+.+.+.+.",
"+.+.+.+.+.+.+.+.+.+.+.+.+.+.+.+.+.+.+.+.+.+.+.+.+.+.+.+.+.p 7 D ( Y W Q W W Q c 9 i , 1 , , x w L E . S c G Y c v +.+.+.+.+.+.+.",
"+.+.+.+.+.+.+.+.+.+.+.+.+.+.+.+.+.+.+.+.+.+.+.+.+.+.+.+.+.o h Q K z W W W W W i ( W   < , < 3 d & j J T a c W P w +.+.+.+.+.+.+.",
"+.+.+.+.+.+.+.+.+.+.+.+.+.+.+.+.+.+.+.+.+.+.+.+.+.+.+.+.9 5 d c 3 Q Q W W Q G . ( W 9 8 9 , < 1 < 9 _ ( V P * 0 0 +.+.+.+.+.+.+.",
"+.+.+.+.+.+.+.+.+.+.+.+.+.+.+.+.+.+.+.+.+.+.+.+.+.+.+.+.u < % 8 W Q W W W Q F 8 Q ' F , i 8 o . 1 9 J ^ i   a , g +.+.+.+.+.+.+.",
"+.+.+.+.+.+.+.+.+.+.+.+.+.+.+.+.+.+.+.+.+.+.+.+.+.+.+.a , < < V Q W W W W Q F 8 Q W ( z X k J D j Z k H  ., / Y p +.+.+.+.+.+.+.",
"+.+.+.+.+.+.+.+.+.+.+.+.+.+.+.+.+.+.+.+.+.+.+.+.+.+.p u , > i D Q W W W Q W 9 i W F Q v , i m ! o.R J Z B / _ ( +.+.+.+.+.+.+.+.",
"+.+.+.+.+.+.+.+.+.+.+.+.+.+.+.+.+.+.+.+.+.+.+.+.+.+.p 6 & 9 a C x Y Q W Q I 1 8 W Q 9 a 1 * 8 +.+.{ W R ^ ` d g +.+.+.+.+.+.+.+.",
"+.+.+.+.+.+.+.+.+.+.+.+.+.+.+.+.+.+.+.+.+.+.+.+.+.+.y , > i a a S Q W W Q Y w 8 Y b X d < , 0 i +.+.{ { } N * 0 1 +.+.+.+.+.+.+.",
"+.+.+.+.+.+.+.+.+.+.+.+.+.+.+.+.+.+.+.+.+.+.+.+.+.p t & 9 9 , v Q W W W Q Y , Y Q X % W 8 < 4 i +.+.+.) % i   P D +.+.+.+.+.+.+.",
"+.+.+.+.+.+.+.+.+.+.+.+.+.+.+.+.+.+.+.+.+.+.+.+.+.g & & i 8 d W Q W W W Q Y , T i   d v j J , h z +.+.{ } } p 3 d +.+.+.+.+.+.+.",
"+.+.+.+.+.+.+.+.+.+.+.+.9 q +.i g i +.+.+.+.+.+.+.u > , i < v Q Y W W W W Y 1 a 9 a T l J L V 6 9 +.+.+...} ^ . ) +.+.+.+.+.+.+.",
"+.+.+.+.+.+.+.+.+.+.+.9 h +.+.g i +.+.+.+.+.+.+.g , > 9 8 0 C Y C W Q W W W w 8 W Q F k L L T c n p +.+.+.+.} t / +.+.+.+.+.+.+.",
"+.+.+.+.+.+.+.+.+.+.i u 7 +.+.5 9 +.+.+.+.+.+.s , > > p * v d 0 Y Q W W W E A 8 T A i L T J S T Z u g +.+.+.` R +.+.+.+.+.+.+.+.",
"+.+.+.+.+.+.+.+.+.+.z e 8 +.+.W   +.+.+.+.+.8 1 , > 9 8 1 a 8 Y Q W W W W E C 9 9   J Z S j 9 B L i 6 p +.+.+.+.+.+.+.+.+.+.+.+.",
"+.+.+.+.+.+.+.+.+.+.a n +.+.+.B ; i i , 1 1 4 < , > p > , 8 Y Q W W W W Q W W d i p k p i p 9 i T j 7 d +.+.+.+.+.+.+.+.+.+.+.+.",
"+.+.+.+.+.+.+.+.+.+.^ y a 8 +.{ I O t 5 7 3 > , < , i , 8 d E P A Q W W W W Q z i p i p j i , 1 J k & 9 +.+.+.+.+.+.+.+.+.+.+.+.",
"+.+.+.+.+.+.+.+.+.+.} , f h > p ` j i p 1 , > 1 , 9 9 p 9 x Y x Q W W Q W W Q x , p p p i 1 1 , 8 J 9 u +.+.+.+.+.+.+.+.+.+.+.+.",
"+.+.+.+.+.p c z +.+.+.' y a t s z 8 1 < 1 1 1 1 9 p p i a x d W Q W W W W W W W 9 p p p 1 1 1 1 1 J i & a +.+.+.+.+.+.+.+.+.+.+.",
"+.+.+.+.+.# W Y M p +.+...{ l k j 9 9 , 1 1 > 1 j 9 i 1 3 8 v Q Y W Q W W Q W Q W 8 p p i , 1 1 , 9 p , g +.+.+.+.+.+.+.+.+.+.+.",
"+.+.+.+.n Y I I W G G . +.+.{ } ` i & > , < 1 w . C S * 8 9 v f x W Q W W Q A Y W a L Z i & 1 < 1 1 i 1 , i +.+.+.+.+.+.+.+.+.+.",
"+.+.+.+.^ O.o.[ Y U P I Y G . . . & 1 8 9 r 1 1 ( [ J r a r d d Y W W Y W Q A I W a L ^ L 8 1 1 1 , i 8 , i +.+.+.+.+.+.+.+.+.+.",
"+.+.+.+.+.+.+.+.O.! Q F P v c ^ R i < p d . 5 ( O.+.. s r 0 , m E W Q A Y Q V F W x . J ` k   1 1 8 8 9 1 3 i +.+.+.+.+.+.+.+.+.",
"+.+.+.+.+.+.+.+.+.+. .) ) ' _ / ! p a . , | T +.+.9 g 3 , i 8 C W A E C I ( V P Q w R L R ` 1 9 > i 1 9 i * r i +.+.+.+.+.+.+.+.",
"+.+.+.+.+.+.+.+.+.+.+.+.+.+.P . . . O ' ` +.+.+.+.z t 1 i i 2 z v x Q m P Q S a A d J { J { L 1 1 8 9 8 i 1 , g +.+.+.+.+.+.+.+.",
"+.+.+.+.+.+.+.+.+.+.+.+.+.  = * 9 X.^ +.+.+.+.+.+.+.i d d 0 3 9 v v E C x Q Z . x m . { [ 9 p 8 9 , i , 8 i 1 1 i +.+.+.+.+.+.+.",
"+.+.+.+.+.+.+.+.+.+.+.+.9 u . ) { +.+.+.+.+.+.+.+.+.+.p 1 0 , a d x ( c a Q F % M w / T k 9 , 8 i > 8 i & i 1 , t p +.+.+.+.+.+.",
"+.+.+.+.+.+.+.+.+.+.+.+.& @ ( +.+.+.+.+.+.+.+.+.+.+.+.a r 0 i 0 3 x Q V , Q F . w 0 p _ Q /   9 9 1 1 i , 8 i 1 , u p +.+.+.+.+.",
"+.+.+.+.+.+.+.+.+.+.+.+.k @ W +.+.+.+.+.+.+.+.+.+.+.p u 3 i w r , 9 Q c % Q F 8 w 1 , [ ../ . 8 V 1 1 9 9 , 8 i , , g +.+.+.+.+.",
"+.+.+.+.+.+.+.+.+.+.+.+. .Q I Y [ +.+.+.+.+.+.+.+.+.p q 1 i r 0 1 0 x w * W C 9 w 3 h +.+.+.) T ` r   i 8 % 8 i 9 8 1 g +.+.+.+.",
"+.+.+.+.+.+.+.+.+.+.+.+.+.......+.+.+.+.+.+.+.+.+.+.p u h 9 0 1 i w x p , x x 9 * 0 s +.+.+... .+.' g   N M . . 9     8 d +.+.+.",
"+.+.+.+.+.+.+.+.+.+.+.+.+.+.+.+.+.+.+.+.+.+.+.+.+.+.+.z p e 3 8 i a x z 8 d M 9 8 r , a +.+.+.+.+.+.L Q ..R ( Y 5 ' I   @ p +.+.",
"+.+.+.+.+.+.+.+.+.+.+.+.+.+.+.+.+.+.+.+.+.+.+.+.+.+.+.+.+.g 3 e x w x z & 1 M 9 i r 0 i +.+.+.+.+.+.+.+. .+.+.+.+.+.} } ) +.+.+.",
"+.+.+.+.+.+.+.+.+.+.+.+.+.+.+.+.+.+.+.+.+.+.+.+.+.+.+.+.+.g 6 > p u x d ! d M w i 3 r d +.+.+.+.+.+.+.+.+.+.+.+.+.+.+.+.+.+.+.+.",
"+.+.+.+.+.+.+.+.+.+.+.+.+.+.+.+.+.+.+.+.+.+.+.+.+.+.+.+.+.u u +.+.g C w [ p d d < , r w d +.+.+.+.+.+.+.+.+.+.+.+.+.+.+.+.+.+.+.",
"+.+.+.+.+.+.+.+.+.+.+.+.+.+.+.+.+.+.+.+.+.+.+.+.+.+.+.+.+.u t j p u d a ` j , r 1 i r t p +.+.+.+.+.+.+.+.+.+.+.+.+.+.+.+.+.+.+.",
"+.+.+.+.+.+.+.+.+.+.+.+.+.+.+.+.+.+.+.+.+.+.+.+.+.+.+.+.+.p p +.p u 3 g +.` O 0 8 i 3 u p +.+.+.+.+.+.+.+.+.+.+.+.+.+.+.+.+.+.+.",
"+.+.+.+.+.+.+.+.+.+.+.+.+.+.+.+.+.+.+.+.+.+.+.+.+.+.+.+.+.+.+.+.p u 2 g +.[ d * F _ . w u +.+.+.+.+.+.+.+.+.+.+.+.+.+.+.+.+.+.+.",
"+.+.+.+.+.+.+.+.+.+.+.+.+.+.+.+.+.+.+.+.+.+.+.+.+.+.+.+.+.+.+.+.+.p u i +.+.] . m ] . 0 u +.+.+.+.+.+.+.+.+.+.+.+.+.+.+.+.+.+.+.",
"+.+.+.+.+.+.+.+.+.+.+.+.+.+.+.+.+.+.+.+.+.+.+.+.+.+.+.+.+.+.+.+.+.+.p +.+.+._ W E ] z 0 g +.+.+.+.+.+.+.+.+.+.+.+.+.+.+.+.+.+.+.",
"+.+.+.+.+.+.+.+.+.+.+.+.+.+.+.+.+.+.+.+.+.+.+.+.+.+.+.+.+.+.+.+.+.+.+.+.+.+.+...+.+.' . ; j +.+.+.+.+.+.+.+.+.+.+.+.+.+.+.+.+.+.",
"+.+.+.+.+.+.+.+.+.+.+.+.+.+.+.+.+.+.+.+.+.+.+.+.+.+.+.+.+.+.+.+.+.+.+.+.+.+.+.+.+.+._ ] R +.+.+.+.+.+.+.+.+.+.+.+.+.+.+.+.+.+.+.",
"+.+.+.+.+.+.+.+.+.+.+.+.+.+.+.+.+.+.+.+.+.+.+.+.+.+.+.+.+.+.+.+.+.+.+.+.+.+.+.+.+.+.+.+.+.+.+.+.+.+.+.+.+.+.+.+.+.+.+.+.+.+.+.+.",
"+.+.+.+.+.+.+.+.+.+.+.+.+.+.+.+.+.+.+.+.+.+.+.+.+.+.+.+.+.+.+.+.+.+.+.+.+.+.+.+.+.+.+.+.+.+.+.+.+.+.+.+.+.+.+.+.+.+.+.+.+.+.+.+.",
"+.+.+.+.+.+.+.+.+.+.+.+.+.+.+.+.+.+.+.+.+.+.+.+.+.+.+.+.+.+.+.+.+.+.+.+.+.+.+.+.+.+.+.+.+.+.+.+.+.+.+.+.+.+.+.+.+.+.+.+.+.+.+.+.",
"+.+.+.+.+.+.+.+.+.+.+.+.+.+.+.+.+.+.+.+.+.+.+.+.+.+.+.+.+.+.+.+.+.+.+.+.+.+.+.+.+.+.+.+.+.+.+.+.+.+.+.+.+.+.+.+.+.+.+.+.+.+.+.+."
};
