/* XPM */
static char *result[] = {
/* columns rows colors chars-per-pixel */
"32 32 246 2 ",
"   c black",
".  c #000003",
"X  c #00000D",
"o  c #06010C",
"O  c #04030E",
"+  c #0B050F",
"@  c #040310",
"#  c #131012",
"$  c #191711",
"%  c #17171E",
"&  c #3E0000",
"*  c #1E1D22",
"=  c #393535",
"-  c #630000",
";  c #740004",
":  c #620019",
">  c #710011",
",  c #730012",
"<  c #7D0010",
"1  c #4A2B00",
"2  c #7C2614",
"3  c #74271C",
"4  c #792A1C",
"5  c #7D3318",
"6  c #7F0B25",
"7  c #4B2826",
"8  c #583C24",
"9  c #7E2D33",
"0  c #6E4100",
"q  c #7D641A",
"w  c #7F4926",
"e  c #7D422B",
"r  c #685321",
"t  c #695227",
"y  c #63502E",
"u  c #755B25",
"i  c #786422",
"p  c #6F3A41",
"a  c #7D3842",
"s  c #484C4D",
"d  c #544342",
"f  c #534740",
"g  c #534C4B",
"h  c #534A4C",
"j  c #5A4459",
"k  c #4C505E",
"l  c #585757",
"z  c #5E5E5F",
"x  c #694451",
"c  c #674E5F",
"v  c #7D6F52",
"b  c #595C61",
"n  c #676961",
"m  c #6A6868",
"M  c #6F6D6B",
"N  c #6F716C",
"B  c #75776D",
"V  c #7E7971",
"C  c #7C7A73",
"Z  c #7D7E75",
"A  c #7D7F75",
"S  c #727979",
"D  c #747A78",
"F  c #8A0000",
"G  c #8E0002",
"H  c #83000C",
"J  c #821309",
"K  c #9E1800",
"L  c #9C1C00",
"P  c #83001D",
"I  c #920018",
"U  c #9E001D",
"Y  c #900C1A",
"T  c #96171D",
"R  c #A20000",
"E  c #A10200",
"W  c #BF0000",
"Q  c #8D2500",
"!  c #852516",
"~  c #872B1B",
"^  c #852D1C",
"/  c #9D2913",
"(  c #95221C",
")  c #952F1D",
"_  c #99291B",
"`  c #803518",
"'  c #A73E0D",
"]  c #92002C",
"[  c #9D0034",
"{  c #A50026",
"}  c #A80F21",
"|  c #A0002D",
" . c #A51D2C",
".. c #863122",
"X. c #8D3A2C",
"o. c #9C3020",
"O. c #9F3521",
"+. c #9C3726",
"@. c #963F24",
"#. c #973A2A",
"$. c #863B32",
"%. c #883E31",
"&. c #AE2C21",
"*. c #A22E2F",
"=. c #B22D25",
"-. c #AE3622",
";. c #AC3D2B",
":. c #B93A23",
">. c #B13929",
",. c #B03B29",
"<. c #B9382C",
"1. c #C30818",
"2. c #D20118",
"3. c #C61B15",
"4. c #CA181D",
"5. c #96401F",
"6. c #924E1F",
"7. c #A9430C",
"8. c #B44200",
"9. c #B55B00",
"0. c #AA4A1D",
"q. c #B0461C",
"w. c #B05811",
"e. c #8D7218",
"r. c #90781E",
"t. c #AF671F",
"y. c #B7621B",
"u. c #884020",
"i. c #9F4122",
"p. c #995220",
"a. c #9E5223",
"s. c #985025",
"d. c #9E5126",
"f. c #974032",
"g. c #984630",
"h. c #934B3D",
"j. c #84523B",
"k. c #AB472F",
"l. c #A74C29",
"z. c #AF5925",
"x. c #A1532C",
"c. c #A94232",
"v. c #B54130",
"b. c #966D2D",
"n. c #816F33",
"m. c #9A7E31",
"M. c #907C3F",
"N. c #A46F39",
"B. c #B76631",
"V. c #C06F1E",
"C. c #CE6E1D",
"Z. c #C9771E",
"A. c #CD7A1F",
"S. c #D37B10",
"D. c #CE6E22",
"F. c #CE7621",
"G. c #C4723A",
"H. c #C37D3C",
"J. c #875A40",
"K. c #8F5051",
"L. c #825953",
"P. c #B75740",
"I. c #926A4F",
"U. c #8F7E49",
"Y. c #9B7747",
"T. c #9F6356",
"R. c #A1694F",
"E. c #896A6D",
"W. c #927562",
"Q. c #9A7665",
"!. c #807670",
"~. c #997373",
"^. c #A17561",
"/. c #BA9F28",
"(. c #A88133",
"). c #AD8B37",
"_. c #B38330",
"`. c #BB9E3B",
"'. c #BFA139",
"]. c #D4831F",
"[. c #CA822C",
"{. c #CA8634",
"}. c #C5A737",
"|. c #C0A53B",
" X c #9E824E",
".X c #BA9F44",
"XX c #BFA444",
"oX c #85807A",
"OX c #82847A",
"+X c #CBA040",
"@X c #CFA044",
"#X c #CDA547",
"$X c #C0A54A",
"%X c #CBAE4B",
"&X c #D3A041",
"*X c #D6A541",
"=X c #D1B146",
"-X c #CAB054",
";X c #D1B252",
":X c #D3B154",
">X c #E6B148",
",X c #D0B560",
"<X c #D6BA61",
"1X c #DEC45F",
"2X c #EFC64F",
"3X c #E8C556",
"4X c #F2CB5D",
"5X c #E9CB65",
"6X c #F2C964",
"7X c #F6C964",
"8X c #F2CA68",
"9X c #FFD96E",
"0X c #FFE076",
"qX c #FFE776",
"wX c #778893",
"eX c #828484",
"rX c #858484",
"tX c #888680",
"yX c #868884",
"uX c #898C87",
"iX c #888888",
"pX c #8D8A8A",
"aX c #8F918B",
"sX c #8C938D",
"dX c #909289",
"fX c #90918B",
"gX c #8D9094",
"hX c #9F9B94",
"jX c #9D9D97",
"kX c #A09C93",
"lX c #A2A29A",
"zX c #9CA0A6",
"xX c #A6A6A0",
"cX c #A8A9A1",
"vX c #A9A9A3",
"bX c #AAAFA7",
"nX c #A8AAAA",
"mX c #B8AFA6",
"MX c #B0B0A9",
"NX c #AAABB1",
"BX c #B0B4B4",
"VX c #B4B5B5",
"CX c #BCBCBC",
"ZX c #CACBC5",
"AX c #CBCCC4",
"SX c None",
/* pixels */
"SXSXSXSXSXSXSXSXSXSXSXSXSXSXSXSXSXSXSXSXSXSXSXSXSXSXSXSXSXSXSXSX",
"SXSXSXSXSXSXSXSXSXSXSXSXSXSXSXSXSXSXSXSXSXSXSXSXSXSXSXSXSXSXSXSX",
"SXSXSXSXSXSXSXSXSXSXSXSXSXSXSXSXSXSXSXSXSXSXSXSXSXSXSXSXSXSXSXSX",
"SXSXSXSXSXSXSXSXSXSXSXSXSXSXSX'.`.SXSXSXSXSXSXSXSXSXSXSXSXSXSXSX",
"SXSXSXSXSXSXSXSXSXSXSXSXSXM.}.XX=X5X,X:XSXzXSXSXSXSXSXSXSXSXSXSX",
"SXSXSXSXSXSXSXSXSXSXSXSXSX%X$X*X+X1XqX2XwXNXSXSXSXSXSXSXSXSXSXSX",
"SXSXSXSXSXSXSXSXSXSXSX  ).4X<X9X8X;X6X/.V gXSXSXSXSXSXSXSXSXSXSX",
"SXSXSXSXSXSXSXSXX + $   .X3X@X0X7X#X-Xq v b SXSXSXSXSXSXSXSXSXSX",
"SXSXSXSXSXSXSXSXSXo #   e.|.(.>X&Xm.r.SXSXM SXSXSXSXSXSXSXSXSXSX",
"SXSXSXSXSXSXSXSXSX@ .   = i t _.b.r y SXSXSXSXSXSXSXSXSXSXSXSXSX",
"SXSXSXSXSXSXSXSXSX*   rXVXh 1 n.u & eXCXz SXSXSXSXSXSXSXSXSXSXSX",
"SXSXSXSXSXSXSXSXSX%   iXnX*.W ..4 R ~.BXg SXSXSXSXSXSXSXSXSXSXSX",
"SXSXSXSXSXSXSXSXSXO   s d F 4.2.1.E - l f SXSXSXSXSXSXSXSXSXSXSX",
"SXSXSXSXSXSXSXSXSXSX  S E.G 6 T J > ; pXm SXSXSXSXSXSXSXSXSXSXSX",
"SXSXSXSXSXSXSXSXSXSXSXW.K.U } P H [ < Q.SXSXSXSXSXSXSXSXSXSXSXSX",
"SXSXSXSXSXSXSXSXSXSXSX8 Y { 3.q.' | ] 5 SXSXSXSXSXSXSXSXSXSXSXSX",
"SXSXSXSXSXSXSXSXSXSXSX: I =.-.I.R.<. ., 7 SXSXSXSXSXSXSXSXSXSXSX",
"SXSXSXSXSXSXSXSXSXSXSXw l.>.) fXtX+.;.p.0 SXSXSXSXSXSXSXSXSXSXSX",
"SXSXSXSXSXSXSXSXSXSXSX XG.&.X.bXlX#.,.H.U.SXSXSXSXSXSXSXSXSXSXSX",
"SXSXSXSXSXSXSXSXSXSXSXN.c.:.P.mXhXk.v.g.Y.SXSXSXSXSXSXSXSXSXSXSX",
"SXSXSXSXSXSXSXSXSXSXSXe o.L T.kXoXf./ ^ SXSXSXSXSXSXSXSXSXSXSXSX",
"SXSXSXSXSXSXSXSXSXSXSX3 O.K L.sXC %._ ~ SXSXSXSXSXSXSXSXSXSXSXSX",
"SXSXSXSXSXSXSXSXSXSXSX2 ( i.j.uX!.Q B.! SXSXSXSXSXSXSXSXSXSXSXSX",
"SXSXSXSXSXSXSXSXSXSXSXs.0.C.w.D ^.8.D.d.SXSXSXSXSXSXSXSXSXSXSXSX",
"SXSXSXSXSXSXSXSXSXSXSXa.F.].y.J.t.S.V.z.SXSXSXSXSXSXSXSXSXSXSXSX",
"SXSXSXSXSXSXSXSXSXSXu.@.9.[.{.6.9 Z.A.7.` SXSXSXSXSXSXSXSXSXSXSX",
"SXSXSXSXSXSXSXSXSXSXa j c h.5.x k $.x.p SXSXSXSXSXSXSXSXSXSXSXSX",
"SXSXSXSXSXSXSXSXSXSXSXSXaXyXSXSXSXSXxXN SXSXSXSXSXSXSXSXSXSXSXSX",
"SXSXSXSXSXSXSXSXSXSXSXSXMXvXSXSXSXSXZXdXSXSXSXSXSXSXSXSXSXSXSXSX",
"SXSXSXSXSXSXSXSXSXSXSXSXcXjXSXSXSXSXAXZ SXSXSXSXSXSXSXSXSXSXSXSX",
"SXSXSXSXSXSXSXSXSXSXSXSXA B SXSXSXSXOXn SXSXSXSXSXSXSXSXSXSXSXSX",
"SXSXSXSXSXSXSXSXSXSXSXSXSXSXSXSXSXSXSXSXSXSXSXSXSXSXSXSXSXSXSXSX"
};
