/* XPM */
static char *result[] = {
/* columns rows colors chars-per-pixel */
"64 64 91 1 ",
"  c #E50026",
". c #EA0126",
"X c #E70D26",
"o c #EA0B26",
"O c #F10127",
"+ c #F00D26",
"@ c #FD0029",
"# c #E71626",
"$ c #EB1326",
"% c #E71B26",
"& c #EB1C26",
"* c #F21427",
"= c #F21F27",
"- c #FC1529",
"; c #F41F28",
": c #FE1B29",
"> c #E72426",
", c #EA2526",
"< c #EB2B26",
"1 c #F12326",
"2 c #F12A26",
"3 c #F52328",
"4 c #FD232A",
"5 c #F52E28",
"6 c #FC2D29",
"7 c #EC3326",
"8 c #EC3B26",
"9 c #F13326",
"0 c #F23C26",
"q c #FC3429",
"w c #F53D28",
"e c #FD3C29",
"r c #ED4326",
"t c #ED4B26",
"y c #F34426",
"u c #F44B26",
"i c #F84F26",
"p c #FE4329",
"a c #F44A28",
"s c #FE4C29",
"d c #EE5326",
"f c #EE5B26",
"g c #F55326",
"h c #F85626",
"j c #F45B27",
"k c #F95A26",
"l c #FD5429",
"z c #FE5C29",
"x c #EF6326",
"c c #EF6926",
"v c #F26426",
"b c #F96427",
"n c #F16B26",
"m c #FB6C27",
"M c #FE6429",
"N c #F46E28",
"B c #FD6C29",
"V c #EE7026",
"C c #F37426",
"Z c #FB7527",
"A c #F47B26",
"S c #FA7A27",
"D c #FD7429",
"F c #FE7B29",
"G c #F58226",
"H c #FC8127",
"J c #F68A26",
"K c #F68128",
"L c #FF8429",
"P c #FF8A29",
"I c #FB9527",
"U c #F79927",
"Y c #FA9C27",
"T c #F59228",
"R c #FF912A",
"E c #FF9A29",
"W c #F6A027",
"Q c #FAA327",
"! c #FAAC27",
"~ c #FDA528",
"^ c #FBAB28",
"/ c #FDB427",
"( c #FEBB27",
") c #FFB428",
"_ c #FDB928",
"` c #FFC627",
"' c #FFCA27",
"] c #FFC528",
"[ c #FFCC28",
"{ c #FFD129",
"} c None",
/* pixels */
"}}}}}}}}}}}}}}}}}}}}}}}}}}}}}}}}}}}}}}}}}}}}}}}}}}}}}}}}}}}}}}}}",
"}}}}}}}}}}}}}}}}}}}}}}}}}}}}}}}}}}}}}}}}}}}}}}}}}}}}}}}}}}}}}}}}",
"}}}}}}}}}}}}}}}}}}}}}}}}}}}}}}}}}}}}}}}}}}}}}}}}}}}}}}}}}}}}}}}}",
"}}}}}}}}}}}}}}}}}}}}}}}}}}}}}}}}}}}}}}}}}}}}}}}}}}}}}}}}}}}}}}}}",
"}}}}}}}}}}}}}}}}}}}}}}}}}}}}}}}}}}}}}}}}}}}}}}}}}}}}}}}}}}}}}}}}",
"}}}}}}}}}}}}}}}}}}}}}}}}}}}}}}}}}}}}}}}}}}}}}}}}}}}}}}}}}}}}}}}}",
"}}}}}}}}}}}}}}}}}}}}}}}}}}}}}}}}}}}}}}}}}}}}}}}}}}}}}}}}}}}}}}}}",
"}}}}}}}}}}}}}}}}}}}}}}}}}}}}}}}}}}}}}}}}}}}}}}}}}}}}}}}}}}}}}}}}",
"}}}}}}}}}}}}}}}}}}}}}}}}}}}}}}}}}}}}}}}}}}}}}}}}}}}}}}}}}}}}}}}}",
"}}}}}}7      . <}}}}}}}}}}}}}}}}}}}}}}}}}}}}}}}}#      .77}}}}}}",
"}}<7> @MFDDDDFD6<}}}}}}}}}}}}}}}}}}}}}}}}}}}}}<%zFDDDFDD:@ 77}}}",
"}<3@sFFPRRRRRPPj:&}}}}}}}}}}} }M}} }}}}}}}}}}$4yLRRRRRRRLFM@:<}}",
"c-hLPZyrrr88aFPLyf}}}}}}}_(}nPol$ZP}})}}}}}}}neDPLk88rtrybPLm-h}",
"D.0y7nCN#ySSFLLLuc}}}}}}}^~V$jb.uxw8W~}}}}}}}ApFLLFFFj.fCC8ry.z}",
"}LCCAd7jjkPPPPLLz}}}}}}}})DEfrgLZ7dIDY}}}}}}}}jZPLPLPmgkr8CCCLC}",
"}}Af950hk0>7wFLLz}}}}}}}}}IQCyLPLbtWE}}}}}}}}}cmPLh<7<hha2w8L}}}",
"}Cp222y<<,kPLPPFq}}}}}}}}}QNySPPPPujE}}}}}}}}}$mPLPPZ,<>09192v}}",
"}z+2r8AdoSPLFSkh1c}}}}}}}}}EuPmPZZZD(}}}}}}}}CqhhDHLPP87Ad891eC}",
"}MwtCC%uiZZ<$9hkgqC}}}}}}}}FmmbPDgFl!}}}}}}}}lykky&obFhhovAd0lA}",
"}}LC,19,r $<ubhhkyyZ}}}}}}}lLubPS9LMc}}}}}}CB1khkkh7& 77<9.vLG}}",
"}}jow17ff,yhkuhkhky3FA}}}}M8F#aPm.mkpG}}}}Fy5hhhkahka<tc8&0=p}}}",
"}Ce2+rxn&0iu0<kkkhgyOkLC}n37b<<Zu,ft.b}}DD$9ghhkky<auy.jnd&2&n}}",
"}A3sjnf.0$78&kuykg,<02.zF97t$8,Z88&8t.DB$*w9&ykuykw,a.0$8Cjz.n}}",
"}}BCG9&0.dctuu,uk2,,<2w,.7Cf77&b8,7yCt.o09<,,,gh28g8cfo99.ZJMn}}",
"}}}}t51$xvt2y&gh07>>>><7<7Ct%807707<Ct<7<<><><8uj<9w7vn8.9eV}}}}",
"}}}C4$Bcx71<&<u,87>,<>>,,$jf,ym$jk>rc,,,>>,,>>8,y0,&9&fvDy.D}}}}",
"}}}}FnJB.9*f89&fr%<>,><>>%cf$mPkFF78c7><>,<,<>>f<9,f<9.lJnLC}}}}",
"}}}}}}n29<Df92rn,,><,<,,,>d8$SPFPPy%f7>>,<,,<>#fj19aDa93g}}}}}}}",
"}}}}}}n$oj}l1,Cdo<8&78,,><t<bPPLPPZ<t8><,<8,87&7Ar<eKnq.z}}}}}}}",
"}}}}}}voL}cq=nA<%rt#88,,><r,bPLPLPF787>>,<r%8t,&nS<2f}Arl}}}}}}}",
"}}}}}}}L}Ap.l}v=<n8%88%r>tx mZLmLmF<df#8<<r,#ct.z}j&3n}CA}}}}}}}",
"}}}}}}}}}AeeCAp.dA<,8,,r C)7mmLmPmF#UY r<&88.cno1v}l.n}}}}}}}}}}",
"}}}}}}}}}}AA}AqqArq,a#7t C)8jjbZDum.QY.tr&87,7}z.c}AP}}}}}}}}}}}",
"}}}}}}}}}}}}}AlzGu@fC.jD.n}E10kbn2yB'AptZ.dCO8}BwZ}}}}}}}}}}}}}}",
"}}}}}}}}}}}}}}AG}GF/}BUTM!}I<ywyyw0S``Pv!L}}RC}SA}}}}}}}}}}}}}}}",
"}}}}}}}}}}}}}}}}}}[}}{[}[}}Jp59999*C}}[}}[}}[}}}}}}}}}}}}}}}}}}}",
"}}}}}}}}}}}}}}}}}}}}}}}}}}}[l#w990 ^}}}}}}}}}}}}}}}}}}}}}}}}}}}}",
"}}}}}}}}}}}}}}}}}}}}}}}}}}}(B 799,<^}}}}}}}}}}}}}}}}}}}}}}}}}}}}",
"}}}}}}}}}}}}}}}}}}}}}}}}}}}{P <7<%a(}}}}}}}}}}}}}}}}}}}}}}}}}}}}",
"}}}}}}}}}}}}}}}}}}}}}}}}}}}QbX>>,><Y}}}}}}}}}}}}}}}}}}}}}}}}}}}}",
"}}}}}}}}}}}}}}}}}}}}}}}}}}Cl$,,,><#wv}}}}}}}}}}}}}}}}}}}}}}}}}}}",
"}}}}}}}}}}}}}}}}}}}}}}}}ndz$<,,,,,,,yzf}}}}}}}}}}}}}}}}}}}}}}}}}",
"}}}}}}}}}}}}}}}}}}}}}}}7s;&79<2<2<27,+sr}}}}}}}}}}}}}}}}}}}}}}}}",
"}}}}}}}}}}}}}}}}}}}}}},q2,<29,9,22792,,65}}}}}}}}}}}}}}}}}}}}}}}",
"}}}}}}}}}}}}}}}}}}}}}Ae,.f89&72d89>7,v7,;c}}}}}}}}}}}}}}}}}}}}}}",
"}}}}}}}}}}}}}}}}}}}}}Mo,Fd28x2.Qt.dt18Su.sA}}}}}}}}}}}}}}}}}}}}}",
"}}}}}}}}}}}}}}}}}}}}n.aA}z.cN+l}c*hA,eAAD z}}}}}}}}}}}}}}}}}}}}}",
"}}}}}}}}}}}}}}}}}}}AeqC}n$8)A.P}Y.a/C.z}}z.n}}}}}}}}}}}}}}}}}}}}",
"}}}}}}}}}}}}}}}}}}}z.N}}v.~}feZ}}ss}_al}}AeeA}}}}}}}}}}}}}}}}}}}",
"}}}}}}}}}}}}}}}}}}}sl}}Aql[nppK}}BOf}K.N}}NqC}}}}}}}}}}}}}}}}}}}",
"}}}}}}}}}}}}}}}}}}veA}}A6A}C5a]}}K V}JeN}}}kl}}}}}}}}}}}}}}}}}}}",
"}}}}}}}}}}}}}}}}}}NN}}}C:Q}Ce7}}}74N}]af}}}CD}}}}}}}}}}}}}}}}}}}",
"}}}}}}}}}}}}}}}}}}S}}}}sb}}Aqn}}}Gqc}}S6A}}}A}}}}}}}}}}}}}}}}}}}",
"}}}}}}}}}}}}}}}}}}}}}}}qR}}Kqf}}}N6c}}^@S}}}}}}}}}}}}}}}}}}}}}}}",
"}}}}}}}}}}}}}}}}}}}}}}}lA}}A6J}}}Yev}}WpA}}}}}}}}}}}}}}}}}}}}}}}",
"}}}}}}}}}}}}}}}}}}}}}}}Bj}}A-^}}}]lx}}}MC}}}}}}}}}}}}}}}}}}}}}}}",
"}}}}}}}}}}}}}}}}}}}}}}}D~}}A@^}}}]sx}}}Rn}}}}}}}}}}}}}}}}}}}}}}}",
"}}}}}}}}}}}}}}}}}}}}}}}n}}}}lJ}}}}lC}}}A}}}}}}}}}}}}}}}}}}}}}}}}",
"}}}}}}}}}}}}}}}}}}}}}}})}}}}n}}}}}j}}}})}}}}}}}}}}}}}}}}}}}}}}}}",
"}}}}}}}}}}}}}}}}}}}}}}}[}}}}B}}}}}z}}}}[}}}}}}}}}}}}}}}}}}}}}}}}",
"}}}}}}}}}}}}}}}}}}}}}}}}}}}}C}}}}}C}}}}}}}}}}}}}}}}}}}}}}}}}}}}}",
"}}}}}}}}}}}}}}}}}}}}}}}}}}}}}}}}}}A}}}}}}}}}}}}}}}}}}}}}}}}}}}}}",
"}}}}}}}}}}}}}}}}}}}}}}}}}}}}}}}}}}}}}}}}}}}}}}}}}}}}}}}}}}}}}}}}",
"}}}}}}}}}}}}}}}}}}}}}}}}}}}}}}}}}}}}}}}}}}}}}}}}}}}}}}}}}}}}}}}}"
};
