/* XPM */
static char *result[] = {
/* columns rows colors chars-per-pixel */
"64 64 89 1 ",
"  c #E40026",
". c #EA0026",
"X c #EB0C26",
"o c #F10027",
"O c #F20028",
"+ c #F60828",
"@ c #E71726",
"# c #EB1426",
"$ c #E51926",
"% c #EA1C26",
"& c #F11327",
"* c #F31B27",
"= c #F71728",
"- c #FC1229",
"; c #F61D28",
": c #FC1D29",
"> c #E72526",
", c #EB2426",
"< c #E72826",
"1 c #EC2B26",
"2 c #F02526",
"3 c #F12C26",
"4 c #F62528",
"5 c #FE2629",
"6 c #FC2D29",
"7 c #EC3326",
"8 c #ED3C26",
"9 c #F23326",
"0 c #F83227",
"q c #F23B26",
"w c #FA3F27",
"e c #FC3429",
"r c #F63A28",
"t c #FD3A29",
"y c #ED4326",
"u c #EE4B26",
"i c #F34426",
"p c #F44B26",
"a c #F64528",
"s c #FE432A",
"d c #FC4B29",
"f c #EE5326",
"g c #EF5B26",
"h c #F55326",
"j c #F85426",
"k c #F35C27",
"l c #F95B26",
"z c #F65628",
"x c #FE5629",
"c c #FD5B29",
"v c #EF6126",
"b c #EF6B26",
"n c #F36426",
"m c #F96327",
"M c #F26B26",
"N c #FA6B27",
"B c #F56428",
"V c #FE632A",
"C c #FD6B2A",
"Z c #F27426",
"A c #FB7127",
"S c #F47B26",
"D c #FB7D27",
"F c #FD7428",
"G c #FD7C28",
"H c #F48426",
"J c #FC8227",
"K c #F58B27",
"L c #F88D26",
"P c #FF8529",
"I c #FF8B29",
"U c #F69327",
"Y c #F89A27",
"T c #FF9329",
"R c #FE9B2B",
"E c #F7A127",
"W c #FAA427",
"Q c #FBAB27",
"! c #FFA32B",
"~ c #FDAB2A",
"^ c #FCB327",
"/ c #FFBA26",
"( c #FDB629",
") c #FEBB29",
"_ c #FFC527",
"` c #FFC228",
"' c #FFCB28",
"] c #FFD328",
"[ c None",
/* pixels */
"[[[[[[[[[[[[[[[[[[[[[[[[[[[[[[[[[[[[[[[[[[[[[[[[[[[[[[[[[[[[[[[[",
"[[[[[[[[[[[[[[[[[[[[[[[[[[[[[[[[[[[[[[[[[[[[[[[[[[[[[[[[[[[[[[[[",
"[[[[[[[[[[[[[[[[[[[[[[[[[[[[[[[[[[[[[[[[[[[[[[[[[[[[[[[[[[[[[[[[",
"[[[[[[[[[[[[[[[[[[[[[[[[[[[[[[[[[[[[[[[[[[[[[[[[[[[[[[[[[[[[[[[[",
"[[[[[[[[[[[[[[[[[[[[[[[[[[[[[[[[[[[[[[[[[[[[[[[[[[[[[[[[[[[[[[[[",
"[[[[[[[[[[[[[[[[[[[[[[[[[[[[[[[[[[[[[[[[[[[[[[[[[[[[[[[[[[[[[[[[",
"[[[[[[[[[[[[[[[[[[[[[[[[[[[[[[[[[[[[[[[[[[[[[[[[[[[[[[[[[[[[[[[[",
"[[[[[[[[[[[[[[[[[[[[[[[[[[[[[[[[[[[[[[[[[[[[[[[[[[[[[[[[[[[[[[[[",
"[[[[[[[[[[[[[[[[[[[[[[[[[[[[[[[[[[[[[[[[[[[[[[[[[[[[[[[[[[[[[[[[",
"[[[[[[[[[[[[[[[[[[[[[[[[[[[[[[[[[[[[[[[[[[[[[[[[[[[[[[[[[[[[[[[[",
"[[[[[[[[[[[[[[[[[[[[[[[[[[[[[7[[C[7[[[[[[[[[[[[[[[[[[[[[[[[[[[[[",
"[[[[[[[[[[[[[[[[[[[[[[[[[[n~[IN,07Pn[R[[[[[[[[[[[[[[[[[[[[[[[[[[",
"[[[[[[[[[[[[[[[[[[[[[[[[[[H~g8ynhk78S~[[[[[[[[[[[[[[[[[[[[[[[[[[",
"[[[[[[[[[[[[[[[[[[[[[[[[[[)TZzNJTFNfS![[[[[[[[[[[[[[[[[[[[[[[[[[",
"[[[[[[[[[[[[[[[[[[[[[[[[[[[~hNNPIFFzG^[[[[[[[[[[[[[[[[[[[[[[[[[[",
"[[[[[[[[[[[[[[[[[[[[[[[[[[[EpG.NIpyAC^[[[[[[[[[[[[[[[[[[[[[[[[[[",
"[[[[[[[[[[[[[[[[[[[[[[[[[[[uFN,pF71FVk[[[[[[[[[[[[[[[[[[[[[[[[[[",
"[[[[[[[[[[[[[[[[[[[[[[[[[[[uyq8qF,yp9g[[[[[[[[[[[[[[[[[[[[[[[[[[",
"[[[[[[[[[[[[[[[[[[[[[[[[[[SV9117h,718F[[[[[[[[[[[[[[[[[[[[[[[[[[",
"[[[[[[[[[[[[[[[[[[[[[[[[[[Hc77up#zy77C[[[[[[[[[[[[[[[[[[[[[[[[[[",
"[[[[[[[[[[[[[[[[[[[[[[[[[[vr17GGpPN1,pk[[[[[[[[[[[[[[[[[[[[[[[[[",
"[[[[[[[[[[[[[[[[[[[[[[[[[y631yIPGID,73t[[[[[[[[[[[[[[[[[[[[[[[[[",
"[[[[[[[[[[[[[[[[[[[[[[[[[i3q8zPPPPJqi9ty[[[[[[[[[[[[[[[[[[[[[[[[",
"[[[[[[[[[[[[[[[[[[[[[[[[ut9qmJIPPPIGz39s[[[[[[[[[[[[[[[[[[[[[[[[",
"[[[[[[[[[[[[[[[[[[[[[[[[849,FIPPIPPIl,96u[[[[[[[[[[[[[[[[[[[[[[[",
"[[[[[[[[[[[[[[[[[[[[[[[ytN11FPFPAPAIB%iB5f[[[[[[[[[[[[[[[[[[[[[[",
"[[[[[[[[[[[[[[[[[[[[[[y:FG21yGNPNPNF,1qIl5[[[[[[[[[[[[[[[[[[[[[[",
"[[[[[[[[[[[[[[[[[[[[[a3NIp11,NqFANil@12NIzey[[[[[[[[[[[[[[[[[[[[",
"[[[[[[[[[[[[[[[[[[[y6aGPNq%ufp9lzh9ig8%pFPA1tu[[[[[[[[[[[[[[[[[[",
"[[[[[[[[[[[[[[[[yuw0APIlq9%gv19999q7My19pNIPl6yu8[[[[[[[[[[[[[[[",
"[[[[[[[[[[[[[[[haFPPPFpl87oSE q9991,^y9,plzGPPPVpu[[[[[[[[[[[[[[",
"[[[[[[[[[[[[[[sGIIPIlzil8,2gHX1771>8H79$pppjNIIIIF7[[[[[[[[[[[[[",
"[[[[[[[[[[[[[rGIPFPIzzql87&kT%><,<@uT%71pppjNIGGPIC7[[[[[[[[[[[[",
"[[[[[[[[[[[[qFGFINGPpl7up.R`]T.<<>,W[/Z.j8pplIAFIAJCy[[[[[[[[[[[",
"[[[[[[[[[[[[CTFGINjl8l7,95[[(T.<1>>~[[769$phyljFINJIh[[[[[[[[[[[",
"[[[[[[[[[[[rFINNN1jl7lq8&C[[C,,1>1%8N[Uw91phylaqGmFIV8[[[[[[[[[[",
"[[[[[[[[[[8FIGplp,ll8liy%AH721,,,,1,eyUp7yphilu,jhzIIV8[[[[[[[[[",
"[[[[[[[[[8CPPPqlp,9ryl2S`M*#79111139,%*U`uaz8r77jjpIPPx8[[[[[[[[",
"[[[[[[[[yVIPCl197773yqoHY.Xy9,1373>,iy.8Qg2qy377997NNIPxy[[[[[[[",
"[[[[[[[ywIPNp11q1y1,y1<n%9Nk3f1,%38u9vV.ug.78#7839,9jFIG6[[[[[[[",
"[[[[[[ut2mI89,19371,y8by5MHsob18g#fkol[goggyy%7779<1,kIu3w[[[[[[",
"[[[[[[t37,8,,18,7g87ynk.M[ZeBJ28NXiT8x[[c.bg8<uf,1y,,1q,938[[[[[",
"[[[[[r391,11,7y1.(f yM7B[[Vd)U*uM7wQW+Z[[dun1 TT.1y1,1,>1968[[[[",
"[[[ys3q8>,y7%uy%4UW~Mgx[[Zry[u6M[V9v[Of[[SdnD)^M;,py#y7,1897su[[",
"[[s93787,78,,y71s[[[Zc[[[M6~[x&[[yom[K-S[[ZcU[[%w188,181,8831ti[",
"[s298y7,,77%t[v P[[[ZS[[Srk[[dx[[Stl[[sz[[[PZ[[)0oZut%y<,,8yq33a",
"[isa8,,%7y,37[(RW[[[S[[[S-I[[dx[[Stm[[Cd[[[SS[[[!![[7,<u,,,1yasi",
"[[[7;,1rp7%tf[[[[[[[[[[[ZdR[[dc[[Stn[[Zx[[[[[[[[[[[[u4,yd9,,*y[[",
"[[[[t7puue6y[[[[[[[[[[[[ZF[[Hsc[[SeV[[SC[[[[[[[[[[[[[q4t[uy3s[[[",
"[[[[u[[[[uu[[[[[[[[[[[[[BG[[[uc[[SsB[[(m[[[[[[[[[[[[[[uu[[[u[[[[",
"[[[[[[[[[[[[[[[[[[[[[[[[[![[[ZC[[SC[[[[W[[[[[[[[[[[[[[[[[[[[[[[[",
"[[[[[[[[[[[[[[[[[[[[[[[[['[[[MV[[ZV[[[['[[[[[[[[[[[[[[[[[[[[[[[[",
"[[[[[[[[[[[[[[[[[[[[[[[[[`[[[MV[[SV[[[[`[[[[[[[[[[[[[[[[[[[[[[[[",
"[[[[[[[[[[[[[[[[[[[[[[[[[[[[[[S[[[S[[[[[[[[[[[[[[[[[[[[[[[[[[[[[",
"[[[[[[[[[[[[[[[[[[[[[[[[[[[[[[[[[[[[[[[[[[[[[[[[[[[[[[[[[[[[[[[[",
"[[[[[[[[[[[[[[[[[[[[[[[[[[[[[[[[[[[[[[[[[[[[[[[[[[[[[[[[[[[[[[[[",
"[[[[[[[[[[[[[[[[[[[[[[[[[[[[[[[[[[[[[[[[[[[[[[[[[[[[[[[[[[[[[[[[",
"[[[[[[[[[[[[[[[[[[[[[[[[[[[[[[[[[[[[[[[[[[[[[[[[[[[[[[[[[[[[[[[[",
"[[[[[[[[[[[[[[[[[[[[[[[[[[[[[[[[[[[[[[[[[[[[[[[[[[[[[[[[[[[[[[[[",
"[[[[[[[[[[[[[[[[[[[[[[[[[[[[[[[[[[[[[[[[[[[[[[[[[[[[[[[[[[[[[[[[",
"[[[[[[[[[[[[[[[[[[[[[[[[[[[[[[[[[[[[[[[[[[[[[[[[[[[[[[[[[[[[[[[[",
"[[[[[[[[[[[[[[[[[[[[[[[[[[[[[[[[[[[[[[[[[[[[[[[[[[[[[[[[[[[[[[[[",
"[[[[[[[[[[[[[[[[[[[[[[[[[[[[[[[[[[[[[[[[[[[[[[[[[[[[[[[[[[[[[[[[",
"[[[[[[[[[[[[[[[[[[[[[[[[[[[[[[[[[[[[[[[[[[[[[[[[[[[[[[[[[[[[[[[["
};
