/* XPM */
static char *result[] = {
/* columns rows colors chars-per-pixel */
"32 32 72 1 ",
"  c #1C0D05",
". c #250E00",
"X c #251103",
"o c #24160C",
"O c #28180A",
"+ c #331D0E",
"@ c #231712",
"# c #261B15",
"$ c #2C1D15",
"% c #251B19",
"& c #2A1E19",
"* c #331F14",
"= c #391F13",
"- c #3B200B",
"; c #2F2017",
": c #2D211B",
"> c #352115",
", c #3C2213",
"< c #33241C",
"1 c #3C261A",
"2 c #37281E",
"3 c #3B291D",
"4 c #2F2520",
"5 c #322721",
"6 c #352923",
"7 c #3A2B23",
"8 c #362D29",
"9 c #3A2E29",
"0 c #3C322C",
"q c #3E3531",
"w c #46240E",
"e c #4C250E",
"r c #55260E",
"t c #5B270D",
"y c #55280C",
"u c #5C280C",
"i c #432312",
"p c #4C2411",
"a c #4B2A1C",
"s c #512511",
"d c #5D2510",
"f c #552A12",
"g c #60270E",
"h c #6D270E",
"j c #63290C",
"k c #6C2B09",
"l c #782C07",
"z c #722B0A",
"x c #792E0A",
"c c #7E3009",
"v c #422F25",
"b c #43352D",
"n c #403631",
"m c #453A36",
"M c #483A34",
"N c #443C3A",
"B c #483E3A",
"V c #48413F",
"C c #4C4543",
"Z c #4F4847",
"A c #4E4949",
"S c #504745",
"D c #514B4A",
"F c #595354",
"G c #656163",
"H c #6E6A6D",
"J c #832E07",
"K c #832D09",
"L c #882D09",
"P c #8C3007",
"I c #813009",
"U c None",
/* pixels */
"UUUUUUUUUUUUUUUUUUUUUUUUUUUUUUUU",
"UUUUUUUUUUUUUUUUUUUUUUUUUUUUUUUU",
"UUUUUUUUUUUUUUUUUUUUUUUUUUUUUUUU",
"UUUUUUUUUUUUUUU580NBvUUUUUUUUUUU",
"UUUUUUUUUUUUU56qNBZAm,UUUUUUUUUU",
"UUUUUUUUUUUUNqqBCCFFB<>UUUUUUUUU",
"UUUUUUUU5qCCqBq8CDCq5::%>UUUUUUU",
"UUUUUUU<:NGHCAC6@@#:554:,wUUUUUU",
"UUUUUUU$::o9DAC7;#45::;$>$UUUUUU",
"UUUUUUU*<56$.XX@$:::%#$$$$UUUUUU",
"UUUUUUi>&:$$:;>>$$$O;$$**$*UUUUU",
"UUUUU>>65#@$$$>*$>373>>$*$$>iUUU",
"UUUUU*NACq0%&$$%;3609<#$$$*i,UUU",
"UUUU*+NACBm05<9970000:##$$$>*UUU",
"UUUU$$o6mMbb89CCBmMM<$$$*>*$$UUU",
"UUU**$>>O+=O@:NBqvv1*$>i,,$$*=UU",
"UU**<;$<$#&&<&  o-+$$$**>>*$$=UU",
"UU***,>*17767<%%;>$#%*$$$$*ptsUU",
"UU**$*=,13776&%#$##:$&&$$$=ipi*U",
"UU**<$*=,,37i>&&<<&<5<$$***,$$,U",
"UU>>fp&$*iep>>4686<@$-ii,,i,=srU",
"UU,iutsi*,i,$<13a31p*,i,,>rjsj,U",
"Uri,,euf,*$;&*iiripdi*sa;>eju,wi",
"repei,puri>;$$$*$*>*$ip=*puueyyi",
"twigi*irzzer,i,=$$#>,=,,,puuykJr",
"Ltpp=%*irtp=$$$$$$$>***>*,eglJJe",
"ULzdi=$=i=>***$*>>we*$>eukklPJzU",
"UUUhtppssi>iii==uuuuewekJPJkkjUU",
"UUUUUUUUhdp1<>,fkxckxcczzxUUUUUU",
"UUUUUUUUUUUUUUUUUwUUUUUUUUUUUUUU",
"UUUUUUUUUUUUUUUUUUUUUUUUUUUUUUUU",
"UUUUUUUUUUUUUUUUUUUUUUUUUUUUUUUU"
};
