/* XPM */
static char *result[] = {
/* columns rows colors chars-per-pixel */
"64 64 218 2 ",
"   c #010100",
".  c #0C0100",
"X  c #0D0F00",
"o  c #130100",
"O  c #140C00",
"+  c #001400",
"@  c #0D1300",
"#  c #021900",
"$  c #0D1A00",
"%  c #151400",
"&  c #1B1401",
"*  c #171B00",
"=  c #181E00",
"-  c #291807",
";  c #2F150A",
":  c #351C0D",
">  c #002200",
",  c #012C00",
"<  c #152300",
"1  c #192300",
"2  c #142C00",
"3  c #1B2B01",
"4  c #003500",
"5  c #003C00",
"6  c #0B3C00",
"7  c #153400",
"8  c #1D3302",
"9  c #143B00",
"0  c #1D3A03",
"q  c #292708",
"w  c #33280F",
"e  c #213705",
"r  c #213C04",
"t  c #2B370A",
"y  c #293C0A",
"u  c #343D0F",
"i  c #3B2412",
"p  c #372A11",
"a  c #3C2C14",
"s  c #3A3313",
"d  c #422B16",
"f  c #433916",
"g  c #463519",
"h  c #533D1E",
"j  c #5B3C25",
"k  c #693E2C",
"l  c #733D31",
"z  c #004400",
"x  c #0C4300",
"c  c #014B00",
"v  c #164301",
"b  c #1D4303",
"n  c #154802",
"m  c #1D4B04",
"M  c #005100",
"N  c #015C00",
"B  c #0B5901",
"V  c #145702",
"C  c #1A5303",
"Z  c #1C5A05",
"A  c #234305",
"S  c #254B06",
"D  c #254409",
"F  c #294708",
"G  c #264B09",
"H  c #294D09",
"J  c #324C0E",
"K  c #255406",
"L  c #295607",
"P  c #255B06",
"I  c #25530A",
"U  c #2A540A",
"Y  c #255B0A",
"T  c #2D5B0D",
"R  c #31550E",
"E  c #305E0F",
"W  c #394A13",
"Q  c #2E5410",
"!  c #2E5D11",
"~  c #345412",
"^  c #3B5314",
"/  c #335D13",
"(  c #3C5A15",
")  c #016202",
"_  c #076706",
"`  c #176408",
"'  c #1F7212",
"]  c #25640C",
"[  c #2C620E",
"{  c #276A0B",
"}  c #31620E",
"|  c #336B0E",
" . c #2E700B",
".. c #35730F",
"X. c #37790F",
"o. c #246712",
"O. c #2D6411",
"+. c #2E6A12",
"@. c #326312",
"#. c #386516",
"$. c #346B15",
"%. c #3A6B15",
"&. c #3B6519",
"*. c #376E18",
"=. c #3C6B1A",
"-. c #247115",
";. c #2D7214",
":. c #347113",
">. c #397412",
",. c #3A7A12",
"<. c #377218",
"1. c #3C721B",
"2. c #3E791D",
"3. c #464819",
"4. c #4C4C1C",
"5. c #504B1F",
"6. c #405A16",
"7. c #445319",
"8. c #4B551C",
"9. c #425D19",
"0. c #4C5D1E",
"q. c #53571F",
"w. c #44641B",
"e. c #45661B",
"r. c #4B631D",
"t. c #426E1D",
"y. c #42731E",
"u. c #43781E",
"i. c #584523",
"p. c #5B4D25",
"a. c #4F5D20",
"s. c #555422",
"d. c #5B5424",
"f. c #555B23",
"g. c #5F5927",
"h. c #634229",
"j. c #6C432D",
"k. c #634C29",
"l. c #744C2F",
"z. c #615A27",
"x. c #625228",
"c. c #6B542D",
"v. c #645B29",
"b. c #6C5B2E",
"n. c #715A2E",
"m. c #724331",
"M. c #744F32",
"N. c #7B4D35",
"B. c #745432",
"V. c #7C5335",
"C. c #7B5E34",
"Z. c #4D6521",
"A. c #556322",
"S. c #5B6525",
"D. c #457521",
"F. c #487622",
"G. c #457A21",
"H. c #4B7B25",
"J. c #4F7E28",
"K. c #517E26",
"L. c #517F28",
"P. c #69652B",
"I. c #70612E",
"U. c #6A702C",
"Y. c #786632",
"T. c #835338",
"R. c #8D5C3C",
"E. c #915C3F",
"W. c #826236",
"Q. c #876739",
"!. c #8D6C3C",
"~. c #96673F",
"^. c #926A3E",
"/. c #857538",
"(. c #91733D",
"). c #995D43",
"_. c #9A6A42",
"`. c #967540",
"'. c #9B7242",
"]. c #A66848",
"[. c #A97649",
"{. c #B3744E",
"}. c #B47B4E",
"|. c #B97450",
" X c #BC7B52",
".X c #C37D55",
"XX c #3C8115",
"oX c #408616",
"OX c #428B17",
"+X c #4A841B",
"@X c #518A1F",
"#X c #49911A",
"$X c #4D8225",
"%X c #488825",
"&X c #508227",
"*X c #548E20",
"=X c #548429",
"-X c #58862C",
";X c #56892A",
":X c #5B8B2D",
">X c #589623",
",X c #5E902F",
"<X c #5F8E30",
"1X c #5F9130",
"2X c #608F2F",
"3X c #608E30",
"4X c #649432",
"5X c #689735",
"6X c #6A9A36",
"7X c #6E9E38",
"8X c #709F39",
"9X c #5EA126",
"0X c #6FA039",
"qX c #72A23A",
"wX c #77A83D",
"eX c #79A93E",
"rX c #C88157",
"tX c #D3855D",
/* pixels */
"z Y..XtXtX(.] <.=X&X:X8X7X-Xy./ r o   4 O.1.$.1.J.5XqX4XJ.N s.{.tXtX[.w.-.&Xt.} F.L.1.$.@.H *   + : g ^ [ $.<.F.3XqX%XD.[.tXtX.X",
"c I.|..X X!.Z $.J.F.=X5X4XL.=.@.G 3 : s #.<.*.D.G.<X6X<XF.N q.[..X.X'.( o.J.=.E D.J.1.$.#.L 8 q a f 3.( O.*.G.&X4X7X%X=.`..X X X",
"N g._._.Y.s.0 / =./ t.-X-Xt.%.$.] J h.j.0.+.H.G.&.H.<X$X1.` 8.R.].Q.P.y I t./ U =.1.%.$.$.O.K i.m.g.@.$.*.F.=X5X5X<X1.~ T._.Q.Y.",
"] a.M.p.N 5 % D T m ~ F.y.T O.<.{ &.b.V.8.O.H.F.! &.H.D.$.] w.c.k.Y c % r U H L @.$.T E $.$.[ z.V.S.;.:.1.F.<X7X5XJ.@.H k.B.( N ",
"$.w.f.7.c 4 * 3 A A T =.#.r G @.+.$.A.f.u A =.=.U @.y.%.$.$.=.a.8.C 5 * 3 r A U @.@.A D [ $.$.Z.f.r.$.y.H.=.F.<X;XD.@.U r.Z.E c ",
"*.$.[ L L A * O < A U T H = r E $.<.2.*.D 3 U U G ! $.$.T $.$.[ Y T A 1 O * r H E U 3 8 T $.<.<.<.O./ H.J.@.#.H.G.*.@.} :.X.[ U ",
"$.O.K { ,.T % o * 8 r A A r H E O.$.%X;X&.G D b I E $.U A / $.Y P X.| 3 o * 3 r A A r G T } $.$X,XG.$.t.=.T E y.1.$.$.$.|  ...,.",
"E T G | OX| % O = = * % 8 S U E O.1.5X7X$X! 8 1 G T E r = H T G } OX,.3 o = 1 = % 3 A U T } $.-X0X;X+.O.T H U *.$./ @.<.} } XX#X",
"D G I :.XXT o o = * % o 1 e G E u.1XqX7X$XY 1 o r A F r r r G U $.XX| 1 o < = % O % 0 H T $.y.4X0X;XO.m r G T @.T A U $.@.O.:.XX",
"O D +.<.*.Q % O = = = * * * 0 T ;XqXwX7X$XT 8 o 1 = 1 A U 3 3 @.<.<.T 1 o < = = * * O 0 U =.J.4X0X;XO.0 = A T E H 1 A } $.*.<.<.",
"2 ( &X:X&Xt.G 8 * * 3 r 3 o 0 T H.4X7X7X$X$.Q 0 = o O 8 D r D [ y.&XH.Q 8 * * 1 e e O 3 U $.D.:X0X5X=X#.b r A H A 8 A / u.;X=X&X",
"K D.5X0X7X;X+.D O O 3 G A % r E O.1.4X7X-XF.1.! 3 o * % 3 G } [ G.7X4X1.G 1 o 1 A G = 3 T [ $.;X0XwX5X$X! r % 1 r H K } :X0X7X7X",
"P H.qXeXqX,X;.b o O 3 A G D U @.1.&X5X7X5X-X1.I 3 1 0 = 1 S $.u.:X5X1X1.I % o 1 r G D U ! <.$X5X0X0X5XH.L 0 . o 3 A S @.2XwXwXqX",
"K F.7XeXqX:XO.9 o % * * D @.+.$.;X7X8XqXqX4X&.9 < e G e 1 b y.4X7X:XG.$.G O o * * r / $.O.$X5XqXqX5X$X=.A 3 O * * 1 b @.2XwXqXqX",
"L y.2X7X5X<XH./ 8 2 X . D $.1.2.:X0X8XqXqX3X( 7 = e A 8 = b =.1X5X:X&X$X=.D 2 $ . 3 @.1.1.&X5X7X6X;XD./ A 3 = 8 1 O 0 } =X5X5X5X",
"T $.y.H.=X4X6X$X! 4   . e ! 1.J.=X-X7X8X4XJ.$.A * * 3 % % G @.1.&X5X0X7X;X@.x     3 T 1.J.H.t.K.-XH.<.@.G 3 1 A r o r E 1.F.&X-X",
"} @.$.D.&X5X7X&X} W : q b K &.H.F.F.3X6X=XD.@.U r * % < r Q @.O.H.7XwX0X:X$.W i q 0 G #.F.y.K &.H.1.$.@./ A 0 G A r H @.$.1.J.=X",
"+.=.F.:X6X5X<X1.R i.h.^ m 0 Q =.@.( &X-XF.@.*.$.T 9 + m @.$.$.D.-X7X7X<XG.T i.h.7.S 0 H %.&.K @.1.*.@.*.$.! D 8 D / +.$.1.J.4X7X",
"<.1.H.3X7X1XF.Y 3.T.R.r.c * 0 L K G t.F.@.U $.*.@.J p ^ <.<.1.F.;X6X5XJ.O.I V.R.P.B < 1 L L S T $./ ! $.<.@.H * D *.<.1.D.=X5X7X",
"J.F.=.H.<X=X1.) q.[.{.S.z < 1 r A L &.%.D A @.O.P i.j.f.$.G.J.1.D.<X;XD.` U _.|.Y.c , * e A U T @.H r ! @.T A o r $.F.H.t.y.=X3X",
"L.D.E &.H.D.*.) A.}.|.v.4 1 O % r S T U 8 3 U L m d.V.x.T D.H.#.@.H.H.*._ / [..XW.z 2 % O 8 G T T r 1 H T U G 3 0 U t.J.=.E F.J.",
"y.%.U @.D.*.$.` t./.^.B.j q + * 3 r r r r A A A m 8.z.3.b #.t.T T =.1.@.{ =.U.!.C.h.p + % 1 e r A A r r A / O.I b 0 ( y./ U =.y.",
"E U S E $.$./ $.$._ 9.V.m.q + 1 = * % 1 G G 1 3 G T T D * L T I T $.$./ @.<.` ! B.N.d # * < * % * A G 3 8 @.1.1./ 3 A T L H +.<.",
"A A G E $.U A / $.N I g.p.q + = * * O % e r o 8 / +.` v o 3 D G T @.! A U %.) M s.d.s + = = * O O 8 A r L O.2.<XJ.Q A A A L O.$.",
"* 8 G T E F = H } U U @.U 3 % = = = = = = * O D $.1.*.H % O 3 D U } L = D / T S / T 8 O = 1 = = * % 3 H @.[ $X7X4X1.G * 0 U ! ! ",
"o * r A H r e r G U [ ] C < o = * 1 0 r 1 1 e U $.$X=XD.G 1 % 8 A G A e r A L Y o.Z 7 o * = = 8 r 1 1 K %.$X5XqX4X1.m o 3 D A G ",
"% * 1 1 1 r S 3 3 O.<.%.! 1 o * * 1 A G 3 3 U O.+.;X7X-X$.b O = 1 = r G r 1 U $.<.O.0 o * = * r H 0 1 b y.5XwXqX1X<.m O % 1 1 3 ",
"H r 1 o O 8 G r D O.2.=XH.Q 7 < % 1 r A 1 7 T %.1.1XqX,X+.0 o % % o 3 A 0 r t.=X;XJ./ 7 1 % * e A 3 < A %.;X5XqX4XD.@.G 3 O O O ",
"*./ 3 o * * 3 G ! ] G.5X5X1.m < O * 1 3 @ 7 U =.J.4XqX;XO.9 . * = % * 1 0 / -X7X0X4XG.Y 3 o * 3 1 O * G @.$.$X7X5XK.y.$.F O % * ",
"*.! 3 = 8 = * G $.F.-X5X1X2.U w - # + % - t U %.F.<X0X4XH.#.0 < 1 8 3 O 9 @.2XwXwX7X$XT t & $ + $ 3 G T $.y.;X0X7X:XJ.$.D % 3 8 ",
"T D 1 8 H e = b %.4X7X:XF.:.~ d - + + + : s R [ +.;X7XqX5X$X! 8 1 G A * 0 E :XwXwX6XG.Q g : +   # I *.O.1.4X0X7XqX7X=XS 2 1 D G ",
"L D < 8 G 0 = b %.3X5X:X&X$Xt.4.f a i g h 7.@.$.D.<X0XqX6X$X! 0 1 A r * 0 E =X5X7X4X&Xt.a.f d i g ( <.<.H.5XqXqXqX7XK.G 2 = A S ",
"T H = * 3 * O G @.1.&X4X6X6X-X=.5.k k p.a.$.O.F.5XqX0X5X;X=.S 3 = 3 1 o r ! 1.H.J.-X5X1X2.a.j l m.f.$.D.&X=X5XqX7X<XF.L 8 o 3 7 ",
"@.Q r * % 1 r U @.+.H.6XwXqX:X$.I.).).).S.' :.$X5X0X6X<XF.#.A 3 O % < 8 H @.+.=.F.<X7X4X<.g.R.).V.s.Y D.J.F.&X5X4XH.=.@.G 3 * % ",
"<.@.Q 9 + n @.O.$.1.-XqXqX4X2.Y _.|..X{.U._ G.J.H.=X<X$X1.@.L 3 .   6 ! @.$.1.J.4X5X4X$X_ Y.|.[.f.F 0 @.=./ y.-X=X=.=.$.@.H 3 o ",
"<.$.@.J w ~ <.<.1.H.=X5X5X$Xo.m _.rXtX}.P.) H.F.L #.H.D.$.@.T 0 = ; W <.<.<.F.&X5X7X=X*.M W..X'.Z 4 * G U S / F.t.U O.*.$.E r 1 ",
"%.+.Y 5.k d.$.G.H.t.F.<X-XG.{ I C.]._.Y.3.n =.%.I @.y.=.@.$.$.P 3.k x.&.1.H.D.1.=X<XH.*.B n.].W.C 4 % 3 A A E =./ r L $.E U U H ",
"T L C p.V.v.T D.J.@.@.F.F.<.+.[ g.M.a.N , q U T H ! :.@.E $.$.] 8.V.c.^ 1.J.=.! D.J.1.+.] f.N.p.I 9 * O 3 A U T H = r E U H E } ",
"r b c 7.v.4.A #.t.! T =.y.$.+.$.Z.f.#.N , o 0 G G T $.U r / $.Y 6.z.s.F / y.#.L =.D.$.O.$.e.S.0.Y 9 o o = e r A r r A A m m Z Z ",
"% e G E [ D * H E L Q $.$.E @.=.<.*.<.#.D o % 8 S T ! A 1 H E L L [ I * A / U H @.$.@.@.*.*.$.<.*.H % * = = * % e L r = r U H G ",
"  s k.s.P 6 % 8 G G U } } A U $.;.;.$X-X&.b < * r A F r r A A H S Z v * 3 A G L @.@.G H @.+.{ %X-XD.G 8 % * % o 3 r 7 % h k.k.k.",
"+ g N.c.H 6 * % 3 A T E U 3 r E O.1.4X6X$X! 8 O = * 1 A H 8 3 A U U A 1 % 1 r U E T 3 8 T [ +.-X7X;XO.b O * = * = 1 # - h.V.T.T.",
". f n.g.! 9 O o * e A H D 8 A E #.G.6X7X&XY 3 . * O O 8 A = * G ] T G * o % 3 D G G e r L y.=X5XqX<X$.0 o % 3 e 8 *   = p.b.n.b.",
". y =.1.$.G O O = 1 1 1 e G L E t.&X6X7X%XZ 3 o = * * 1 1 O 3 ! $.$.U = o = 1 3 1 8 A U L H.7XwX7X;XO.0 o O 8 G A 1 o * ( D.=.&.",
"r m o.XX&Xt.D 3 * * % o 1 r G / &.H.5X7X<XD.Q 8 1 3 0 1 * < J u.=X=Xy.U 3 < % % o * e G L y.4X7X0X;X*.! r 3 3 D r * 1 A Z ;.%X%X",
"! ! o.&X7X;XO.b O * * * % % A ! O.1.1XqXqX4XD.I 1 0 G e 1 b %.2X0X0X:X<.G = % * * * O 0 U $.<.:X0X<XD.t.O.e O 3 < $ A T ] <.<X7X",
"! $.G.<X7X:X*.b o % 1 3 8 r I O.1.$X5XqXqX1X2.I 3 3 S 8 1 b y.5XeXwX4X2.m * O = 3 e e D T %.G.,X0X5X-XG.T 9   @ % * A @.1.=X4X7X",
"I F.5X5X-XG.O.b o O 3 A Q @.@.+.;X7XqX7X4XJ.#.b 1 < 3 * < v y.5XeXwX4X<.n o o 3 r H / $.[ $X5X7X0XqX5XF.v ,   + + < 0 @.<X6X<X=X",
"L F.5X5X=XJ.G./ 3 * 3 A T *.<.1.;X7X7X5X=Xt.T r 1 O @ & q G %.:X7X7X4XH.#.r * 1 r L $.<.=.=X7X8X0XqX5XD.A s d w j l.d.T ;X7X<X$X",
"T %.G.;X5X5X5XJ.Y 0 O * A O.y.H.H.F.=X:XH.%.} G *   + - a W $.y.$X&X<X5X=X@.b * % r T 1.F.=X:X7XqX6X-X$.^ j.l j E.|.!.P :.&X4X5X",
"} O.O.;XqXwX7X&XO.0 O * r L t.J.=.U t.H.=.+.@.U 8 - p g 3.( O.O.1.J.3X8X<X*.S @ % 8 G &.H.H.F.:X6X<XD.O.9.c.T.R.].rX(.] ) 1.4XqX",
"@.*.D.:XqX7X<XD.I , > G H 0 ~ =.@.K $.y.$.$.$.@.Y 3.j s.#.@.*.D.&X4X6X3XH.! 4 + b H r H =.=./ H.<XJ.$.*.=.9.W.{.}./.U.+.<.J.6XwX",
"<.1.H.3X7X3XH.@.A q t / U 1 0 U U S $.$.E E $.+.] v.R.I.+.;.1.F.-X7X5XL.=.S t q R T 3 3 U L S &.H.&.T @.$.) Y. X[.;._ 1.F.J.4X7X",
"H.G.=.K.3X=X1.[ ~ h.h.C z $ 3 r G U } @.G G @.] B Q.|.(.' 2.H.=.H.3X<XF.$.U i.k ^ c , = 0 A S @.=.~ 0 ! +.N z.].!.o.' H.D.D.=X4X",
"&XF./ =.L.F.$.] 6.V.N.8.A 3 O * r S E T 8 3 E Z c ^..X(.V 2.H.@.#.F.G.*.[ [ c.V.d.G 3 % % 8 S T ! r 1 L T C 4.V.c./ 1.J.=./ D.L.",
"F.=.U @.D.1.+.+.%.0.Y._.R.p   * 3 r A A r r A v x n.(.n.n #.D.! ! D.1.$.$.@.r.b.^.^.j   O 3 r r A r r A A m W s.4.A / D.#.U *.F.",
"} E S @.*.$./ $.%.) P.rX[.d   = = 1 * 3 G G 1 3 G E / D 3 S E U U $.$.} @.=.) r.}. Xj.  $ 1 1 * 1 A H 8 3 A T E H 1 A @.U L @.<.",
"A G S T $.T D / $.N A.'.~.s   1 = % o % r r O F >.{ c 4 & r S G U $./ G T $.) / (.'.i.  * * % O O 8 A % 3 | ..P 9 % 3 G S L @.$.",
"1 8 H T } A 1 L } U U w.^ 3 % * = = * = 1 * o T OX,.H 8 % * 3 F T @.L 1 A } T U w.6.y O * = 1 = * = 1 o A oXoXL 8 1 * 1 A U E @.",
"O 1 r A H A 8 A H H m z 5 * * < * 1 8 e 1 O o A ..X.| S % o * r D G D 8 A S G A c 5 , & < = = 3 e 3 % o e | >...T 1 o % 8 A G H ",
"= 1 1 1 3 A G r 3 A A 3 % * = = * = A G e % * O % | oX| O O = 1 1 3 r S A 3 r A 7 % * * = * * r S e * % * o U oX>.3 o = 1 3 3 3 ",
"= * * O O 0 A 1 3 E %.U r 8 3 = * 1 r F 3 = 3 r J >.oXE O O = * O O 3 F 8 O R >.R r e 3 1 * * e G 0 = 1 r J %.oX..3 o = * % % O ",
"1 = = = * 3 3 . r K.*X,.} S 8 1 * * 3 3 * 1 0 %.*X+X| A % * = = = = 1 3 O = y.>X+X| U r 3 * * 3 3 = 1 7 E @X@X<.H 1 O = = = * * ",
"= = = = * * % . F @X9X#X..T r = * = * % % 3 A u.9X@XE r * * 1 = = = * * . = +X9X#XX.E r 3 % = * * % 1 0 %.>X>X%.r 1 * 1 = = = = "
};
